<svg xmlns="http://www.w3.org/2000/svg" xmlns:xlink="http://www.w3.org/1999/xlink" viewBox="0 0 549 77"><defs><style>.cls-1{fill:none;}.cls-2{fill:#fff;}.cls-3{isolation:isolate;}.cls-4{fill:url(#linear-gradient);}.cls-5{fill:url(#linear-gradient-16);}.cls-6{fill:url(#linear-gradient-31);}.cls-7{fill:url(#linear-gradient-46);}.cls-8{fill:url(#linear-gradient-61);}.cls-9{fill:url(#linear-gradient-76);}.cls-10{fill:url(#linear-gradient-91);}.cls-11{fill:url(#linear-gradient-106);}.cls-12{fill:url(#linear-gradient-121);}.cls-13{opacity:0.7;mix-blend-mode:overlay;}.cls-14{fill:url(#New_Pattern_11);}</style><linearGradient id="linear-gradient" x1="275.28" y1="56.07" x2="275.28" y2="19.86" gradientTransform="translate(3.57 5.73) scale(0.99 1)" gradientUnits="userSpaceOnUse"><stop offset="0" stop-color="#270011"/><stop offset="1" stop-color="#4a0000"/></linearGradient><linearGradient id="linear-gradient-16" x1="275.28" y1="56.07" x2="275.28" y2="19.86" gradientTransform="translate(2.74 5.02) scale(0.99 1)" xlink:href="#linear-gradient"/><linearGradient id="linear-gradient-31" x1="275.28" y1="56.07" x2="275.28" y2="19.86" gradientTransform="translate(1.91 4.3) scale(0.99 1)" xlink:href="#linear-gradient"/><linearGradient id="linear-gradient-46" x1="275.28" y1="56.07" x2="275.28" y2="19.86" gradientTransform="translate(1.07 3.58) scale(0.99 1)" xlink:href="#linear-gradient"/><linearGradient id="linear-gradient-61" x1="275.28" y1="56.07" x2="275.28" y2="19.86" gradientTransform="translate(0.24 2.87)" xlink:href="#linear-gradient"/><linearGradient id="linear-gradient-76" x1="275.28" y1="56.07" x2="275.28" y2="19.86" gradientTransform="translate(-0.6 2.15)" xlink:href="#linear-gradient"/><linearGradient id="linear-gradient-91" x1="275.28" y1="56.07" x2="275.28" y2="19.86" gradientTransform="translate(-1.43 1.43)" xlink:href="#linear-gradient"/><linearGradient id="linear-gradient-106" x1="275.28" y1="56.07" x2="275.28" y2="19.86" gradientTransform="translate(-1.43 1.43)" gradientUnits="userSpaceOnUse"><stop offset="0" stop-color="#4a0000"/><stop offset="1" stop-color="#e00018"/></linearGradient><linearGradient id="linear-gradient-121" x1="275.28" y1="49.98" x2="275.28" y2="24.58" gradientUnits="userSpaceOnUse"><stop offset="0" stop-color="#ccc"/><stop offset="0.99" stop-color="#fff"/></linearGradient><pattern id="New_Pattern_11" data-name="New Pattern 11" width="310" height="210" patternTransform="matrix(0.44, -0.25, 0.25, 0.44, 45.14, 724.79)" patternUnits="userSpaceOnUse" viewBox="0 0 310 210"><rect class="cls-1" width="310" height="210"/><polygon class="cls-2" points="309.75 183.75 309.75 166.75 620.25 166.75 620.25 183.75 309.75 183.75"/><polygon class="cls-2" points="309.75 198.25 309.75 189.75 620.25 189.75 620.25 198.25 309.75 198.25"/><polygon class="cls-2" points="-0.25 183.75 -0.25 166.75 310.25 166.75 310.25 183.75 -0.25 183.75"/><polygon class="cls-2" points="-0.25 198.25 -0.25 189.75 310.25 189.75 310.25 198.25 -0.25 198.25"/><polygon class="cls-2" points="-310.25 183.75 -310.25 166.75 0.25 166.75 0.25 183.75 -310.25 183.75"/><polygon class="cls-2" points="-310.25 198.25 -310.25 189.75 0.25 189.75 0.25 198.25 -310.25 198.25"/><polygon class="cls-2" points="309.75 78.75 309.75 61.75 620.25 61.75 620.25 78.75 309.75 78.75"/><polygon class="cls-2" points="309.75 118.25 309.75 105.75 620.25 105.75 620.25 118.25 309.75 118.25"/><polygon class="cls-2" points="309.75 93.25 309.75 84.75 620.25 84.75 620.25 93.25 309.75 93.25"/><polygon class="cls-2" points="309.75 148.25 309.75 139.75 620.25 139.75 620.25 148.25 309.75 148.25"/><polygon class="cls-2" points="309.75 128.25 309.75 122.75 620.25 122.75 620.25 128.25 309.75 128.25"/><polygon class="cls-2" points="-0.25 78.75 -0.25 61.75 310.25 61.75 310.25 78.75 -0.25 78.75"/><polygon class="cls-2" points="-0.25 118.25 -0.25 105.75 310.25 105.75 310.25 118.25 -0.25 118.25"/><polygon class="cls-2" points="-0.25 93.25 -0.25 84.75 310.25 84.75 310.25 93.25 -0.25 93.25"/><polygon class="cls-2" points="-0.25 148.25 -0.25 139.75 310.25 139.75 310.25 148.25 -0.25 148.25"/><polygon class="cls-2" points="-0.25 128.25 -0.25 122.75 310.25 122.75 310.25 128.25 -0.25 128.25"/><polygon class="cls-2" points="-310.25 78.75 -310.25 61.75 0.25 61.75 0.25 78.75 -310.25 78.75"/><polygon class="cls-2" points="-310.25 118.25 -310.25 105.75 0.25 105.75 0.25 118.25 -310.25 118.25"/><polygon class="cls-2" points="-310.25 93.25 -310.25 84.75 0.25 84.75 0.25 93.25 -310.25 93.25"/><polygon class="cls-2" points="-310.25 148.25 -310.25 139.75 0.25 139.75 0.25 148.25 -310.25 148.25"/><polygon class="cls-2" points="-310.25 128.25 -310.25 122.75 0.25 122.75 0.25 128.25 -310.25 128.25"/><polygon class="cls-2" points="309.75 13.25 309.75 0.75 620.25 0.75 620.25 13.25 309.75 13.25"/><polygon class="cls-2" points="309.75 43.25 309.75 34.75 620.25 34.75 620.25 43.25 309.75 43.25"/><polygon class="cls-2" points="309.75 23.25 309.75 17.75 620.25 17.75 620.25 23.25 309.75 23.25"/><polygon class="cls-2" points="-0.25 13.25 -0.25 0.75 310.25 0.75 310.25 13.25 -0.25 13.25"/><polygon class="cls-2" points="-0.25 43.25 -0.25 34.75 310.25 34.75 310.25 43.25 -0.25 43.25"/><polygon class="cls-2" points="-0.25 23.25 -0.25 17.75 310.25 17.75 310.25 23.25 -0.25 23.25"/><polygon class="cls-2" points="-310.25 13.25 -310.25 0.75 0.25 0.75 0.25 13.25 -310.25 13.25"/><polygon class="cls-2" points="-310.25 43.25 -310.25 34.75 0.25 34.75 0.25 43.25 -310.25 43.25"/><polygon class="cls-2" points="-310.25 23.25 -310.25 17.75 0.25 17.75 0.25 23.25 -310.25 23.25"/></pattern></defs><title>andamenang-01</title><g class="cls-3"><g id="Layer_1" data-name="Layer 1"><path class="cls-4" d="M41,67.43A5.68,5.68,0,0,1,36,64.27a5.67,5.67,0,0,1-5.07,3.16h-9.2A5.64,5.64,0,0,1,17.05,65a5.77,5.77,0,0,1-.71-5.23L28.73,24.64a5.68,5.68,0,0,1,5.34-3.81H50a5.7,5.7,0,0,1,5.66,5.7l.19,35.13a5.77,5.77,0,0,1-1.64,4.08,5.65,5.65,0,0,1-4,1.69Z"/><path class="cls-4" d="M72.83,67.43a5.64,5.64,0,0,1-4.68-2.5,5.66,5.66,0,0,1-4.68,2.5H54.75a5.62,5.62,0,0,1-4.34-2.05,5.77,5.77,0,0,1-1.24-4.68l6.12-35.13a5.69,5.69,0,0,1,5.58-4.74h9a5.63,5.63,0,0,1,4.55,2.33A5.63,5.63,0,0,1,79,20.83h8.68A5.61,5.61,0,0,1,92,22.88a5.79,5.79,0,0,1,1.25,4.67L87.13,62.68a5.68,5.68,0,0,1-5.58,4.75Z"/><path class="cls-4" d="M88.35,67.43A5.62,5.62,0,0,1,84,65.38a5.77,5.77,0,0,1-1.24-4.68l6.12-35.13a5.69,5.69,0,0,1,5.58-4.74H108c5.93,0,10.42,1.77,13.33,5.25a15.05,15.05,0,0,1,3.33,9.8,23.3,23.3,0,0,1-.32,3.73l-1.89,10.92a20.42,20.42,0,0,1-6.58,12.17,19.69,19.69,0,0,1-13.46,4.73Z"/><path class="cls-4" d="M137.33,67.43a5.68,5.68,0,0,1-5.06-3.16,5.67,5.67,0,0,1-5.07,3.16H118A5.67,5.67,0,0,1,113.36,65a5.8,5.8,0,0,1-.7-5.23l12.39-35.13a5.67,5.67,0,0,1,5.34-3.81h15.9a5.7,5.7,0,0,1,5.67,5.7l.19,35.13a5.74,5.74,0,0,1-1.65,4.08,5.63,5.63,0,0,1-4,1.69Z"/><path class="cls-4" d="M188.33,67.43A5.62,5.62,0,0,1,184,65.38a5.79,5.79,0,0,1-1.24-4.69l.22-1.26h-4.91a5.68,5.68,0,0,1-.59,0l-.58,3.3a5.69,5.69,0,0,1-5.58,4.73h-8.67a5.62,5.62,0,0,1-4.34-2.05,5.74,5.74,0,0,1-1.24-4.68l6.12-35.13a5.69,5.69,0,0,1,5.58-4.74h9.06a5.67,5.67,0,0,1,5.41,4l1.64,5.33,4.48-6.81a5.64,5.64,0,0,1,4.72-2.56h9.11a5.65,5.65,0,0,1,4.34,2.05,5.81,5.81,0,0,1,1.24,4.68l-6.13,35.13a5.68,5.68,0,0,1-5.57,4.74Z"/><path class="cls-4" d="M203.9,67.43a5.65,5.65,0,0,1-4.34-2.05,5.77,5.77,0,0,1-1.24-4.68l6.12-35.13A5.69,5.69,0,0,1,210,20.83h24.2a5.63,5.63,0,0,1,4.35,2.06,5.75,5.75,0,0,1,1.23,4.69l-1.35,7.61a5.71,5.71,0,0,1-3.83,4.44,5.75,5.75,0,0,1,0,2.15l-1.35,7.61c0,.13,0,.27-.08.4a6.82,6.82,0,0,1,.59.61A5.86,5.86,0,0,1,235,55.1l-1.35,7.61a5.7,5.7,0,0,1-5.58,4.72Z"/><path class="cls-4" d="M259.34,67.43A5.62,5.62,0,0,1,255,65.38a5.79,5.79,0,0,1-1.24-4.69l.22-1.26h-4.91a5.68,5.68,0,0,1-.59,0l-.58,3.3a5.69,5.69,0,0,1-5.58,4.73h-8.68a5.65,5.65,0,0,1-4.34-2.05,5.81,5.81,0,0,1-1.24-4.68l6.13-35.13a5.68,5.68,0,0,1,5.58-4.74h9.06a5.67,5.67,0,0,1,5.41,4l1.63,5.33,4.49-6.81a5.64,5.64,0,0,1,4.71-2.56h9.12a5.65,5.65,0,0,1,4.34,2.05,5.81,5.81,0,0,1,1.24,4.68l-6.13,35.13a5.68,5.68,0,0,1-5.58,4.74Z"/><path class="cls-4" d="M274.91,67.43a5.63,5.63,0,0,1-4.34-2.05,5.77,5.77,0,0,1-1.24-4.68l6.12-35.13A5.69,5.69,0,0,1,281,20.83h24.2a5.63,5.63,0,0,1,4.35,2.06,5.79,5.79,0,0,1,1.23,4.69l-1.35,7.61a5.71,5.71,0,0,1-3.83,4.44,5.75,5.75,0,0,1,0,2.15l-1.35,7.61a2.88,2.88,0,0,1-.09.4,5,5,0,0,1,.6.62A5.82,5.82,0,0,1,306,55.1l-1.35,7.61a5.7,5.7,0,0,1-5.58,4.72Z"/><path class="cls-4" d="M322.73,67.43a5.62,5.62,0,0,1-4.67-2.5,5.66,5.66,0,0,1-4.68,2.5h-8.73a5.65,5.65,0,0,1-4.34-2.05,5.81,5.81,0,0,1-1.24-4.68l6.13-35.13a5.68,5.68,0,0,1,5.58-4.74h9a5.65,5.65,0,0,1,4.56,2.33,5.63,5.63,0,0,1,4.55-2.33h8.68a5.65,5.65,0,0,1,4.34,2.05,5.75,5.75,0,0,1,1.24,4.67L337,62.68a5.69,5.69,0,0,1-5.58,4.75Z"/><path class="cls-4" d="M355.42,67.43a5.67,5.67,0,0,1-4.09-1.76,6.19,6.19,0,0,1-1-1.4,5.65,5.65,0,0,1-5.06,3.16h-9.21A5.67,5.67,0,0,1,331.45,65a5.8,5.8,0,0,1-.7-5.23l12.39-35.13a5.67,5.67,0,0,1,5.33-3.81h15.91a5.7,5.7,0,0,1,5.67,5.7l.19,35.13a5.74,5.74,0,0,1-1.65,4.08,5.63,5.63,0,0,1-4,1.69Z"/><path class="cls-4" d="M387.23,67.43a5.62,5.62,0,0,1-4.67-2.5,5.66,5.66,0,0,1-4.68,2.5h-8.73a5.65,5.65,0,0,1-4.34-2.05,5.81,5.81,0,0,1-1.24-4.68l6.13-35.13a5.68,5.68,0,0,1,5.58-4.74h9a5.65,5.65,0,0,1,4.56,2.33,5.63,5.63,0,0,1,4.56-2.33H402a5.63,5.63,0,0,1,4.34,2.05,5.75,5.75,0,0,1,1.24,4.67l-6.07,35.13A5.68,5.68,0,0,1,396,67.43Z"/><path class="cls-4" d="M414.86,68.11c-6.33,0-11-1.79-13.84-5.32A15.28,15.28,0,0,1,398,53a28.89,28.89,0,0,1,.47-5l1.69-9.72c2-11.49,9.58-17.82,21.39-17.82,5.06,0,9.13,1.25,12.09,3.73a13.87,13.87,0,0,1,4.95,11,19.92,19.92,0,0,1-.64,4.93,21.38,21.38,0,0,1-1.26,3.65,5.92,5.92,0,0,1,.12,2.62L436,50.64,435.77,52C434.69,58,430.55,68.11,414.86,68.11Zm3.22-30.34Z"/><path class="cls-4" d="M452.41,67.43a5.66,5.66,0,0,1-4.85-2.76,5.64,5.64,0,0,1-4.84,2.76H434a5.65,5.65,0,0,1-4.34-2.05,5.77,5.77,0,0,1-1.24-4.68l6.12-35.13a5.69,5.69,0,0,1,5.58-4.74h8.68a5.62,5.62,0,0,1,4.34,2.05,5.78,5.78,0,0,1,.51.71l.05-.09a5.66,5.66,0,0,1,4.79-2.67h9.16a5.65,5.65,0,0,1,5,3,5.79,5.79,0,0,1-.17,5.83l-9.69,15.54L467,60.12a5.83,5.83,0,0,1-.93,5,5.65,5.65,0,0,1-4.52,2.28Z"/><path class="cls-4" d="M482.83,67.43a5.67,5.67,0,0,1-4.09-1.76,5.84,5.84,0,0,1-1-1.4,5.67,5.67,0,0,1-5.07,3.16h-9.2A5.64,5.64,0,0,1,458.87,65a5.77,5.77,0,0,1-.71-5.23l12.39-35.13a5.67,5.67,0,0,1,5.34-3.81h15.9a5.7,5.7,0,0,1,5.67,5.7l.19,35.13A5.74,5.74,0,0,1,496,65.74a5.61,5.61,0,0,1-4,1.69Z"/><path class="cls-4" d="M514.64,67.43a5.63,5.63,0,0,1-4.67-2.5,5.66,5.66,0,0,1-4.68,2.5h-8.72a5.62,5.62,0,0,1-4.34-2.05A5.77,5.77,0,0,1,491,60.7l6.12-35.13a5.69,5.69,0,0,1,5.58-4.74h9a5.63,5.63,0,0,1,4.55,2.33,5.63,5.63,0,0,1,4.56-2.33h8.67a5.62,5.62,0,0,1,4.34,2.05A5.79,5.79,0,0,1,535,27.55L529,62.68a5.68,5.68,0,0,1-5.58,4.75Z"/><path class="cls-5" d="M40.25,66.71A5.63,5.63,0,0,1,36.16,65a6,6,0,0,1-1-1.4,5.66,5.66,0,0,1-5.07,3.16H20.88a5.66,5.66,0,0,1-4.64-2.43,5.79,5.79,0,0,1-.7-5.23L28,23.92a5.69,5.69,0,0,1,5.35-3.81H49.24a5.71,5.71,0,0,1,5.68,5.71L55.11,61A5.77,5.77,0,0,1,53.46,65a5.68,5.68,0,0,1-4,1.69Z"/><path class="cls-5" d="M72.14,66.71a5.67,5.67,0,0,1-4.69-2.49,5.66,5.66,0,0,1-4.69,2.49H54a5.65,5.65,0,0,1-4.35-2A5.76,5.76,0,0,1,48.43,60l6.14-35.13a5.68,5.68,0,0,1,5.59-4.74h9a5.68,5.68,0,0,1,4.57,2.33,5.66,5.66,0,0,1,4.56-2.33H87a5.65,5.65,0,0,1,4.35,2.05,5.78,5.78,0,0,1,1.25,4.68L86.47,62a5.69,5.69,0,0,1-5.59,4.74Z"/><path class="cls-5" d="M87.69,66.71a5.65,5.65,0,0,1-4.35-2A5.76,5.76,0,0,1,82.1,60l6.13-35.13a5.7,5.7,0,0,1,5.59-4.74h13.53c5.94,0,10.44,1.77,13.36,5.25A15.08,15.08,0,0,1,124,35.17a23.18,23.18,0,0,1-.32,3.72l-1.89,10.93A20.45,20.45,0,0,1,115.23,62a19.73,19.73,0,0,1-13.48,4.73Z"/><path class="cls-5" d="M136.77,66.71A5.61,5.61,0,0,1,132.68,65a5.73,5.73,0,0,1-1-1.4,5.66,5.66,0,0,1-5.07,3.16H117.4a5.63,5.63,0,0,1-4.64-2.43,5.76,5.76,0,0,1-.71-5.23l12.41-35.13a5.69,5.69,0,0,1,5.35-3.81h15.94a5.71,5.71,0,0,1,5.68,5.71L151.62,61A5.77,5.77,0,0,1,150,65a5.66,5.66,0,0,1-4,1.69Z"/><path class="cls-5" d="M187.87,66.71a5.65,5.65,0,0,1-4.35-2A5.77,5.77,0,0,1,182.28,60l.22-1.27h-4.92a5.68,5.68,0,0,1-.59,0l-.58,3.3a5.69,5.69,0,0,1-5.59,4.73h-8.69a5.64,5.64,0,0,1-4.35-2A5.77,5.77,0,0,1,156.53,60l6.14-35.13a5.69,5.69,0,0,1,5.59-4.74h9.08a5.68,5.68,0,0,1,5.42,4l1.64,5.33,4.5-6.81a5.64,5.64,0,0,1,4.72-2.56h9.13a5.65,5.65,0,0,1,4.35,2.05,5.79,5.79,0,0,1,1.24,4.69L202.2,62a5.68,5.68,0,0,1-5.59,4.74Z"/><path class="cls-5" d="M203.47,66.71a5.67,5.67,0,0,1-4.35-2A5.8,5.8,0,0,1,197.88,60L204,24.85a5.69,5.69,0,0,1,5.59-4.74h24.25a5.66,5.66,0,0,1,4.35,2.06,5.75,5.75,0,0,1,1.23,4.69l-1.35,7.61a5.73,5.73,0,0,1-3.84,4.45,5.92,5.92,0,0,1,0,2.14l-1.36,7.61c0,.14,0,.27-.08.4a5.81,5.81,0,0,1,1.82,5.31L233.31,62a5.7,5.7,0,0,1-5.59,4.72Z"/><path class="cls-5" d="M259,66.71a5.65,5.65,0,0,1-4.35-2A5.77,5.77,0,0,1,253.43,60l.22-1.27h-4.92a5.83,5.83,0,0,1-.59,0l-.58,3.3A5.69,5.69,0,0,1,242,66.71h-8.69a5.65,5.65,0,0,1-4.35-2A5.73,5.73,0,0,1,227.69,60l6.13-35.13a5.7,5.7,0,0,1,5.59-4.74h9.08a5.68,5.68,0,0,1,5.42,4l1.64,5.33,4.5-6.81a5.64,5.64,0,0,1,4.72-2.56h9.13a5.65,5.65,0,0,1,4.35,2.05,5.79,5.79,0,0,1,1.24,4.69L273.36,62a5.7,5.7,0,0,1-5.59,4.74Z"/><path class="cls-5" d="M274.62,66.71a5.63,5.63,0,0,1-4.34-2A5.77,5.77,0,0,1,269,60l6.14-35.13a5.69,5.69,0,0,1,5.59-4.74H305a5.66,5.66,0,0,1,4.35,2.06,5.79,5.79,0,0,1,1.24,4.69l-1.36,7.61a5.74,5.74,0,0,1-3.83,4.45,6.15,6.15,0,0,1,0,2.14l-1.36,7.61c0,.14-.05.27-.08.4a5.81,5.81,0,0,1,1.82,5.31L304.46,62a5.69,5.69,0,0,1-5.59,4.72Z"/><path class="cls-5" d="M322.54,66.71a5.65,5.65,0,0,1-4.68-2.49,5.66,5.66,0,0,1-4.69,2.49h-8.74a5.65,5.65,0,0,1-4.35-2A5.76,5.76,0,0,1,298.84,60L305,24.85a5.7,5.7,0,0,1,5.59-4.74h9a5.65,5.65,0,0,1,4.56,2.33,5.68,5.68,0,0,1,4.57-2.33h8.69a5.65,5.65,0,0,1,4.35,2.05A5.77,5.77,0,0,1,343,26.84L336.88,62a5.7,5.7,0,0,1-5.59,4.74Z"/><path class="cls-5" d="M355.29,66.71A5.63,5.63,0,0,1,351.2,65a5.56,5.56,0,0,1-1-1.39,5.67,5.67,0,0,1-5.07,3.15h-9.23a5.66,5.66,0,0,1-4.64-2.43,5.76,5.76,0,0,1-.7-5.23L343,23.92a5.69,5.69,0,0,1,5.35-3.81h15.94A5.7,5.7,0,0,1,370,25.82l.2,35.13A5.77,5.77,0,0,1,368.5,65a5.68,5.68,0,0,1-4,1.69Z"/><path class="cls-5" d="M387.17,66.71a5.67,5.67,0,0,1-4.68-2.49,5.66,5.66,0,0,1-4.69,2.49h-8.74a5.65,5.65,0,0,1-4.35-2A5.76,5.76,0,0,1,363.47,60l6.13-35.13a5.7,5.7,0,0,1,5.59-4.74h9a5.65,5.65,0,0,1,4.56,2.33,5.69,5.69,0,0,1,4.57-2.33H402a5.65,5.65,0,0,1,4.35,2.05,5.77,5.77,0,0,1,1.24,4.68L401.51,62a5.7,5.7,0,0,1-5.59,4.74Z"/><path class="cls-5" d="M414.85,67.4c-6.33,0-11-1.8-13.86-5.33a15.21,15.21,0,0,1-3.07-9.78,28.07,28.07,0,0,1,.48-5l1.68-9.72c2-11.49,9.61-17.82,21.44-17.82,5.07,0,9.14,1.26,12.11,3.73a13.84,13.84,0,0,1,5,11,19.46,19.46,0,0,1-.64,4.93,19.91,19.91,0,0,1-1.27,3.65,5.79,5.79,0,0,1,.13,2.62l-.77,4.2-.23,1.34C434.73,57.32,430.58,67.4,414.85,67.4Zm3.23-30.35Z"/><path class="cls-5" d="M452.48,66.71A5.66,5.66,0,0,1,447.63,64a5.69,5.69,0,0,1-4.86,2.76h-8.69a5.65,5.65,0,0,1-4.35-2A5.77,5.77,0,0,1,428.48,60l6.14-35.13a5.7,5.7,0,0,1,5.59-4.74h8.69a5.67,5.67,0,0,1,4.35,2.05,5.88,5.88,0,0,1,.51.72l.06-.1a5.66,5.66,0,0,1,4.79-2.67h9.18a5.67,5.67,0,0,1,5,3,5.77,5.77,0,0,1-.17,5.83l-9.7,15.54,4.23,14.95a5.79,5.79,0,0,1-.93,5,5.64,5.64,0,0,1-4.53,2.28Z"/><path class="cls-5" d="M483,66.71A5.63,5.63,0,0,1,478.87,65a5.56,5.56,0,0,1-1-1.39,5.67,5.67,0,0,1-5.07,3.15h-9.23A5.63,5.63,0,0,1,459,64.28a5.79,5.79,0,0,1-.71-5.23l12.42-35.13A5.67,5.67,0,0,1,476,20.11h15.94a5.71,5.71,0,0,1,5.68,5.71L497.81,61A5.73,5.73,0,0,1,496.16,65a5.64,5.64,0,0,1-4,1.69Z"/><path class="cls-5" d="M514.84,66.71a5.67,5.67,0,0,1-4.69-2.49,5.65,5.65,0,0,1-4.68,2.49h-8.74a5.64,5.64,0,0,1-4.35-2A5.77,5.77,0,0,1,491.13,60l6.14-35.13a5.7,5.7,0,0,1,5.59-4.74h9a5.65,5.65,0,0,1,4.57,2.33A5.66,5.66,0,0,1,521,20.11h8.7A5.65,5.65,0,0,1,534,22.16a5.81,5.81,0,0,1,1.24,4.68L529.18,62a5.7,5.7,0,0,1-5.6,4.74Z"/><path class="cls-6" d="M39.5,66a5.67,5.67,0,0,1-4.1-1.76,5.61,5.61,0,0,1-1-1.4A5.7,5.7,0,0,1,29.33,66H20.09a5.69,5.69,0,0,1-4.65-2.43,5.81,5.81,0,0,1-.71-5.24L27.17,23.2a5.69,5.69,0,0,1,5.36-3.8h16a5.71,5.71,0,0,1,5.69,5.7l.19,35.13a5.71,5.71,0,0,1-1.65,4.07,5.65,5.65,0,0,1-4,1.7Z"/><path class="cls-6" d="M71.44,66a5.68,5.68,0,0,1-4.69-2.5,5.68,5.68,0,0,1-4.7,2.5H53.29a5.65,5.65,0,0,1-4.35-2,5.75,5.75,0,0,1-1.25-4.68l6.15-35.13a5.7,5.7,0,0,1,5.6-4.74h9A5.7,5.7,0,0,1,73,21.72a5.67,5.67,0,0,1,4.57-2.32H86.3a5.7,5.7,0,0,1,4.36,2,5.78,5.78,0,0,1,1.25,4.68l-6.1,35.13A5.71,5.71,0,0,1,80.2,66Z"/><path class="cls-6" d="M87,66a5.67,5.67,0,0,1-4.36-2,5.75,5.75,0,0,1-1.24-4.68l6.14-35.13a5.71,5.71,0,0,1,5.61-4.74h13.55c6,0,10.46,1.76,13.39,5.24a15.08,15.08,0,0,1,3.33,9.81,23.09,23.09,0,0,1-.32,3.72L121.24,49.1a20.46,20.46,0,0,1-6.61,12.17A19.86,19.86,0,0,1,101.11,66Z"/><path class="cls-6" d="M136.2,66a5.67,5.67,0,0,1-4.09-1.76,5.93,5.93,0,0,1-1-1.4A5.69,5.69,0,0,1,126,66H116.8a5.68,5.68,0,0,1-4.65-2.43,5.78,5.78,0,0,1-.71-5.24L123.88,23.2a5.69,5.69,0,0,1,5.35-3.8h16a5.71,5.71,0,0,1,5.69,5.7l.19,35.13a5.72,5.72,0,0,1-1.66,4.07,5.63,5.63,0,0,1-4,1.7Z"/><path class="cls-6" d="M187.41,66a5.71,5.71,0,0,1-4.36-2,5.79,5.79,0,0,1-1.24-4.69L182,58H177.1a5.68,5.68,0,0,1-.59,0l-.58,3.3a5.71,5.71,0,0,1-5.6,4.74h-8.72a5.65,5.65,0,0,1-4.35-2A5.79,5.79,0,0,1,156,59.27l6.15-35.13a5.7,5.7,0,0,1,5.6-4.74h9.1a5.69,5.69,0,0,1,5.43,4l1.64,5.33L188.44,22a5.68,5.68,0,0,1,4.73-2.55h9.15a5.67,5.67,0,0,1,4.36,2.05,5.76,5.76,0,0,1,1.24,4.68l-6.15,35.13a5.7,5.7,0,0,1-5.6,4.74Z"/><path class="cls-6" d="M203,66a5.65,5.65,0,0,1-4.35-2,5.79,5.79,0,0,1-1.25-4.68l6.15-35.13a5.7,5.7,0,0,1,5.6-4.74h24.3a5.67,5.67,0,0,1,4.36,2.05,5.78,5.78,0,0,1,1.24,4.7l-1.36,7.61a5.73,5.73,0,0,1-3.84,4.44,5.7,5.7,0,0,1,0,2.14L232.55,48c0,.14-.05.27-.08.41a4.87,4.87,0,0,1,.59.61,5.79,5.79,0,0,1,1.24,4.69l-1.36,7.61a5.7,5.7,0,0,1-5.6,4.73Z"/><path class="cls-6" d="M258.71,66a5.69,5.69,0,0,1-4.36-2,5.76,5.76,0,0,1-1.25-4.69l.23-1.27H248.4l-.6,0-.58,3.3a5.7,5.7,0,0,1-5.6,4.74h-8.71a5.67,5.67,0,0,1-4.36-2,5.75,5.75,0,0,1-1.24-4.68l6.14-35.13a5.7,5.7,0,0,1,5.6-4.74h9.1a5.69,5.69,0,0,1,5.44,4l1.64,5.33,4.5-6.81a5.69,5.69,0,0,1,4.73-2.55h9.15A5.66,5.66,0,0,1,278,21.45a5.77,5.77,0,0,1,1.25,4.68l-6.15,35.13a5.7,5.7,0,0,1-5.6,4.74Z"/><path class="cls-6" d="M274.34,66A5.67,5.67,0,0,1,270,64a5.75,5.75,0,0,1-1.24-4.68l6.14-35.13a5.7,5.7,0,0,1,5.61-4.74h24.29a5.68,5.68,0,0,1,4.37,2.05,5.77,5.77,0,0,1,1.23,4.7L309,33.76a5.74,5.74,0,0,1-3.85,4.44,5.7,5.7,0,0,1,0,2.14L303.85,48l-.09.41a4.87,4.87,0,0,1,.59.61,5.76,5.76,0,0,1,1.24,4.69l-1.36,7.61A5.69,5.69,0,0,1,298.64,66Z"/><path class="cls-6" d="M322.35,66a5.68,5.68,0,0,1-4.69-2.5A5.7,5.7,0,0,1,313,66H304.2a5.67,5.67,0,0,1-4.36-2,5.78,5.78,0,0,1-1.24-4.68l6.15-35.13a5.7,5.7,0,0,1,5.6-4.74h9a5.67,5.67,0,0,1,4.57,2.32,5.7,5.7,0,0,1,4.58-2.32h8.71a5.7,5.7,0,0,1,4.36,2,5.77,5.77,0,0,1,1.24,4.68l-6.09,35.13A5.71,5.71,0,0,1,331.11,66Z"/><path class="cls-6" d="M355.17,66a5.67,5.67,0,0,1-4.1-1.76,5.61,5.61,0,0,1-1-1.4A5.7,5.7,0,0,1,345,66h-9.24a5.69,5.69,0,0,1-4.65-2.43,5.78,5.78,0,0,1-.71-5.24L342.84,23.2a5.69,5.69,0,0,1,5.36-3.8h16a5.71,5.71,0,0,1,5.69,5.7l.19,35.13a5.71,5.71,0,0,1-1.65,4.07,5.65,5.65,0,0,1-4,1.7Z"/><path class="cls-6" d="M387.11,66a5.68,5.68,0,0,1-4.69-2.5,5.7,5.7,0,0,1-4.7,2.5H369a5.67,5.67,0,0,1-4.36-2,5.78,5.78,0,0,1-1.24-4.68l6.15-35.13a5.7,5.7,0,0,1,5.6-4.74h9a5.7,5.7,0,0,1,4.58,2.32,5.67,5.67,0,0,1,4.57-2.32H402a5.7,5.7,0,0,1,4.36,2,5.78,5.78,0,0,1,1.25,4.68l-6.1,35.13A5.71,5.71,0,0,1,395.87,66Z"/><path class="cls-6" d="M414.85,66.68c-6.35,0-11-1.79-13.89-5.32a15.23,15.23,0,0,1-3.08-9.78,28,28,0,0,1,.48-5l1.69-9.72c2-11.5,9.62-17.82,21.48-17.82,5.08,0,9.16,1.25,12.13,3.72a13.85,13.85,0,0,1,5,11,19.53,19.53,0,0,1-.65,4.93,20,20,0,0,1-1.27,3.64,5.79,5.79,0,0,1,.13,2.62l-.78,4.2-.23,1.34C434.76,56.6,430.61,66.68,414.85,66.68Zm3.24-30.35Z"/><path class="cls-6" d="M452.55,66a5.68,5.68,0,0,1-4.86-2.76A5.69,5.69,0,0,1,442.82,66h-8.71a5.67,5.67,0,0,1-4.36-2,5.78,5.78,0,0,1-1.24-4.68l6.14-35.13a5.71,5.71,0,0,1,5.61-4.74H449a5.67,5.67,0,0,1,4.36,2.05,6,6,0,0,1,.5.71l.06-.1a5.67,5.67,0,0,1,4.81-2.66h9.19a5.66,5.66,0,0,1,5,3,5.74,5.74,0,0,1-.17,5.83L463,43.73l4.24,15a5.77,5.77,0,0,1-.93,5A5.68,5.68,0,0,1,461.75,66Z"/><path class="cls-6" d="M483.09,66a5.67,5.67,0,0,1-4.1-1.76,5.61,5.61,0,0,1-1-1.4A5.69,5.69,0,0,1,472.93,66h-9.25A5.69,5.69,0,0,1,459,63.57a5.81,5.81,0,0,1-.71-5.24L470.76,23.2a5.7,5.7,0,0,1,5.36-3.8h16a5.71,5.71,0,0,1,5.69,5.7l.2,35.13a5.77,5.77,0,0,1-1.66,4.07,5.65,5.65,0,0,1-4,1.7Z"/><path class="cls-6" d="M515,66a5.69,5.69,0,0,1-4.7-2.5,5.68,5.68,0,0,1-4.69,2.5h-8.77a5.65,5.65,0,0,1-4.35-2,5.79,5.79,0,0,1-1.25-4.68l6.15-35.13A5.7,5.7,0,0,1,503,19.4h9a5.69,5.69,0,0,1,4.58,2.32,5.67,5.67,0,0,1,4.57-2.32h8.71a5.7,5.7,0,0,1,4.36,2,5.78,5.78,0,0,1,1.25,4.68l-6.1,35.13A5.71,5.71,0,0,1,523.8,66Z"/><path class="cls-7" d="M38.74,65.28a5.73,5.73,0,0,1-5.09-3.16,5.69,5.69,0,0,1-5.09,3.16H19.29a5.68,5.68,0,0,1-4.65-2.43,5.74,5.74,0,0,1-.71-5.23L26.39,22.49a5.7,5.7,0,0,1,5.37-3.81h16a5.71,5.71,0,0,1,5.7,5.7l.2,35.13A5.72,5.72,0,0,1,48,65.28Z"/><path class="cls-7" d="M70.75,65.28a5.67,5.67,0,0,1-4.7-2.5,5.72,5.72,0,0,1-4.71,2.5H52.56a5.67,5.67,0,0,1-4.36-2.05A5.74,5.74,0,0,1,47,58.55l6.16-35.13a5.71,5.71,0,0,1,5.61-4.74h9A5.69,5.69,0,0,1,72.33,21a5.65,5.65,0,0,1,4.58-2.33h8.73a5.73,5.73,0,0,1,5.61,6.72L85.14,60.53a5.7,5.7,0,0,1-5.61,4.75Z"/><path class="cls-7" d="M86.37,65.28A5.68,5.68,0,0,1,82,63.23a5.78,5.78,0,0,1-1.25-4.68l6.16-35.13a5.72,5.72,0,0,1,5.62-4.74h13.58c6,0,10.47,1.77,13.41,5.25a15,15,0,0,1,3.34,9.8,22,22,0,0,1-.32,3.72l-1.9,10.93A20.36,20.36,0,0,1,114,60.55a19.85,19.85,0,0,1-13.54,4.73Z"/><path class="cls-7" d="M135.64,65.28a5.71,5.71,0,0,1-4.11-1.76,5.61,5.61,0,0,1-1-1.4,5.7,5.7,0,0,1-5.09,3.16h-9.27a5.72,5.72,0,0,1-5.36-7.66l12.46-35.13a5.7,5.7,0,0,1,5.37-3.81h16a5.72,5.72,0,0,1,5.7,5.7l.2,35.13a5.79,5.79,0,0,1-1.66,4.08,5.7,5.7,0,0,1-4,1.69Z"/><path class="cls-7" d="M187,65.28a5.72,5.72,0,0,1-5.61-6.74l.22-1.26h-4.94a5.68,5.68,0,0,1-.59,0l-.59,3.3a5.71,5.71,0,0,1-5.61,4.73H161.1a5.67,5.67,0,0,1-4.36-2.05,5.74,5.74,0,0,1-1.25-4.68l6.16-35.13a5.71,5.71,0,0,1,5.61-4.74h9.12a5.7,5.7,0,0,1,5.44,4l1.65,5.33L188,21.23a5.71,5.71,0,0,1,4.74-2.55h9.17a5.67,5.67,0,0,1,4.36,2.05,5.74,5.74,0,0,1,1.25,4.68l-6.16,35.13a5.7,5.7,0,0,1-5.61,4.74Z"/><path class="cls-7" d="M202.62,65.28a5.68,5.68,0,0,1-4.37-2.05A5.78,5.78,0,0,1,197,58.55l6.16-35.13a5.71,5.71,0,0,1,5.61-4.74h24.35a5.65,5.65,0,0,1,4.37,2.06,5.72,5.72,0,0,1,1.24,4.69L237.37,33a5.7,5.7,0,0,1-3.85,4.44,5.75,5.75,0,0,1,0,2.15l-1.36,7.61c0,.13-.05.27-.08.4a5.67,5.67,0,0,1,.59.61,5.79,5.79,0,0,1,1.24,4.7l-1.36,7.61A5.71,5.71,0,0,1,227,65.28Z"/><path class="cls-7" d="M258.39,65.28A5.68,5.68,0,0,1,254,63.23a5.76,5.76,0,0,1-1.24-4.69l.22-1.26h-4.94q-.3,0-.6,0l-.58,3.3a5.71,5.71,0,0,1-5.61,4.73h-8.73a5.68,5.68,0,0,1-4.37-2.05,5.74,5.74,0,0,1-1.24-4.68l6.15-35.13a5.72,5.72,0,0,1,5.62-4.74h9.11a5.71,5.71,0,0,1,5.45,4l1.64,5.33,4.52-6.82a5.68,5.68,0,0,1,4.74-2.55h9.17a5.67,5.67,0,0,1,4.36,2.05,5.74,5.74,0,0,1,1.25,4.68l-6.16,35.13a5.71,5.71,0,0,1-5.61,4.74Z"/><path class="cls-7" d="M274.05,65.28a5.67,5.67,0,0,1-4.36-2.05,5.74,5.74,0,0,1-1.25-4.68l6.16-35.13a5.71,5.71,0,0,1,5.61-4.74h24.35a5.65,5.65,0,0,1,4.37,2.06,5.76,5.76,0,0,1,1.24,4.69L308.81,33A5.71,5.71,0,0,1,305,37.48a5.75,5.75,0,0,1,0,2.15l-1.36,7.61a2.88,2.88,0,0,1-.09.4A5.66,5.66,0,0,1,305.37,53L304,60.56a5.71,5.71,0,0,1-5.61,4.72Z"/><path class="cls-7" d="M322.16,65.28a5.67,5.67,0,0,1-4.7-2.5,5.7,5.7,0,0,1-4.71,2.5H304a5.68,5.68,0,0,1-4.37-2.05,5.78,5.78,0,0,1-1.25-4.68l6.16-35.13a5.71,5.71,0,0,1,5.61-4.74h9A5.68,5.68,0,0,1,323.74,21a5.67,5.67,0,0,1,4.58-2.33h8.73a5.73,5.73,0,0,1,5.62,6.72l-6.11,35.13a5.71,5.71,0,0,1-5.62,4.75Z"/><path class="cls-7" d="M355,65.28a5.67,5.67,0,0,1-4.1-1.76,5.93,5.93,0,0,1-1-1.4,5.69,5.69,0,0,1-5.09,3.16H335.6a5.73,5.73,0,0,1-5.37-7.66l12.46-35.13a5.7,5.7,0,0,1,5.37-3.81h16a5.71,5.71,0,0,1,5.7,5.7l.2,35.13a5.75,5.75,0,0,1-1.66,4.08,5.68,5.68,0,0,1-4,1.69Z"/><path class="cls-7" d="M387.05,65.28a5.67,5.67,0,0,1-4.7-2.5,5.7,5.7,0,0,1-4.71,2.5h-8.77a5.68,5.68,0,0,1-4.37-2.05,5.78,5.78,0,0,1-1.25-4.68l6.16-35.13A5.71,5.71,0,0,1,375,18.68h9A5.68,5.68,0,0,1,388.63,21a5.67,5.67,0,0,1,4.58-2.33h8.73a5.73,5.73,0,0,1,5.62,6.72l-6.11,35.13a5.71,5.71,0,0,1-5.62,4.75Z"/><path class="cls-7" d="M414.84,66c-6.36,0-11-1.79-13.91-5.32a15.18,15.18,0,0,1-3.09-9.78,28,28,0,0,1,.48-5L400,36.16c2-11.49,9.65-17.82,21.52-17.82,5.1,0,9.19,1.25,12.17,3.73a13.83,13.83,0,0,1,5,11A19.47,19.47,0,0,1,438,38a20.47,20.47,0,0,1-1.27,3.65,5.78,5.78,0,0,1,.13,2.62l-.78,4.19-.23,1.34C434.8,55.88,430.63,66,414.84,66Zm3.25-30.34Z"/><path class="cls-7" d="M452.62,65.28a5.68,5.68,0,0,1-4.87-2.76,5.71,5.71,0,0,1-4.88,2.76h-8.73a5.67,5.67,0,0,1-4.36-2.05,5.74,5.74,0,0,1-1.25-4.68l6.16-35.13a5.71,5.71,0,0,1,5.61-4.74H449a5.68,5.68,0,0,1,4.37,2.05,5.78,5.78,0,0,1,.51.71l.06-.09a5.68,5.68,0,0,1,4.81-2.67H468a5.74,5.74,0,0,1,4.83,8.79L463.07,43,467.32,58a5.79,5.79,0,0,1-.93,5,5.72,5.72,0,0,1-4.55,2.28Z"/><path class="cls-7" d="M483.22,65.28a5.67,5.67,0,0,1-4.1-1.76,5.93,5.93,0,0,1-1-1.4A5.69,5.69,0,0,1,473,65.28h-9.26a5.73,5.73,0,0,1-5.37-7.66l12.46-35.13a5.7,5.7,0,0,1,5.37-3.81h16a5.71,5.71,0,0,1,5.7,5.7l.2,35.13a5.72,5.72,0,0,1-5.7,5.77Z"/><path class="cls-7" d="M515.23,65.28a5.67,5.67,0,0,1-4.7-2.5,5.7,5.7,0,0,1-4.71,2.5H497a5.67,5.67,0,0,1-4.36-2.05,5.74,5.74,0,0,1-1.25-4.68l6.16-35.13a5.71,5.71,0,0,1,5.61-4.74h9A5.69,5.69,0,0,1,516.81,21a5.65,5.65,0,0,1,4.58-2.33h8.73a5.74,5.74,0,0,1,5.62,6.72l-6.12,35.13A5.7,5.7,0,0,1,524,65.28Z"/><path class="cls-8" d="M38,64.56a5.73,5.73,0,0,1-5.1-3.16,5.7,5.7,0,0,1-5.1,3.16H18.5a5.73,5.73,0,0,1-5.38-7.66L25.61,21.77A5.71,5.71,0,0,1,31,18H47a5.72,5.72,0,0,1,5.71,5.71l.2,35.13a5.72,5.72,0,0,1-5.71,5.76Z"/><path class="cls-8" d="M70.06,64.56a5.73,5.73,0,0,1-4.72-2.49,5.68,5.68,0,0,1-4.71,2.49h-8.8a5.73,5.73,0,0,1-5.62-6.73L52.38,22.7A5.72,5.72,0,0,1,58,18h9a5.71,5.71,0,0,1,4.6,2.33A5.71,5.71,0,0,1,76.23,18H85A5.71,5.71,0,0,1,89.35,20a5.78,5.78,0,0,1,1.25,4.68L84.48,59.82a5.72,5.72,0,0,1-5.63,4.74Z"/><path class="cls-8" d="M85.7,64.56a5.73,5.73,0,0,1-5.62-6.73L86.25,22.7A5.72,5.72,0,0,1,91.88,18h13.6c6,0,10.5,1.77,13.44,5.25A15,15,0,0,1,122.27,33a22.18,22.18,0,0,1-.32,3.72l-1.9,10.93a20.34,20.34,0,0,1-6.64,12.16,19.92,19.92,0,0,1-13.56,4.73Z"/><path class="cls-8" d="M135.08,64.56A5.73,5.73,0,0,1,130,61.4a5.68,5.68,0,0,1-5.1,3.16h-9.28a5.69,5.69,0,0,1-4.67-2.43,5.76,5.76,0,0,1-.71-5.23L122.7,21.77A5.71,5.71,0,0,1,128.08,18h16a5.73,5.73,0,0,1,5.71,5.71L150,58.8a5.72,5.72,0,0,1-5.71,5.76Z"/><path class="cls-8" d="M186.49,64.56a5.72,5.72,0,0,1-5.62-6.73l.22-1.27h-5l-.6,0-.58,3.3a5.71,5.71,0,0,1-5.62,4.73h-8.75A5.73,5.73,0,0,1,155,57.83l6.18-35.13A5.72,5.72,0,0,1,166.76,18h9.14a5.71,5.71,0,0,1,5.45,4L183,27.33l4.52-6.81A5.7,5.7,0,0,1,192.27,18h9.19A5.69,5.69,0,0,1,205.83,20a5.75,5.75,0,0,1,1.25,4.68l-6.17,35.13a5.72,5.72,0,0,1-5.62,4.74Z"/><path class="cls-8" d="M202.19,64.56a5.73,5.73,0,0,1-5.63-6.73l6.17-35.13A5.73,5.73,0,0,1,208.36,18h24.39a5.73,5.73,0,0,1,5.62,6.75L237,32.32a5.74,5.74,0,0,1-3.86,4.45,5.7,5.7,0,0,1,0,2.14l-1.36,7.61c0,.14-.05.27-.08.4a5.83,5.83,0,0,1,1.83,5.31l-1.36,7.61a5.71,5.71,0,0,1-5.62,4.72Z"/><path class="cls-8" d="M258.07,64.56a5.72,5.72,0,0,1-5.62-6.73l.22-1.27h-4.95l-.6,0-.58,3.3a5.71,5.71,0,0,1-5.62,4.73h-8.75a5.73,5.73,0,0,1-5.63-6.73l6.18-35.13A5.72,5.72,0,0,1,238.34,18h9.14a5.71,5.71,0,0,1,5.45,4l1.65,5.33,4.52-6.81A5.7,5.7,0,0,1,263.85,18H273a5.73,5.73,0,0,1,5.62,6.73l-6.17,35.13a5.72,5.72,0,0,1-5.63,4.74Z"/><path class="cls-8" d="M273.76,64.56a5.73,5.73,0,0,1-5.62-6.73l6.17-35.13A5.73,5.73,0,0,1,279.94,18h24.39A5.73,5.73,0,0,1,310,24.71l-1.36,7.61a5.74,5.74,0,0,1-3.86,4.45,5.7,5.7,0,0,1,0,2.14l-1.36,7.61c0,.14-.05.27-.08.4a5.83,5.83,0,0,1,1.83,5.31l-1.36,7.61a5.71,5.71,0,0,1-5.62,4.72Z"/><path class="cls-8" d="M322,64.56a5.69,5.69,0,0,1-4.71-2.49,5.71,5.71,0,0,1-4.72,2.49h-8.79a5.73,5.73,0,0,1-5.63-6.73l6.17-35.13A5.73,5.73,0,0,1,309.92,18h9a5.7,5.7,0,0,1,4.59,2.33A5.71,5.71,0,0,1,328.14,18h8.75A5.68,5.68,0,0,1,341.26,20a5.75,5.75,0,0,1,1.26,4.68l-6.13,35.13a5.71,5.71,0,0,1-5.62,4.74Z"/><path class="cls-8" d="M354.92,64.56a5.7,5.7,0,0,1-4.12-1.76,5.56,5.56,0,0,1-1-1.39,5.71,5.71,0,0,1-5.11,3.15h-9.28a5.7,5.7,0,0,1-4.67-2.43,5.76,5.76,0,0,1-.71-5.23l12.49-35.13A5.72,5.72,0,0,1,347.92,18h16a5.73,5.73,0,0,1,5.71,5.71l.19,35.13a5.72,5.72,0,0,1-5.71,5.76Z"/><path class="cls-8" d="M387,64.56a5.69,5.69,0,0,1-4.71-2.49,5.71,5.71,0,0,1-4.72,2.49h-8.79a5.73,5.73,0,0,1-5.63-6.73l6.18-35.13A5.72,5.72,0,0,1,374.94,18h9a5.7,5.7,0,0,1,4.59,2.33A5.71,5.71,0,0,1,393.16,18h8.75A5.68,5.68,0,0,1,406.28,20a5.75,5.75,0,0,1,1.26,4.68l-6.13,35.13a5.71,5.71,0,0,1-5.62,4.74Z"/><path class="cls-8" d="M414.84,65.25c-6.38,0-11.07-1.8-13.95-5.33a15.16,15.16,0,0,1-3.09-9.78,28.07,28.07,0,0,1,.48-5l1.7-9.72c2-11.49,9.66-17.82,21.56-17.82,5.11,0,9.21,1.26,12.19,3.73a13.81,13.81,0,0,1,5,11,19.47,19.47,0,0,1-.65,4.93A19.19,19.19,0,0,1,436.8,41a5.79,5.79,0,0,1,.13,2.62l-.78,4.2-.23,1.34C434.83,55.17,430.66,65.25,414.84,65.25Zm3.25-30.35Z"/><path class="cls-8" d="M452.69,64.56a5.71,5.71,0,0,1-4.88-2.76,5.72,5.72,0,0,1-4.89,2.76h-8.74a5.73,5.73,0,0,1-5.63-6.73l6.17-35.13A5.73,5.73,0,0,1,440.35,18h8.75A5.69,5.69,0,0,1,453.47,20a5.88,5.88,0,0,1,.51.72l.06-.1A5.71,5.71,0,0,1,458.86,18h9.24a5.74,5.74,0,0,1,4.83,8.8L463.16,42.3l4.26,15a5.77,5.77,0,0,1-.94,5,5.66,5.66,0,0,1-4.55,2.28Z"/><path class="cls-8" d="M483.35,64.56a5.67,5.67,0,0,1-4.11-1.76,5.87,5.87,0,0,1-1-1.39,5.7,5.7,0,0,1-5.1,3.15h-9.28a5.69,5.69,0,0,1-4.67-2.43,5.76,5.76,0,0,1-.71-5.23L471,21.77A5.71,5.71,0,0,1,476.36,18h16a5.73,5.73,0,0,1,5.72,5.71l.19,35.13a5.72,5.72,0,0,1-5.71,5.76Z"/><path class="cls-8" d="M515.43,64.56a5.73,5.73,0,0,1-4.72-2.49A5.68,5.68,0,0,1,506,64.56h-8.8a5.73,5.73,0,0,1-5.62-6.73l6.17-35.13A5.72,5.72,0,0,1,503.38,18h9a5.71,5.71,0,0,1,4.6,2.33A5.71,5.71,0,0,1,521.6,18h8.75A5.71,5.71,0,0,1,534.72,20,5.78,5.78,0,0,1,536,24.69l-6.12,35.13a5.72,5.72,0,0,1-5.63,4.74Z"/><path class="cls-9" d="M37.22,63.85a5.74,5.74,0,0,1-4.12-1.76,5.93,5.93,0,0,1-1-1.4A5.72,5.72,0,0,1,27,63.85H17.7a5.74,5.74,0,0,1-5.39-7.67L24.82,21.05a5.73,5.73,0,0,1,5.39-3.8H46.28A5.72,5.72,0,0,1,52,23l.2,35.13a5.75,5.75,0,0,1-5.72,5.77Z"/><path class="cls-9" d="M69.36,63.85a5.72,5.72,0,0,1-4.72-2.5,5.74,5.74,0,0,1-4.73,2.5H51.1a5.73,5.73,0,0,1-5.63-6.73L51.65,22a5.73,5.73,0,0,1,5.64-4.74h9.05a5.73,5.73,0,0,1,4.6,2.32,5.73,5.73,0,0,1,4.61-2.32h8.76A5.73,5.73,0,0,1,90,24L83.81,59.1a5.74,5.74,0,0,1-5.64,4.75Z"/><path class="cls-9" d="M85,63.85a5.7,5.7,0,0,1-4.38-2.05,5.76,5.76,0,0,1-1.26-4.68L85.59,22a5.73,5.73,0,0,1,5.63-4.74h13.64c6,0,10.52,1.76,13.47,5.24a15,15,0,0,1,3.35,9.81,23.09,23.09,0,0,1-.32,3.72L119.45,47a20.41,20.41,0,0,1-6.65,12.17,20,20,0,0,1-13.59,4.73Z"/><path class="cls-9" d="M134.51,63.85a5.74,5.74,0,0,1-4.12-1.76,5.65,5.65,0,0,1-1-1.4,5.73,5.73,0,0,1-5.11,3.16H115a5.74,5.74,0,0,1-5.39-7.67l12.51-35.13a5.72,5.72,0,0,1,5.39-3.8h16.07a5.73,5.73,0,0,1,5.72,5.7l.2,35.13a5.78,5.78,0,0,1-1.67,4.07,5.68,5.68,0,0,1-4.06,1.7Z"/><path class="cls-9" d="M186,63.85a5.74,5.74,0,0,1-5.64-6.74l.23-1.27h-5a5.74,5.74,0,0,1-.6,0l-.59,3.3a5.73,5.73,0,0,1-5.63,4.74h-8.77a5.73,5.73,0,0,1-5.63-6.73L160.62,22a5.74,5.74,0,0,1,5.64-4.74h9.15a5.72,5.72,0,0,1,5.47,4l1.65,5.33,4.53-6.81a5.73,5.73,0,0,1,4.76-2.55H201A5.73,5.73,0,0,1,206.66,24l-6.18,35.13a5.74,5.74,0,0,1-5.64,4.74Z"/><path class="cls-9" d="M201.75,63.85a5.73,5.73,0,0,1-5.63-6.73L202.3,22a5.74,5.74,0,0,1,5.64-4.74h24.44A5.72,5.72,0,0,1,238,24l-1.36,7.61a5.73,5.73,0,0,1-3.87,4.44,5.7,5.7,0,0,1,0,2.14l-1.36,7.61a3,3,0,0,1-.09.41,4.32,4.32,0,0,1,.6.61,5.72,5.72,0,0,1,1.24,4.69l-1.36,7.61a5.72,5.72,0,0,1-5.63,4.73Z"/><path class="cls-9" d="M257.75,63.85a5.73,5.73,0,0,1-5.63-6.74l.22-1.27h-5l-.6,0-.58,3.3a5.74,5.74,0,0,1-5.64,4.74H231.8a5.73,5.73,0,0,1-5.64-6.73L232.35,22A5.72,5.72,0,0,1,238,17.25h9.16a5.72,5.72,0,0,1,5.46,4l1.65,5.33,4.53-6.81a5.73,5.73,0,0,1,4.76-2.55h9.21A5.73,5.73,0,0,1,278.38,24L272.2,59.11a5.73,5.73,0,0,1-5.64,4.74Z"/><path class="cls-9" d="M273.48,63.85a5.73,5.73,0,0,1-5.64-6.73L274,22a5.72,5.72,0,0,1,5.63-4.74h24.45A5.72,5.72,0,0,1,309.74,24l-1.37,7.61a5.74,5.74,0,0,1-3.86,4.44,5.7,5.7,0,0,1,0,2.14l-1.37,7.61c0,.14-.05.27-.08.41a4.87,4.87,0,0,1,.59.61,5.73,5.73,0,0,1,1.25,4.69l-1.37,7.61a5.72,5.72,0,0,1-5.63,4.73Z"/><path class="cls-9" d="M321.78,63.85a5.72,5.72,0,0,1-4.72-2.5,5.74,5.74,0,0,1-4.73,2.5h-8.81a5.7,5.7,0,0,1-4.38-2.05,5.76,5.76,0,0,1-1.26-4.68L304.07,22a5.73,5.73,0,0,1,5.63-4.74h9.06a5.73,5.73,0,0,1,4.6,2.32A5.73,5.73,0,0,1,328,17.25h8.76A5.73,5.73,0,0,1,342.37,24L336.23,59.1a5.74,5.74,0,0,1-5.64,4.75Z"/><path class="cls-9" d="M354.79,63.85a5.74,5.74,0,0,1-4.12-1.76,5.93,5.93,0,0,1-1-1.4,5.72,5.72,0,0,1-5.11,3.16h-9.3a5.74,5.74,0,0,1-5.39-7.67l12.51-35.13a5.73,5.73,0,0,1,5.39-3.8h16.07a5.72,5.72,0,0,1,5.72,5.7l.2,35.13a5.75,5.75,0,0,1-5.72,5.77Z"/><path class="cls-9" d="M386.93,63.85a5.73,5.73,0,0,1-4.72-2.5,5.72,5.72,0,0,1-4.73,2.5h-8.81A5.73,5.73,0,0,1,363,57.12L369.22,22a5.73,5.73,0,0,1,5.64-4.74h9.05a5.71,5.71,0,0,1,4.6,2.32,5.74,5.74,0,0,1,4.61-2.32h8.76A5.73,5.73,0,0,1,407.52,24L401.38,59.1a5.73,5.73,0,0,1-5.63,4.75Z"/><path class="cls-9" d="M414.83,64.53c-6.38,0-11.09-1.79-14-5.32a15.19,15.19,0,0,1-3.1-9.78,28,28,0,0,1,.49-5l1.69-9.72c2-11.5,9.69-17.82,21.61-17.82,5.11,0,9.22,1.25,12.21,3.72a13.81,13.81,0,0,1,5,11,19.1,19.1,0,0,1-.66,4.93,19.31,19.31,0,0,1-1.27,3.64,5.79,5.79,0,0,1,.13,2.62l-.78,4.2L436,48.4C434.87,54.45,430.69,64.53,414.83,64.53Zm3.26-30.35Z"/><path class="cls-9" d="M452.76,63.85a5.72,5.72,0,0,1-4.89-2.77A5.7,5.7,0,0,1,443,63.85h-8.77a5.7,5.7,0,0,1-4.38-2.05,5.76,5.76,0,0,1-1.26-4.68L434.76,22a5.73,5.73,0,0,1,5.63-4.74h8.77a5.7,5.7,0,0,1,4.38,2.05,5.11,5.11,0,0,1,.51.71l.06-.1A5.73,5.73,0,0,1,459,17.25h9.25A5.73,5.73,0,0,1,473,26l-9.79,15.54,4.27,15A5.75,5.75,0,0,1,462,63.85Z"/><path class="cls-9" d="M483.49,63.85a5.74,5.74,0,0,1-4.13-1.76,5.61,5.61,0,0,1-1-1.4,5.74,5.74,0,0,1-5.12,3.16H464a5.74,5.74,0,0,1-5.39-7.67l12.52-35.13a5.72,5.72,0,0,1,5.39-3.8h16.06a5.74,5.74,0,0,1,5.73,5.7l.19,35.13a5.74,5.74,0,0,1-5.72,5.77Z"/><path class="cls-9" d="M515.63,63.85a5.74,5.74,0,0,1-4.73-2.5,5.72,5.72,0,0,1-4.72,2.5h-8.82a5.73,5.73,0,0,1-5.63-6.73L497.91,22a5.73,5.73,0,0,1,5.64-4.74h9.06a5.74,5.74,0,0,1,4.6,2.32,5.71,5.71,0,0,1,4.6-2.32h8.76A5.72,5.72,0,0,1,536.21,24L530.08,59.1a5.74,5.74,0,0,1-5.64,4.75Z"/><path class="cls-10" d="M36.46,63.13a5.74,5.74,0,0,1-4.13-1.76,5.93,5.93,0,0,1-1-1.4,5.74,5.74,0,0,1-5.12,3.16H16.9a5.73,5.73,0,0,1-5.4-7.66L24,20.34a5.72,5.72,0,0,1,5.4-3.81h16.1a5.74,5.74,0,0,1,5.73,5.7l.2,35.13a5.74,5.74,0,0,1-5.74,5.77Z"/><path class="cls-10" d="M68.66,63.13a5.73,5.73,0,0,1-4.73-2.5,5.74,5.74,0,0,1-4.73,2.5H50.37a5.74,5.74,0,0,1-5.65-6.73l6.2-35.13a5.73,5.73,0,0,1,5.64-4.74h9.08a5.73,5.73,0,0,1,4.61,2.33,5.71,5.71,0,0,1,4.61-2.33h8.78a5.74,5.74,0,0,1,5.65,6.72L83.14,58.38a5.73,5.73,0,0,1-5.65,4.75Z"/><path class="cls-10" d="M84.37,63.13a5.73,5.73,0,0,1-5.64-6.73l6.19-35.13a5.75,5.75,0,0,1,5.65-4.74h13.66c6,0,10.54,1.77,13.5,5.24a15,15,0,0,1,3.36,9.81,23.09,23.09,0,0,1-.32,3.72l-1.91,10.93a20.37,20.37,0,0,1-6.67,12.17,20,20,0,0,1-13.62,4.73Z"/><path class="cls-10" d="M133.94,63.13a5.76,5.76,0,0,1-4.13-1.76,5.93,5.93,0,0,1-1-1.4,5.74,5.74,0,0,1-5.12,3.16h-9.32a5.73,5.73,0,0,1-5.4-7.66l12.54-35.13a5.73,5.73,0,0,1,5.4-3.81H143a5.73,5.73,0,0,1,5.73,5.7l.2,35.13a5.74,5.74,0,0,1-5.74,5.77Z"/><path class="cls-10" d="M185.56,63.13a5.73,5.73,0,0,1-5.64-6.74l.22-1.26h-5l-.6,0L174,58.4a5.75,5.75,0,0,1-5.65,4.73h-8.78a5.74,5.74,0,0,1-5.65-6.73l6.2-35.13a5.73,5.73,0,0,1,5.65-4.74h9.17a5.73,5.73,0,0,1,5.47,4l1.66,5.33,4.54-6.82a5.73,5.73,0,0,1,4.77-2.55h9.22a5.74,5.74,0,0,1,5.65,6.73L200,58.39a5.73,5.73,0,0,1-5.64,4.74Z"/><path class="cls-10" d="M201.32,63.13a5.73,5.73,0,0,1-5.64-6.73l6.19-35.13a5.75,5.75,0,0,1,5.65-4.74H232a5.75,5.75,0,0,1,5.65,6.75l-1.37,7.61a5.73,5.73,0,0,1-3.88,4.44,6,6,0,0,1,0,2.15l-1.37,7.61c0,.13,0,.27-.09.4a6.92,6.92,0,0,1,.6.61,5.75,5.75,0,0,1,1.25,4.7l-1.37,7.61a5.74,5.74,0,0,1-5.64,4.72Z"/><path class="cls-10" d="M257.43,63.13a5.75,5.75,0,0,1-5.65-6.74l.23-1.26h-5l-.6,0-.59,3.3a5.73,5.73,0,0,1-5.64,4.73h-8.78a5.73,5.73,0,0,1-5.65-6.73L232,21.27a5.73,5.73,0,0,1,5.64-4.74h9.17a5.73,5.73,0,0,1,5.48,4l1.65,5.33,4.55-6.82a5.73,5.73,0,0,1,4.77-2.55h9.22a5.74,5.74,0,0,1,5.65,6.73l-6.2,35.13a5.74,5.74,0,0,1-5.65,4.74Z"/><path class="cls-10" d="M273.19,63.13a5.74,5.74,0,0,1-5.65-6.73l6.2-35.13a5.73,5.73,0,0,1,5.65-4.74h24.49a5.73,5.73,0,0,1,5.64,6.75l-1.36,7.61a5.75,5.75,0,0,1-3.88,4.44,5.75,5.75,0,0,1,0,2.15l-1.36,7.61-.09.4a6.92,6.92,0,0,1,.6.61,5.75,5.75,0,0,1,1.24,4.7l-1.36,7.61a5.74,5.74,0,0,1-5.65,4.72Z"/><path class="cls-10" d="M321.59,63.13a5.71,5.71,0,0,1-4.73-2.5,5.74,5.74,0,0,1-4.74,2.5h-8.83a5.73,5.73,0,0,1-5.64-6.73l6.19-35.13a5.75,5.75,0,0,1,5.65-4.74h9.07a5.71,5.71,0,0,1,4.61,2.33,5.74,5.74,0,0,1,4.62-2.33h8.78a5.74,5.74,0,0,1,5.65,6.72l-6.15,35.13a5.73,5.73,0,0,1-5.65,4.75Z"/><path class="cls-10" d="M354.67,63.13a5.74,5.74,0,0,1-4.13-1.76,5.4,5.4,0,0,1-1-1.4,5.74,5.74,0,0,1-5.13,3.16H335.1a5.74,5.74,0,0,1-5.4-7.66l12.54-35.13a5.74,5.74,0,0,1,5.4-3.81h16.1a5.74,5.74,0,0,1,5.74,5.7l.19,35.13a5.72,5.72,0,0,1-5.73,5.77Z"/><path class="cls-10" d="M386.87,63.13a5.71,5.71,0,0,1-4.73-2.5,5.74,5.74,0,0,1-4.73,2.5h-8.84a5.73,5.73,0,0,1-5.64-6.73l6.19-35.13a5.75,5.75,0,0,1,5.65-4.74h9.08a5.73,5.73,0,0,1,4.61,2.33,5.71,5.71,0,0,1,4.61-2.33h8.78a5.74,5.74,0,0,1,5.65,6.72l-6.15,35.13a5.73,5.73,0,0,1-5.65,4.75Z"/><path class="cls-10" d="M414.83,63.81c-6.4,0-11.11-1.79-14-5.32a15.13,15.13,0,0,1-3.1-9.78,28,28,0,0,1,.48-5l1.7-9.72c2-11.49,9.7-17.82,21.65-17.82,5.12,0,9.24,1.25,12.24,3.73a13.79,13.79,0,0,1,5,11,19.47,19.47,0,0,1-.65,4.93,20,20,0,0,1-1.28,3.64,5.69,5.69,0,0,1,.12,2.63l-.78,4.19L436,47.68C434.9,53.73,430.71,63.81,414.83,63.81Zm3.26-30.34Z"/><path class="cls-10" d="M452.84,63.13a5.74,5.74,0,0,1-4.91-2.76,5.73,5.73,0,0,1-4.9,2.76h-8.78a5.73,5.73,0,0,1-5.65-6.73l6.19-35.13a5.75,5.75,0,0,1,5.65-4.74h8.78a5.75,5.75,0,0,1,4.91,2.76l.06-.09A5.74,5.74,0,0,1,459,16.53h9.27a5.74,5.74,0,0,1,4.85,8.79l-9.8,15.55,4.27,15a5.74,5.74,0,0,1-5.52,7.31Z"/><path class="cls-10" d="M483.62,63.13a5.74,5.74,0,0,1-4.13-1.76,5.65,5.65,0,0,1-1-1.4,5.74,5.74,0,0,1-5.12,3.16h-9.32a5.73,5.73,0,0,1-5.4-7.66l12.53-35.13a5.74,5.74,0,0,1,5.4-3.81H492.7a5.74,5.74,0,0,1,5.73,5.7l.2,35.13a5.74,5.74,0,0,1-5.74,5.77Z"/><path class="cls-10" d="M515.82,63.13a5.73,5.73,0,0,1-4.73-2.5,5.74,5.74,0,0,1-4.73,2.5h-8.83a5.73,5.73,0,0,1-5.65-6.73l6.19-35.13a5.75,5.75,0,0,1,5.65-4.74h9.08a5.73,5.73,0,0,1,4.61,2.33A5.71,5.71,0,0,1,522,16.53h8.78a5.74,5.74,0,0,1,5.65,6.72L530.3,58.38a5.73,5.73,0,0,1-5.65,4.75Z"/><path class="cls-11" d="M36.46,63.13a5.74,5.74,0,0,1-4.13-1.76,5.93,5.93,0,0,1-1-1.4,5.74,5.74,0,0,1-5.12,3.16H16.9a5.73,5.73,0,0,1-5.4-7.66L24,20.34a5.72,5.72,0,0,1,5.4-3.81h16.1a5.74,5.74,0,0,1,5.73,5.7l.2,35.13a5.74,5.74,0,0,1-5.74,5.77Z"/><path class="cls-11" d="M68.66,63.13a5.73,5.73,0,0,1-4.73-2.5,5.74,5.74,0,0,1-4.73,2.5H50.37a5.74,5.74,0,0,1-5.65-6.73l6.2-35.13a5.73,5.73,0,0,1,5.64-4.74h9.08a5.73,5.73,0,0,1,4.61,2.33,5.71,5.71,0,0,1,4.61-2.33h8.78a5.74,5.74,0,0,1,5.65,6.72L83.14,58.38a5.73,5.73,0,0,1-5.65,4.75Z"/><path class="cls-11" d="M84.37,63.13a5.73,5.73,0,0,1-5.64-6.73l6.19-35.13a5.75,5.75,0,0,1,5.65-4.74h13.66c6,0,10.54,1.77,13.5,5.24a15,15,0,0,1,3.36,9.81,23.09,23.09,0,0,1-.32,3.72l-1.91,10.93a20.37,20.37,0,0,1-6.67,12.17,20,20,0,0,1-13.62,4.73Z"/><path class="cls-11" d="M133.94,63.13a5.76,5.76,0,0,1-4.13-1.76,5.93,5.93,0,0,1-1-1.4,5.74,5.74,0,0,1-5.12,3.16h-9.32a5.73,5.73,0,0,1-5.4-7.66l12.54-35.13a5.73,5.73,0,0,1,5.4-3.81H143a5.73,5.73,0,0,1,5.73,5.7l.2,35.13a5.74,5.74,0,0,1-5.74,5.77Z"/><path class="cls-11" d="M185.56,63.13a5.73,5.73,0,0,1-5.64-6.74l.22-1.26h-5l-.6,0L174,58.4a5.75,5.75,0,0,1-5.65,4.73h-8.78a5.74,5.74,0,0,1-5.65-6.73l6.2-35.13a5.73,5.73,0,0,1,5.65-4.74h9.17a5.73,5.73,0,0,1,5.47,4l1.66,5.33,4.54-6.82a5.73,5.73,0,0,1,4.77-2.55h9.22a5.74,5.74,0,0,1,5.65,6.73L200,58.39a5.73,5.73,0,0,1-5.64,4.74Z"/><path class="cls-11" d="M201.32,63.13a5.73,5.73,0,0,1-5.64-6.73l6.19-35.13a5.75,5.75,0,0,1,5.65-4.74H232a5.75,5.75,0,0,1,5.65,6.75l-1.37,7.61a5.73,5.73,0,0,1-3.88,4.44,6,6,0,0,1,0,2.15l-1.37,7.61c0,.13,0,.27-.09.4a6.92,6.92,0,0,1,.6.61,5.75,5.75,0,0,1,1.25,4.7l-1.37,7.61a5.74,5.74,0,0,1-5.64,4.72Z"/><path class="cls-11" d="M257.43,63.13a5.75,5.75,0,0,1-5.65-6.74l.23-1.26h-5l-.6,0-.59,3.3a5.73,5.73,0,0,1-5.64,4.73h-8.78a5.73,5.73,0,0,1-5.65-6.73L232,21.27a5.73,5.73,0,0,1,5.64-4.74h9.17a5.73,5.73,0,0,1,5.48,4l1.65,5.33,4.55-6.82a5.73,5.73,0,0,1,4.77-2.55h9.22a5.74,5.74,0,0,1,5.65,6.73l-6.2,35.13a5.74,5.74,0,0,1-5.65,4.74Z"/><path class="cls-11" d="M273.19,63.13a5.74,5.74,0,0,1-5.65-6.73l6.2-35.13a5.73,5.73,0,0,1,5.65-4.74h24.49a5.73,5.73,0,0,1,5.64,6.75l-1.36,7.61a5.75,5.75,0,0,1-3.88,4.44,5.75,5.75,0,0,1,0,2.15l-1.36,7.61-.09.4a6.92,6.92,0,0,1,.6.61,5.75,5.75,0,0,1,1.24,4.7l-1.36,7.61a5.74,5.74,0,0,1-5.65,4.72Z"/><path class="cls-11" d="M321.59,63.13a5.71,5.71,0,0,1-4.73-2.5,5.74,5.74,0,0,1-4.74,2.5h-8.83a5.73,5.73,0,0,1-5.64-6.73l6.19-35.13a5.75,5.75,0,0,1,5.65-4.74h9.07a5.71,5.71,0,0,1,4.61,2.33,5.74,5.74,0,0,1,4.62-2.33h8.78a5.74,5.74,0,0,1,5.65,6.72l-6.15,35.13a5.73,5.73,0,0,1-5.65,4.75Z"/><path class="cls-11" d="M354.67,63.13a5.74,5.74,0,0,1-4.13-1.76,5.4,5.4,0,0,1-1-1.4,5.74,5.74,0,0,1-5.13,3.16H335.1a5.74,5.74,0,0,1-5.4-7.66l12.54-35.13a5.74,5.74,0,0,1,5.4-3.81h16.1a5.74,5.74,0,0,1,5.74,5.7l.19,35.13a5.72,5.72,0,0,1-5.73,5.77Z"/><path class="cls-11" d="M386.87,63.13a5.71,5.71,0,0,1-4.73-2.5,5.74,5.74,0,0,1-4.73,2.5h-8.84a5.73,5.73,0,0,1-5.64-6.73l6.19-35.13a5.75,5.75,0,0,1,5.65-4.74h9.08a5.73,5.73,0,0,1,4.61,2.33,5.71,5.71,0,0,1,4.61-2.33h8.78a5.74,5.74,0,0,1,5.65,6.72l-6.15,35.13a5.73,5.73,0,0,1-5.65,4.75Z"/><path class="cls-11" d="M414.83,63.81c-6.4,0-11.11-1.79-14-5.32a15.13,15.13,0,0,1-3.1-9.78,28,28,0,0,1,.48-5l1.7-9.72c2-11.49,9.7-17.82,21.65-17.82,5.12,0,9.24,1.25,12.24,3.73a13.79,13.79,0,0,1,5,11,19.47,19.47,0,0,1-.65,4.93,20,20,0,0,1-1.28,3.64,5.69,5.69,0,0,1,.12,2.63l-.78,4.19L436,47.68C434.9,53.73,430.71,63.81,414.83,63.81Zm3.26-30.34Z"/><path class="cls-11" d="M452.84,63.13a5.74,5.74,0,0,1-4.91-2.76,5.73,5.73,0,0,1-4.9,2.76h-8.78a5.73,5.73,0,0,1-5.65-6.73l6.19-35.13a5.75,5.75,0,0,1,5.65-4.74h8.78a5.75,5.75,0,0,1,4.91,2.76l.06-.09A5.74,5.74,0,0,1,459,16.53h9.27a5.74,5.74,0,0,1,4.85,8.79l-9.8,15.55,4.27,15a5.74,5.74,0,0,1-5.52,7.31Z"/><path class="cls-11" d="M483.62,63.13a5.74,5.74,0,0,1-4.13-1.76,5.65,5.65,0,0,1-1-1.4,5.74,5.74,0,0,1-5.12,3.16h-9.32a5.73,5.73,0,0,1-5.4-7.66l12.53-35.13a5.74,5.74,0,0,1,5.4-3.81H492.7a5.74,5.74,0,0,1,5.73,5.7l.2,35.13a5.74,5.74,0,0,1-5.74,5.77Z"/><path class="cls-11" d="M515.82,63.13a5.73,5.73,0,0,1-4.73-2.5,5.74,5.74,0,0,1-4.73,2.5h-8.83a5.73,5.73,0,0,1-5.65-6.73l6.19-35.13a5.75,5.75,0,0,1,5.65-4.74h9.08a5.73,5.73,0,0,1,4.61,2.33A5.71,5.71,0,0,1,522,16.53h8.78a5.74,5.74,0,0,1,5.65,6.72L530.3,58.38a5.73,5.73,0,0,1-5.65,4.75Z"/><path class="cls-2" d="M36.46,57.39l.3-7.66H28.61l-2.39,7.66H16.9L29.44,22.27h16.1l.19,35.12Zm-2-26.59L30.61,43.2H37l.54-12.4Z"/><path class="cls-2" d="M83.64,22.27,77.49,57.39H68.66L62.52,38.17,59.2,57.39H50.37l6.19-35.12h9.08l6,18,3.17-17.95Z"/><path class="cls-2" d="M104.23,22.27q6.39,0,9.13,3.22a9.28,9.28,0,0,1,2,6.09,17.4,17.4,0,0,1-.25,2.79l-1.9,10.88a14.77,14.77,0,0,1-4.78,8.83,14.48,14.48,0,0,1-9.86,3.31H84.37l6.2-35.12Zm-3.07,7.61H98l-3.47,19.9h4.64a4.93,4.93,0,0,0,3.58-1.24,7.18,7.18,0,0,0,1.78-4.08l1.42-8a10.86,10.86,0,0,0,.19-2C106.13,31.42,104.48,29.88,101.16,29.88Z"/><path class="cls-2" d="M133.94,57.39l.3-7.66h-8.15l-2.39,7.66h-9.32l12.54-35.12H143l.2,35.12Zm-2-26.59-3.85,12.4h6.39L135,30.8Z"/><path class="cls-2" d="M174.93,22.27l5.22,16.83,11.22-16.83h9.22L194.4,57.39h-8.84l3.52-19.8-7.52,11.8h-6.39l-3.32-11.8-3.51,19.8h-8.78l6.2-35.12Z"/><path class="cls-2" d="M225.82,57.39h-24.5l6.2-35.12H232l-1.36,7.61H214.94l-1.13,6.58h13l-1.37,7.61h-13l-1,5.71h15.71Z"/><path class="cls-2" d="M246.79,22.27,252,39.1l11.22-16.83h9.22l-6.2,35.12h-8.83l3.51-19.8-7.51,11.8H247l-3.32-11.8-3.51,19.8h-8.78l6.19-35.12Z"/><path class="cls-2" d="M297.68,57.39H273.19l6.2-35.12h24.49l-1.37,7.61H286.8l-1.12,6.58h13l-1.37,7.61h-13l-1,5.71h15.71Z"/><path class="cls-2" d="M336.57,22.27l-6.15,35.12h-8.83l-6.15-19.22-3.32,19.22h-8.83l6.2-35.12h9.07l6.05,18,3.18-17.95Z"/><path class="cls-2" d="M354.67,57.39l.29-7.66h-8.15l-2.39,7.66H335.1l12.54-35.12h16.1l.2,35.12Zm-2-26.59-3.86,12.4h6.4l.53-12.4Z"/><path class="cls-2" d="M401.85,22.27,395.7,57.39h-8.83l-6.15-19.22-3.31,19.22h-8.84l6.2-35.12h9.08l6,18,3.17-17.95Z"/><path class="cls-2" d="M414.83,58.08q-6.93,0-9.57-3.22a9.58,9.58,0,0,1-1.8-6.15,22.23,22.23,0,0,1,.39-4L405.56,35q2.29-13.08,16-13.08c3.77,0,6.64.81,8.59,2.42A8.11,8.11,0,0,1,433.08,31a13.46,13.46,0,0,1-.47,3.46,14.81,14.81,0,0,1-.9,2.64l-.49.88h-8.63a6.77,6.77,0,0,0,1.26-4q0-4.4-3.66-4.39-4.92,0-5.9,5.7l-1.66,9.37a14.43,14.43,0,0,0-.24,2.59q0,3.36,4,3.36a4.88,4.88,0,0,0,5.1-4h-4l1-5.41h12.93l-.78,4.19-.25,1.42Q428.3,58.08,414.83,58.08Z"/><path class="cls-2" d="M468.3,22.27,457.13,40l5,17.41h-9.26l-3.67-12.88h-3.85L443,57.39h-8.78l6.19-35.12h8.78L446.64,36.9h3.12L459,22.27Z"/><path class="cls-2" d="M483.62,57.39l.29-7.66h-8.14l-2.39,7.66h-9.32l12.53-35.12H492.7l.19,35.12Zm-2-26.59-3.85,12.4h6.39l.53-12.4Z"/><path class="cls-2" d="M530.8,22.27l-6.15,35.12h-8.83l-6.15-19.22-3.31,19.22h-8.83l6.19-35.12h9.08l6.05,18L522,22.27Z"/><path class="cls-12" d="M37.9,56l.29-7.66H30L27.65,56H18.33L30.87,20.83H47L47.17,56Zm-2-26.59L32,41.76h6.39L39,29.37Z"/><path class="cls-12" d="M85.08,20.83,78.93,56H70.1L64,36.74,60.63,56H51.8L58,20.83h9.07l6.05,18,3.17-18Z"/><path class="cls-12" d="M105.67,20.83q6.39,0,9.12,3.22a9.33,9.33,0,0,1,2,6.1,17.13,17.13,0,0,1-.24,2.78l-1.91,10.88a14.66,14.66,0,0,1-4.78,8.83A14.41,14.41,0,0,1,100,56H85.81L92,20.83Zm-3.08,7.61H99.42L96,48.35h4.63a5,5,0,0,0,3.59-1.24A7.32,7.32,0,0,0,106,43l1.41-8a11.12,11.12,0,0,0,.2-2Q107.57,28.45,102.59,28.44Z"/><path class="cls-12" d="M135.38,56l.29-7.66h-8.15L125.13,56h-9.32l12.54-35.13h16.1l.2,35.13Zm-2-26.59-3.86,12.39h6.4l.53-12.39Z"/><path class="cls-12" d="M176.36,20.83l5.22,16.83L192.8,20.83H202L195.83,56H187l3.51-19.81L183,48h-6.39l-3.32-11.81L169.78,56H161l6.2-35.13Z"/><path class="cls-12" d="M227.25,56H202.76L209,20.83h24.5l-1.37,7.61H216.37L215.25,35h13l-1.36,7.61h-13l-1,5.71h15.71Z"/><path class="cls-12" d="M248.23,20.83l5.22,16.83,11.22-16.83h9.22L267.7,56h-8.84l3.52-19.81L254.86,48h-6.39l-3.32-11.81L241.64,56h-8.78l6.2-35.13Z"/><path class="cls-12" d="M299.12,56h-24.5l6.2-35.13h24.49L304,28.44H288.24L287.11,35h13l-1.36,7.61h-13l-1,5.71h15.71Z"/><path class="cls-12" d="M338,20.83,331.85,56H323l-6.14-19.22L313.56,56h-8.83l6.19-35.13H320l6.05,18,3.17-18Z"/><path class="cls-12" d="M356.1,56l.3-7.66h-8.15L345.86,56h-9.32l12.54-35.13h16.1L365.37,56Zm-2-26.59-3.85,12.39h6.39l.54-12.39Z"/><path class="cls-12" d="M403.28,20.83,397.14,56H388.3l-6.14-19.22L378.84,56H370l6.19-35.13h9.08l6.05,18,3.17-18Z"/><path class="cls-12" d="M416.26,56.64q-6.93,0-9.56-3.22a9.48,9.48,0,0,1-1.81-6.14,22.34,22.34,0,0,1,.39-4L407,33.57q2.29-13.08,16-13.08c3.78,0,6.64.81,8.59,2.41a8.15,8.15,0,0,1,2.93,6.62,13.89,13.89,0,0,1-.46,3.46,13.79,13.79,0,0,1-.91,2.63l-.48.88H424a6.77,6.77,0,0,0,1.27-4.05c0-2.92-1.22-4.39-3.66-4.39-3.29,0-5.25,1.91-5.91,5.71l-1.65,9.37a13.57,13.57,0,0,0-.25,2.58q0,3.38,4,3.37t5.1-4h-4l1-5.42H432.8l-.78,4.2-.24,1.42Q429.73,56.64,416.26,56.64Z"/><path class="cls-12" d="M469.73,20.83,458.56,38.54l5,17.42h-9.27l-3.66-12.88h-3.86L444.46,56h-8.78l6.2-35.13h8.78l-2.59,14.64h3.12l9.27-14.64Z"/><path class="cls-12" d="M485.05,56l.3-7.66H477.2L474.81,56h-9.32L478,20.83h16.1L494.32,56Zm-2-26.59L479.2,41.76h6.39l.54-12.39Z"/><path class="cls-12" d="M532.23,20.83,526.09,56h-8.83l-6.15-19.22L507.79,56H499l6.2-35.13h9.07l6,18,3.17-18Z"/><g class="cls-13"><path class="cls-14" d="M37.9,56l.29-7.66H30L27.65,56H18.33L30.87,20.83H47L47.17,56Zm-2-26.59L32,41.76h6.39L39,29.37Z"/><path class="cls-14" d="M85.08,20.83,78.93,56H70.1L64,36.74,60.63,56H51.8L58,20.83h9.07l6.05,18,3.17-18Z"/><path class="cls-14" d="M105.67,20.83q6.39,0,9.12,3.22a9.33,9.33,0,0,1,2,6.1,17.13,17.13,0,0,1-.24,2.78l-1.91,10.88a14.66,14.66,0,0,1-4.78,8.83A14.41,14.41,0,0,1,100,56H85.81L92,20.83Zm-3.08,7.61H99.42L96,48.35h4.63a5,5,0,0,0,3.59-1.24A7.32,7.32,0,0,0,106,43l1.41-8a11.12,11.12,0,0,0,.2-2Q107.57,28.45,102.59,28.44Z"/><path class="cls-14" d="M135.38,56l.29-7.66h-8.15L125.13,56h-9.32l12.54-35.13h16.1l.2,35.13Zm-2-26.59-3.86,12.39h6.4l.53-12.39Z"/><path class="cls-14" d="M176.36,20.83l5.22,16.83L192.8,20.83H202L195.83,56H187l3.51-19.81L183,48h-6.39l-3.32-11.81L169.78,56H161l6.2-35.13Z"/><path class="cls-14" d="M227.25,56H202.76L209,20.83h24.5l-1.37,7.61H216.37L215.25,35h13l-1.36,7.61h-13l-1,5.71h15.71Z"/><path class="cls-14" d="M248.23,20.83l5.22,16.83,11.22-16.83h9.22L267.7,56h-8.84l3.52-19.81L254.86,48h-6.39l-3.32-11.81L241.64,56h-8.78l6.2-35.13Z"/><path class="cls-14" d="M299.12,56h-24.5l6.2-35.13h24.49L304,28.44H288.24L287.11,35h13l-1.36,7.61h-13l-1,5.71h15.71Z"/><path class="cls-14" d="M338,20.83,331.85,56H323l-6.14-19.22L313.56,56h-8.83l6.19-35.13H320l6.05,18,3.17-18Z"/><path class="cls-14" d="M356.1,56l.3-7.66h-8.15L345.86,56h-9.32l12.54-35.13h16.1L365.37,56Zm-2-26.59-3.85,12.39h6.39l.54-12.39Z"/><path class="cls-14" d="M403.28,20.83,397.14,56H388.3l-6.14-19.22L378.84,56H370l6.19-35.13h9.08l6.05,18,3.17-18Z"/><path class="cls-14" d="M416.26,56.64q-6.93,0-9.56-3.22a9.48,9.48,0,0,1-1.81-6.14,22.34,22.34,0,0,1,.39-4L407,33.57q2.29-13.08,16-13.08c3.78,0,6.64.81,8.59,2.41a8.15,8.15,0,0,1,2.93,6.62,13.89,13.89,0,0,1-.46,3.46,13.79,13.79,0,0,1-.91,2.63l-.48.88H424a6.77,6.77,0,0,0,1.27-4.05c0-2.92-1.22-4.39-3.66-4.39-3.29,0-5.25,1.91-5.91,5.71l-1.65,9.37a13.57,13.57,0,0,0-.25,2.58q0,3.38,4,3.37t5.1-4h-4l1-5.42H432.8l-.78,4.2-.24,1.42Q429.73,56.64,416.26,56.64Z"/><path class="cls-14" d="M469.73,20.83,458.56,38.54l5,17.42h-9.27l-3.66-12.88h-3.86L444.46,56h-8.78l6.2-35.13h8.78l-2.59,14.64h3.12l9.27-14.64Z"/><path class="cls-14" d="M485.05,56l.3-7.66H477.2L474.81,56h-9.32L478,20.83h16.1L494.32,56Zm-2-26.59L479.2,41.76h6.39l.54-12.39Z"/><path class="cls-14" d="M532.23,20.83,526.09,56h-8.83l-6.15-19.22L507.79,56H499l6.2-35.13h9.07l6,18,3.17-18Z"/></g></g></g></svg>