<svg xmlns="http://www.w3.org/2000/svg" xmlns:xlink="http://www.w3.org/1999/xlink" viewBox="0 0 484 489"><defs><style>.cls-1{isolation:isolate;}.cls-2{fill:url(#linear-gradient);}.cls-3{opacity:0.7;mix-blend-mode:overlay;fill:url(#linear-gradient-2);}.cls-4,.cls-8{mix-blend-mode:screen;}.cls-4{fill:url(#linear-gradient-3);}.cls-5{fill:url(#linear-gradient-4);}.cls-6{mix-blend-mode:multiply;fill:url(#radial-gradient);}.cls-7{fill:url(#linear-gradient-5);}.cls-8{opacity:0.46;fill:url(#radial-gradient-2);}.cls-9{fill:url(#radial-gradient-3);}.cls-10{fill:#fff;}</style><linearGradient id="linear-gradient" x1="678.81" y1="550.07" x2="906.45" y2="777.71" gradientTransform="translate(154.31 -771.44) rotate(45)" gradientUnits="userSpaceOnUse"><stop offset="0" stop-color="#4d4d4d"/><stop offset="1" stop-color="gray"/></linearGradient><linearGradient id="linear-gradient-2" x1="487.42" y1="661.69" x2="962.92" y2="661.69" gradientTransform="translate(-283.85 -584.61) rotate(15)" gradientUnits="userSpaceOnUse"><stop offset="0" stop-color="#b3b3b3"/><stop offset="0.99" stop-color="#333"/></linearGradient><linearGradient id="linear-gradient-3" x1="912.59" y1="783.84" x2="594.67" y2="465.93" gradientTransform="translate(154.31 -771.44) rotate(45)" gradientUnits="userSpaceOnUse"><stop offset="0.1" stop-color="#f79d53"/><stop offset="0.24" stop-color="#f8a657"/><stop offset="0.47" stop-color="#fabd61"/><stop offset="0.76" stop-color="#fee373"/><stop offset="0.85" stop-color="#fff279"/></linearGradient><linearGradient id="linear-gradient-4" x1="908.99" y1="780.25" x2="599.76" y2="471.02" gradientTransform="translate(154.31 -771.44) rotate(45)" gradientUnits="userSpaceOnUse"><stop offset="0.14" stop-color="#4d4d4d"/><stop offset="0.29" stop-color="#565656"/><stop offset="0.52" stop-color="#6d6d6d"/><stop offset="0.82" stop-color="#939393"/><stop offset="0.86" stop-color="#999"/></linearGradient><radialGradient id="radial-gradient" cx="719.47" cy="579.07" r="354.81" gradientTransform="translate(154.31 -771.44) rotate(45)" gradientUnits="userSpaceOnUse"><stop offset="0" stop-color="#ccc"/><stop offset="0.03" stop-color="silver"/><stop offset="0.18" stop-color="#8e8e8e"/><stop offset="0.33" stop-color="#646464"/><stop offset="0.48" stop-color="#444"/><stop offset="0.61" stop-color="#2d2d2d"/><stop offset="0.74" stop-color="#1f1f1f"/><stop offset="0.86" stop-color="#1a1a1a"/></radialGradient><linearGradient id="linear-gradient-5" x1="662.38" y1="771.15" x2="899.89" y2="533.64" gradientTransform="translate(154.31 -771.44) rotate(45)" gradientUnits="userSpaceOnUse"><stop offset="0" stop-color="#4d4d4d"/><stop offset="0.13" stop-color="#4b4143"/><stop offset="0.32" stop-color="#46272d"/><stop offset="0.66" stop-color="#46272d"/><stop offset="0.87" stop-color="#4a3d3f"/><stop offset="1" stop-color="#4d4d4d"/></linearGradient><radialGradient id="radial-gradient-2" cx="723.09" cy="583.37" r="333.99" gradientTransform="translate(154.31 -771.44) rotate(45)" gradientUnits="userSpaceOnUse"><stop offset="0.1" stop-color="#8f4499"/><stop offset="0.22" stop-color="#864093"/><stop offset="0.41" stop-color="#6f3682"/><stop offset="0.65" stop-color="#482667"/><stop offset="0.86" stop-color="#23164c"/></radialGradient><radialGradient id="radial-gradient-3" cx="720.44" cy="581.2" r="319.42" xlink:href="#radial-gradient-2"/></defs><title>BASE_GRAY</title><g class="cls-1"><g id="Layer_1" data-name="Layer 1"><path class="cls-2" d="M64.81,422.75h0C25.74,385.5,17,314.5,16.22,243.5c1-71,10-142,48.86-179.41.71-.72,1.42-1.43,2.14-2.14,37.39-38.89,108.4-47.82,179.41-48.86,71,.81,142,9.52,179.25,48.59h0C465,98.93,473.66,169.93,474.47,240.94c-1,71-10,142-48.86,179.41l-2.13,2.13c-37.39,38.9-108.4,47.83-179.41,48.86C173.06,470.53,102.06,461.83,64.81,422.75Z"/><path class="cls-3" d="M64.81,422.75h0C25.74,385.5,17,314.5,16.22,243.5c1-71,10-142,48.86-179.41.71-.72,1.42-1.43,2.14-2.14,37.39-38.89,108.4-47.82,179.41-48.86,71,.81,142,9.52,179.25,48.59h0C465,98.93,473.66,169.93,474.47,240.94c-1,71-10,142-48.86,179.41l-2.13,2.13c-37.39,38.9-108.4,47.83-179.41,48.86C173.06,470.53,102.06,461.83,64.81,422.75Z"/><path class="cls-4" d="M90.73,396.83h0c-33.46-31.9-40.92-92.71-41.61-153.52C50,182.5,57.65,121.69,91,89.66l1.83-1.83c32-33.31,92.84-40.95,153.65-41.84,60.81.69,121.62,8.15,153.52,41.61h0c33.47,31.9,40.92,92.71,41.62,153.52-.89,60.82-8.54,121.63-41.85,153.65l-1.83,1.83c-32,33.31-92.83,41-153.65,41.85C183.44,437.75,122.63,430.3,90.73,396.83Z"/><path class="cls-5" d="M95,392.61h0c-32.55-31-39.8-90.18-40.48-149.33.86-59.15,8.3-118.3,40.7-149.45L97,92.05c31.15-32.4,90.3-39.84,149.45-40.7,59.15.68,118.3,7.93,149.33,40.48h0c32.55,31,39.8,90.17,40.48,149.32-.87,59.15-8.3,118.31-40.71,149.45l-1.78,1.78c-31.14,32.4-90.3,39.84-149.45,40.7C185.13,432.41,126,425.16,95,392.61Z"/><path class="cls-6" d="M104.77,382.8h0c-30.43-29-37.21-84.3-37.84-139.59.81-55.29,7.76-110.58,38.05-139.7.55-.56,1.1-1.11,1.66-1.66,29.12-30.29,84.41-37.24,139.7-38,55.29.63,110.58,7.41,139.59,37.84h0c30.43,29,37.2,84.29,37.83,139.58-.8,55.29-7.75,110.59-38,139.7l-1.67,1.67c-29.11,30.28-84.41,37.24-139.7,38C189.06,420,133.77,413.22,104.77,382.8Z"/><path class="cls-7" d="M113,374.55h0C84.38,347.24,78,295.2,77.4,243.16c.76-52,7.31-104.1,35.81-131.51l1.57-1.57c27.41-28.5,79.46-35,131.51-35.81,52,.6,104.09,7,131.39,35.62h0c28.64,27.3,35,79.34,35.61,131.39-.76,52-7.3,104.1-35.81,131.5l-1.56,1.57c-27.41,28.51-79.46,35-131.51,35.81C192.37,409.57,140.32,403.19,113,374.55Z"/><path class="cls-8" d="M377.68,109.89h0c-27.3-28.64-79.35-35-131.39-35.62h0c49.76.57,99.53,6.67,125.63,34.06h0C399.3,134.44,405.4,184.22,406,234c-.73,49.78-7,99.56-34.26,125.77l-1.49,1.5c-26.21,27.26-76,33.52-125.77,34.25-49.77-.57-99.55-6.67-125.66-34.07h0C91.4,335.33,85.3,285.56,84.73,235.79,85.46,186,91.72,136.23,119,110l1.5-1.5c25.37-26.39,72.83-33.1,121-34.16-50.42,1.1-100.13,8.09-126.7,35.72l-1.57,1.57c-28.5,27.41-35,79.46-35.81,131.51.6,52,7,104.08,35.62,131.39h0c27.3,28.64,79.35,35,131.39,35.61,52-.76,104.1-7.3,131.51-35.81l1.56-1.57c28.51-27.4,35-79.45,35.81-131.5C412.7,189.23,406.32,137.19,377.68,109.89Z"/><path class="cls-9" d="M246.25,74.27q-2.38,0-4.77.09c1.59,0,3.19-.07,4.79-.09Z"/><ellipse class="cls-10" cx="100" cy="85.5" rx="13.11" ry="6.27" transform="translate(-31.47 80.38) rotate(-38.3)"/></g></g></svg>