<svg xmlns="http://www.w3.org/2000/svg" xmlns:xlink="http://www.w3.org/1999/xlink" viewBox="0 0 213 99"><defs><style>.cls-1{fill:none;}.cls-2{fill:#fff;}.cls-3{isolation:isolate;}.cls-4{fill:url(#linear-gradient);}.cls-5{fill:url(#linear-gradient-2);}.cls-6,.cls-8{opacity:0.53;mix-blend-mode:multiply;}.cls-6{fill:url(#linear-gradient-3);}.cls-7{fill:url(#linear-gradient-4);}.cls-8{fill:url(#linear-gradient-5);}.cls-9{fill:url(#linear-gradient-6);}.cls-10{opacity:0.44;fill:url(#linear-gradient-7);}.cls-10,.cls-12,.cls-14,.cls-19,.cls-21,.cls-22{mix-blend-mode:screen;}.cls-11{fill:url(#linear-gradient-8);}.cls-12{opacity:0.58;fill:url(#linear-gradient-9);}.cls-13{fill:url(#linear-gradient-10);}.cls-14{opacity:0.46;fill:url(#linear-gradient-11);}.cls-15,.cls-19{fill:url(#linear-gradient-12);}.cls-16{fill:url(#linear-gradient-13);}.cls-17{fill:url(#linear-gradient-14);}.cls-18{fill:url(#linear-gradient-15);}.cls-20{fill:url(#linear-gradient-17);}.cls-21{opacity:0.67;fill:url(#linear-gradient-18);}.cls-22{fill:#fffcdc;}.cls-23{fill:url(#linear-gradient-19);}.cls-24{fill:url(#linear-gradient-38);}.cls-25{fill:url(#linear-gradient-39);}.cls-26{fill:url(#linear-gradient-58);}.cls-27{opacity:0.7;mix-blend-mode:overlay;}.cls-28{fill:url(#New_Pattern_11);}</style><linearGradient id="linear-gradient" x1="104.13" y1="23.02" x2="104.13" y2="94.83" gradientUnits="userSpaceOnUse"><stop offset="0.07" stop-color="#ffc928"/><stop offset="0.25" stop-color="#ffb21f"/><stop offset="0.62" stop-color="#ff760a"/><stop offset="0.78" stop-color="#ff5b00"/></linearGradient><linearGradient id="linear-gradient-2" x1="122.61" y1="23.02" x2="122.61" y2="94.83" xlink:href="#linear-gradient"/><linearGradient id="linear-gradient-3" x1="122.61" y1="69.03" x2="122.61" y2="84.17" xlink:href="#linear-gradient"/><linearGradient id="linear-gradient-4" x1="85.23" y1="23.02" x2="85.23" y2="94.83" xlink:href="#linear-gradient"/><linearGradient id="linear-gradient-5" x1="4641.6" y1="69.66" x2="4641.6" y2="84.8" gradientTransform="matrix(-1, 0, 0, 1, 4726.83, 0)" xlink:href="#linear-gradient"/><linearGradient id="linear-gradient-6" x1="98.13" y1="23.02" x2="98.13" y2="94.83" xlink:href="#linear-gradient"/><linearGradient id="linear-gradient-7" x1="98.13" y1="13.14" x2="98.13" y2="37.26" xlink:href="#linear-gradient"/><linearGradient id="linear-gradient-8" x1="73.12" y1="23.02" x2="73.12" y2="94.83" xlink:href="#linear-gradient"/><linearGradient id="linear-gradient-9" x1="73.12" y1="32.87" x2="73.12" y2="45.13" xlink:href="#linear-gradient"/><linearGradient id="linear-gradient-10" x1="132.84" y1="23.02" x2="132.84" y2="94.83" xlink:href="#linear-gradient"/><linearGradient id="linear-gradient-11" x1="132.84" y1="32.16" x2="132.84" y2="48.13" xlink:href="#linear-gradient"/><linearGradient id="linear-gradient-12" x1="104.13" y1="26.84" x2="104.13" y2="85.82" gradientUnits="userSpaceOnUse"><stop offset="0" stop-color="#ff0"/><stop offset="0.16" stop-color="#fff300"/><stop offset="0.46" stop-color="#ffd300"/><stop offset="0.77" stop-color="#fa0"/></linearGradient><linearGradient id="linear-gradient-13" x1="84.99" y1="26.84" x2="84.99" y2="85.82" xlink:href="#linear-gradient-12"/><linearGradient id="linear-gradient-14" x1="123.27" y1="26.84" x2="123.27" y2="85.82" xlink:href="#linear-gradient-12"/><linearGradient id="linear-gradient-15" x1="80.42" y1="26.84" x2="80.42" y2="85.82" xlink:href="#linear-gradient-12"/><linearGradient id="linear-gradient-17" x1="127.84" y1="26.84" x2="127.84" y2="85.82" xlink:href="#linear-gradient-12"/><linearGradient id="linear-gradient-18" x1="99.57" y1="26.84" x2="99.57" y2="85.82" xlink:href="#linear-gradient-12"/><linearGradient id="linear-gradient-19" x1="104.13" y1="69.75" x2="104.13" y2="17.32" gradientTransform="translate(0 5)" gradientUnits="userSpaceOnUse"><stop offset="0" stop-color="#4a0000"/><stop offset="1" stop-color="#e00018"/></linearGradient><linearGradient id="linear-gradient-38" x1="104.13" y1="69.75" x2="104.13" y2="17.32" gradientTransform="translate(9.44 -24.14) rotate(16.99)" xlink:href="#linear-gradient-19"/><linearGradient id="linear-gradient-39" x1="104.13" y1="66.19" x2="104.13" y2="17.74" gradientUnits="userSpaceOnUse"><stop offset="0.01" stop-color="#fffe53"/><stop offset="1" stop-color="#fc8300"/></linearGradient><linearGradient id="linear-gradient-58" x1="104.13" y1="66.19" x2="104.13" y2="17.74" gradientTransform="translate(9.44 -29.14) rotate(16.99)" xlink:href="#linear-gradient-39"/><pattern id="New_Pattern_11" data-name="New Pattern 11" width="310" height="210" patternTransform="translate(-1497.85 1215.82) rotate(-30) scale(1.73)" patternUnits="userSpaceOnUse" viewBox="0 0 310 210"><rect class="cls-1" width="310" height="210"/><polygon class="cls-2" points="309.75 183.75 309.75 166.75 620.25 166.75 620.25 183.75 309.75 183.75"/><polygon class="cls-2" points="309.75 198.25 309.75 189.75 620.25 189.75 620.25 198.25 309.75 198.25"/><polygon class="cls-2" points="-0.25 183.75 -0.25 166.75 310.25 166.75 310.25 183.75 -0.25 183.75"/><polygon class="cls-2" points="-0.25 198.25 -0.25 189.75 310.25 189.75 310.25 198.25 -0.25 198.25"/><polygon class="cls-2" points="-310.25 183.75 -310.25 166.75 0.25 166.75 0.25 183.75 -310.25 183.75"/><polygon class="cls-2" points="-310.25 198.25 -310.25 189.75 0.25 189.75 0.25 198.25 -310.25 198.25"/><polygon class="cls-2" points="309.75 78.75 309.75 61.75 620.25 61.75 620.25 78.75 309.75 78.75"/><polygon class="cls-2" points="309.75 118.25 309.75 105.75 620.25 105.75 620.25 118.25 309.75 118.25"/><polygon class="cls-2" points="309.75 93.25 309.75 84.75 620.25 84.75 620.25 93.25 309.75 93.25"/><polygon class="cls-2" points="309.75 148.25 309.75 139.75 620.25 139.75 620.25 148.25 309.75 148.25"/><polygon class="cls-2" points="309.75 128.25 309.75 122.75 620.25 122.75 620.25 128.25 309.75 128.25"/><polygon class="cls-2" points="-0.25 78.75 -0.25 61.75 310.25 61.75 310.25 78.75 -0.25 78.75"/><polygon class="cls-2" points="-0.25 118.25 -0.25 105.75 310.25 105.75 310.25 118.25 -0.25 118.25"/><polygon class="cls-2" points="-0.25 93.25 -0.25 84.75 310.25 84.75 310.25 93.25 -0.25 93.25"/><polygon class="cls-2" points="-0.25 148.25 -0.25 139.75 310.25 139.75 310.25 148.25 -0.25 148.25"/><polygon class="cls-2" points="-0.25 128.25 -0.25 122.75 310.25 122.75 310.25 128.25 -0.25 128.25"/><polygon class="cls-2" points="-310.25 78.75 -310.25 61.75 0.25 61.75 0.25 78.75 -310.25 78.75"/><polygon class="cls-2" points="-310.25 118.25 -310.25 105.75 0.25 105.75 0.25 118.25 -310.25 118.25"/><polygon class="cls-2" points="-310.25 93.25 -310.25 84.75 0.25 84.75 0.25 93.25 -310.25 93.25"/><polygon class="cls-2" points="-310.25 148.25 -310.25 139.75 0.25 139.75 0.25 148.25 -310.25 148.25"/><polygon class="cls-2" points="-310.25 128.25 -310.25 122.75 0.25 122.75 0.25 128.25 -310.25 128.25"/><polygon class="cls-2" points="309.75 13.25 309.75 0.75 620.25 0.75 620.25 13.25 309.75 13.25"/><polygon class="cls-2" points="309.75 43.25 309.75 34.75 620.25 34.75 620.25 43.25 309.75 43.25"/><polygon class="cls-2" points="309.75 23.25 309.75 17.75 620.25 17.75 620.25 23.25 309.75 23.25"/><polygon class="cls-2" points="-0.25 13.25 -0.25 0.75 310.25 0.75 310.25 13.25 -0.25 13.25"/><polygon class="cls-2" points="-0.25 43.25 -0.25 34.75 310.25 34.75 310.25 43.25 -0.25 43.25"/><polygon class="cls-2" points="-0.25 23.25 -0.25 17.75 310.25 17.75 310.25 23.25 -0.25 23.25"/><polygon class="cls-2" points="-310.25 13.25 -310.25 0.75 0.25 0.75 0.25 13.25 -310.25 13.25"/><polygon class="cls-2" points="-310.25 43.25 -310.25 34.75 0.25 34.75 0.25 43.25 -310.25 43.25"/><polygon class="cls-2" points="-310.25 23.25 -310.25 17.75 0.25 17.75 0.25 23.25 -310.25 23.25"/></pattern></defs><title>BINTANGBSR</title><g class="cls-3"><g id="Layer_1" data-name="Layer 1"><g id="bintang"><path class="cls-4" d="M122.15,78.89a6.71,6.71,0,0,1-3.15-.78l-14.73-7.75a.35.35,0,0,0-.14,0,.28.28,0,0,0-.13,0L89.26,78.11a6.83,6.83,0,0,1-3.15.78A6.76,6.76,0,0,1,79.46,71l2.82-16.41a.31.31,0,0,0-.09-.26L70.27,42.7A6.75,6.75,0,0,1,74,31.18l16.48-2.39a.3.3,0,0,0,.22-.16L98.08,13.7a6.75,6.75,0,0,1,12.11,0l7.36,14.93a.3.3,0,0,0,.22.16l16.48,2.39A6.75,6.75,0,0,1,138,42.7L126.07,54.32a.28.28,0,0,0-.08.26L128.8,71a6.76,6.76,0,0,1-6.65,7.9Z"/><path class="cls-5" d="M126.75,72.14c-2.07-1-4.25-5.87-4.25-5.87l-6.16,2s2.59,4.44,2.94,6.5c.2,1.21-1.12,1.9-2.25,2.28l2,1a6.75,6.75,0,0,0,9.88-5.57A4,4,0,0,1,126.75,72.14Z"/><path class="cls-6" d="M126.75,72.14c-2.07-1-4.25-5.87-4.25-5.87l-6.16,2s2.59,4.44,2.94,6.5c.2,1.21-1.12,1.9-2.25,2.28l2,1a6.75,6.75,0,0,0,9.88-5.57A4,4,0,0,1,126.75,72.14Z"/><path class="cls-7" d="M88.09,75.42c.35-2.06,2.94-6.5,2.94-6.5l-6.16-2s-2.18,4.86-4.25,5.86a4,4,0,0,1-1.18.37,6.65,6.65,0,0,0,1.5,3.33,6.75,6.75,0,0,0,5.17,2.42,6.83,6.83,0,0,0,3.15-.78l.89-.47C89.07,77.25,87.9,76.56,88.09,75.42Z"/><path class="cls-8" d="M88.09,75.42c.35-2.06,2.94-6.5,2.94-6.5l-6.16-2s-2.18,4.86-4.25,5.86a4,4,0,0,1-1.18.37,6.65,6.65,0,0,0,1.5,3.33,6.75,6.75,0,0,0,5.17,2.42,6.83,6.83,0,0,0,3.15-.78l.89-.47C89.07,77.25,87.9,76.56,88.09,75.42Z"/><path class="cls-9" d="M103.75,17.07s3.41-4.72.9-7.11a4.41,4.41,0,0,0-.52,0,6.7,6.7,0,0,0-6,3.77L90.71,28.63l0,0,2.57,3.25Z"/><path class="cls-10" d="M103.75,17.07s3.41-4.72.9-7.11a4.41,4.41,0,0,0-.52,0,6.7,6.7,0,0,0-6,3.77L90.71,28.63l0,0,2.57,3.25Z"/><path class="cls-11" d="M77.1,41,78,35.2a8.83,8.83,0,0,1-4.37-.81A3.28,3.28,0,0,1,72,31.8a6.75,6.75,0,0,0-2.72,9.71l1.89-.75C74.84,39.34,77.1,41,77.1,41Z"/><path class="cls-12" d="M77.1,41,78,35.2a8.83,8.83,0,0,1-4.37-.81A3.28,3.28,0,0,1,72,31.8a6.75,6.75,0,0,0-2.72,9.71l1.89-.75C74.84,39.34,77.1,41,77.1,41Z"/><path class="cls-13" d="M139.7,35.78a6.69,6.69,0,0,0-4.45-4.37c-.94,1.33-2.83,2.85-6.92,3-7.37.31,2.73,7.13,2.73,7.13s5.42-.78,7.47.55A6.71,6.71,0,0,0,139.7,35.78Z"/><path class="cls-14" d="M139.7,35.78a6.69,6.69,0,0,0-4.45-4.37c-.94,1.33-2.83,2.85-6.92,3-7.37.31,2.73,7.13,2.73,7.13s5.42-.78,7.47.55A6.71,6.71,0,0,0,139.7,35.78Z"/><path class="cls-15" d="M118.93,72.73a5.53,5.53,0,0,1-2.59-.65l-12.1-6.36a.22.22,0,0,0-.22,0l-12.1,6.36a5.49,5.49,0,0,1-2.58.65,5.56,5.56,0,0,1-5.47-6.49l2.31-13.48a.21.21,0,0,0-.07-.21L76.32,43a5.55,5.55,0,0,1,3.07-9.46l13.54-2a.26.26,0,0,0,.18-.13l6-12.26a5.54,5.54,0,0,1,9.94,0l6.05,12.26a.26.26,0,0,0,.18.13l13.54,2A5.55,5.55,0,0,1,131.94,43l-9.79,9.54a.24.24,0,0,0-.07.21l2.31,13.48a5.53,5.53,0,0,1-1.21,4.5A5.58,5.58,0,0,1,118.93,72.73Z"/><path class="cls-16" d="M86.18,53.94a.21.21,0,0,0-.07-.21L86,53.65,83.87,66.24a5.62,5.62,0,0,0,0,1.53c0-.12,0-.24,0-.35Z"/><path class="cls-17" d="M122.08,53.94l2.31,13.48c0,.11,0,.23,0,.35a5.24,5.24,0,0,0,0-1.53l-2.16-12.59-.08.08A.23.23,0,0,0,122.08,53.94Z"/><path class="cls-18" d="M86.11,51.9l-9.79-9.55a5.5,5.5,0,0,1-1.66-3.65A5.52,5.52,0,0,0,76.32,43l9.79,9.53.07-.43A.21.21,0,0,0,86.11,51.9Z"/><path class="cls-19" d="M118.93,72.08a5.53,5.53,0,0,1-2.59-.65l-12.1-6.36a.22.22,0,0,0-.22,0l-12.1,6.36a5.5,5.5,0,0,1-6.83-1.34,5.51,5.51,0,0,1-1.29-3.25,5.49,5.49,0,0,0,1.29,3.9,5.55,5.55,0,0,0,4.25,2,5.49,5.49,0,0,0,2.58-.65L104,65.72a.22.22,0,0,1,.22,0l12.1,6.36a5.53,5.53,0,0,0,2.59.65,5.55,5.55,0,0,0,5.53-5.89,5.54,5.54,0,0,1-5.53,5.24Z"/><path class="cls-20" d="M131.94,42.35l-9.79,9.55a.23.23,0,0,0-.07.21l.07.43L131.94,43a5.52,5.52,0,0,0,1.66-4.31A5.5,5.5,0,0,1,131.94,42.35Z"/><path class="cls-21" d="M124.5,32.91l-9.17-1.33a.26.26,0,0,1-.18-.13L109.1,19.19a5.54,5.54,0,0,0-9.94,0l-6,12.26a.26.26,0,0,1-.18.13l-13.54,2A5.55,5.55,0,0,0,76.32,43l9.79,9.54a.23.23,0,0,1,.07.21C93.64,53.46,110.09,52.35,124.5,32.91Z"/><path class="cls-22" d="M79.39,34.72l13.54-2a.26.26,0,0,0,.18-.13l6-12.27a5.54,5.54,0,0,1,9.94,0l6.05,12.27a.26.26,0,0,0,.18.13l13.54,2a5.52,5.52,0,0,1,4.47,3.78,5.38,5.38,0,0,1,.24,1.18,5.56,5.56,0,0,0-4.71-6.13l-13.54-2a.26.26,0,0,1-.18-.13L109.1,19.19a5.54,5.54,0,0,0-9.94,0l-6,12.26a.26.26,0,0,1-.18.13l-13.54,2a5.5,5.5,0,0,0-4.47,3.77,5.61,5.61,0,0,0-.24,2.36,5.38,5.38,0,0,1,.24-1.18A5.53,5.53,0,0,1,79.39,34.72Z"/><ellipse class="cls-2" cx="102.26" cy="17.04" rx="1.33" ry="0.61" transform="translate(-0.52 30.63) rotate(-16.99)"/><path class="cls-23" d="M122.15,83.89a6.71,6.71,0,0,1-3.15-.78l-14.73-7.75a.35.35,0,0,0-.14,0,.28.28,0,0,0-.13,0L89.26,83.11a6.83,6.83,0,0,1-3.15.78A6.76,6.76,0,0,1,79.46,76l2.82-16.41a.31.31,0,0,0-.09-.26L70.27,47.7A6.75,6.75,0,0,1,74,36.18l16.48-2.39a.3.3,0,0,0,.22-.16L98.08,18.7a6.75,6.75,0,0,1,12.11,0l7.36,14.93a.3.3,0,0,0,.22.16l16.48,2.39A6.75,6.75,0,0,1,138,47.7L126.07,59.32a.28.28,0,0,0-.08.26L128.8,76a6.76,6.76,0,0,1-6.65,7.9Z"/><path class="cls-23" d="M126.75,77.14c-2.07-1-4.25-5.87-4.25-5.87l-6.16,2s2.59,4.44,2.94,6.5c.2,1.21-1.12,1.9-2.25,2.28l2,1a6.75,6.75,0,0,0,9.88-5.57A4,4,0,0,1,126.75,77.14Z"/><path class="cls-23" d="M126.75,77.14c-2.07-1-4.25-5.87-4.25-5.87l-6.16,2s2.59,4.44,2.94,6.5c.2,1.21-1.12,1.9-2.25,2.28l2,1a6.75,6.75,0,0,0,9.88-5.57A4,4,0,0,1,126.75,77.14Z"/><path class="cls-23" d="M88.09,80.42c.35-2.06,2.94-6.5,2.94-6.5l-6.16-2s-2.18,4.86-4.25,5.86a4,4,0,0,1-1.18.37,6.65,6.65,0,0,0,1.5,3.33,6.75,6.75,0,0,0,5.17,2.42,6.83,6.83,0,0,0,3.15-.78l.89-.47C89.07,82.25,87.9,81.56,88.09,80.42Z"/><path class="cls-23" d="M88.09,80.42c.35-2.06,2.94-6.5,2.94-6.5l-6.16-2s-2.18,4.86-4.25,5.86a4,4,0,0,1-1.18.37,6.65,6.65,0,0,0,1.5,3.33,6.75,6.75,0,0,0,5.17,2.42,6.83,6.83,0,0,0,3.15-.78l.89-.47C89.07,82.25,87.9,81.56,88.09,80.42Z"/><path class="cls-23" d="M103.75,22.07s3.41-4.72.9-7.11a4.41,4.41,0,0,0-.52,0,6.7,6.7,0,0,0-6,3.77L90.71,33.63l0,0,2.57,3.25Z"/><path class="cls-23" d="M103.75,22.07s3.41-4.72.9-7.11a4.41,4.41,0,0,0-.52,0,6.7,6.7,0,0,0-6,3.77L90.71,33.63l0,0,2.57,3.25Z"/><path class="cls-23" d="M77.1,46,78,40.2a8.83,8.83,0,0,1-4.37-.81A3.28,3.28,0,0,1,72,36.8a6.75,6.75,0,0,0-2.72,9.71l1.89-.75C74.84,44.34,77.1,46,77.1,46Z"/><path class="cls-23" d="M77.1,46,78,40.2a8.83,8.83,0,0,1-4.37-.81A3.28,3.28,0,0,1,72,36.8a6.75,6.75,0,0,0-2.72,9.71l1.89-.75C74.84,44.34,77.1,46,77.1,46Z"/><path class="cls-23" d="M139.7,40.78a6.69,6.69,0,0,0-4.45-4.37c-.94,1.33-2.83,2.85-6.92,3-7.37.31,2.73,7.13,2.73,7.13s5.42-.78,7.47.55A6.71,6.71,0,0,0,139.7,40.78Z"/><path class="cls-23" d="M139.7,40.78a6.69,6.69,0,0,0-4.45-4.37c-.94,1.33-2.83,2.85-6.92,3-7.37.31,2.73,7.13,2.73,7.13s5.42-.78,7.47.55A6.71,6.71,0,0,0,139.7,40.78Z"/><path class="cls-23" d="M118.93,77.73a5.53,5.53,0,0,1-2.59-.65l-12.1-6.36a.22.22,0,0,0-.22,0l-12.1,6.36a5.49,5.49,0,0,1-2.58.65,5.56,5.56,0,0,1-5.47-6.49l2.31-13.48a.21.21,0,0,0-.07-.21L76.32,48a5.55,5.55,0,0,1,3.07-9.46l13.54-2a.26.26,0,0,0,.18-.13l6-12.26a5.54,5.54,0,0,1,9.94,0l6.05,12.26a.26.26,0,0,0,.18.13l13.54,2A5.55,5.55,0,0,1,131.94,48l-9.79,9.54a.24.24,0,0,0-.07.21l2.31,13.48a5.53,5.53,0,0,1-1.21,4.5A5.58,5.58,0,0,1,118.93,77.73Z"/><path class="cls-23" d="M86.18,58.94a.21.21,0,0,0-.07-.21L86,58.65,83.87,71.24a5.62,5.62,0,0,0,0,1.53c0-.12,0-.24,0-.35Z"/><path class="cls-23" d="M122.08,58.94l2.31,13.48c0,.11,0,.23,0,.35a5.24,5.24,0,0,0,0-1.53l-2.16-12.59-.08.08A.23.23,0,0,0,122.08,58.94Z"/><path class="cls-23" d="M86.11,56.9l-9.79-9.55a5.5,5.5,0,0,1-1.66-3.65A5.52,5.52,0,0,0,76.32,48l9.79,9.53.07-.43A.21.21,0,0,0,86.11,56.9Z"/><path class="cls-23" d="M118.93,77.08a5.53,5.53,0,0,1-2.59-.65l-12.1-6.36a.22.22,0,0,0-.22,0l-12.1,6.36a5.5,5.5,0,0,1-6.83-1.34,5.51,5.51,0,0,1-1.29-3.25,5.49,5.49,0,0,0,1.29,3.9,5.55,5.55,0,0,0,4.25,2,5.49,5.49,0,0,0,2.58-.65L104,70.72a.22.22,0,0,1,.22,0l12.1,6.36a5.53,5.53,0,0,0,2.59.65,5.55,5.55,0,0,0,5.53-5.89,5.54,5.54,0,0,1-5.53,5.24Z"/><path class="cls-23" d="M131.94,47.35l-9.79,9.55a.23.23,0,0,0-.07.21l.07.43L131.94,48a5.52,5.52,0,0,0,1.66-4.31A5.5,5.5,0,0,1,131.94,47.35Z"/><path class="cls-23" d="M124.5,37.91l-9.17-1.33a.26.26,0,0,1-.18-.13L109.1,24.19a5.54,5.54,0,0,0-9.94,0l-6,12.26a.26.26,0,0,1-.18.13l-13.54,2A5.55,5.55,0,0,0,76.32,48l9.79,9.54a.23.23,0,0,1,.07.21C93.64,58.46,110.09,57.35,124.5,37.91Z"/><path class="cls-23" d="M79.39,39.72l13.54-2a.26.26,0,0,0,.18-.13l6-12.27a5.54,5.54,0,0,1,9.94,0l6.05,12.27a.26.26,0,0,0,.18.13l13.54,2a5.52,5.52,0,0,1,4.47,3.78,5.38,5.38,0,0,1,.24,1.18,5.56,5.56,0,0,0-4.71-6.13l-13.54-2a.26.26,0,0,1-.18-.13L109.1,24.19a5.54,5.54,0,0,0-9.94,0l-6,12.26a.26.26,0,0,1-.18.13l-13.54,2a5.5,5.5,0,0,0-4.47,3.77,5.61,5.61,0,0,0-.24,2.36,5.38,5.38,0,0,1,.24-1.18A5.53,5.53,0,0,1,79.39,39.72Z"/><ellipse class="cls-24" cx="102.26" cy="22.04" rx="1.33" ry="0.61" transform="translate(-1.98 30.85) rotate(-16.99)"/><path class="cls-25" d="M122.15,78.89a6.71,6.71,0,0,1-3.15-.78l-14.73-7.75a.35.35,0,0,0-.14,0,.28.28,0,0,0-.13,0L89.26,78.11a6.83,6.83,0,0,1-3.15.78A6.76,6.76,0,0,1,79.46,71l2.82-16.41a.31.31,0,0,0-.09-.26L70.27,42.7A6.75,6.75,0,0,1,74,31.18l16.48-2.39a.3.3,0,0,0,.22-.16L98.08,13.7a6.75,6.75,0,0,1,12.11,0l7.36,14.93a.3.3,0,0,0,.22.16l16.48,2.39A6.75,6.75,0,0,1,138,42.7L126.07,54.32a.28.28,0,0,0-.08.26L128.8,71a6.76,6.76,0,0,1-6.65,7.9Z"/><path class="cls-25" d="M126.75,72.14c-2.07-1-4.25-5.87-4.25-5.87l-6.16,2s2.59,4.44,2.94,6.5c.2,1.21-1.12,1.9-2.25,2.28l2,1a6.75,6.75,0,0,0,9.88-5.57A4,4,0,0,1,126.75,72.14Z"/><path class="cls-25" d="M126.75,72.14c-2.07-1-4.25-5.87-4.25-5.87l-6.16,2s2.59,4.44,2.94,6.5c.2,1.21-1.12,1.9-2.25,2.28l2,1a6.75,6.75,0,0,0,9.88-5.57A4,4,0,0,1,126.75,72.14Z"/><path class="cls-25" d="M88.09,75.42c.35-2.06,2.94-6.5,2.94-6.5l-6.16-2s-2.18,4.86-4.25,5.86a4,4,0,0,1-1.18.37,6.65,6.65,0,0,0,1.5,3.33,6.75,6.75,0,0,0,5.17,2.42,6.83,6.83,0,0,0,3.15-.78l.89-.47C89.07,77.25,87.9,76.56,88.09,75.42Z"/><path class="cls-25" d="M88.09,75.42c.35-2.06,2.94-6.5,2.94-6.5l-6.16-2s-2.18,4.86-4.25,5.86a4,4,0,0,1-1.18.37,6.65,6.65,0,0,0,1.5,3.33,6.75,6.75,0,0,0,5.17,2.42,6.83,6.83,0,0,0,3.15-.78l.89-.47C89.07,77.25,87.9,76.56,88.09,75.42Z"/><path class="cls-25" d="M103.75,17.07s3.41-4.72.9-7.11a4.41,4.41,0,0,0-.52,0,6.7,6.7,0,0,0-6,3.77L90.71,28.63l0,0,2.57,3.25Z"/><path class="cls-25" d="M103.75,17.07s3.41-4.72.9-7.11a4.41,4.41,0,0,0-.52,0,6.7,6.7,0,0,0-6,3.77L90.71,28.63l0,0,2.57,3.25Z"/><path class="cls-25" d="M77.1,41,78,35.2a8.83,8.83,0,0,1-4.37-.81A3.28,3.28,0,0,1,72,31.8a6.75,6.75,0,0,0-2.72,9.71l1.89-.75C74.84,39.34,77.1,41,77.1,41Z"/><path class="cls-25" d="M77.1,41,78,35.2a8.83,8.83,0,0,1-4.37-.81A3.28,3.28,0,0,1,72,31.8a6.75,6.75,0,0,0-2.72,9.71l1.89-.75C74.84,39.34,77.1,41,77.1,41Z"/><path class="cls-25" d="M139.7,35.78a6.69,6.69,0,0,0-4.45-4.37c-.94,1.33-2.83,2.85-6.92,3-7.37.31,2.73,7.13,2.73,7.13s5.42-.78,7.47.55A6.71,6.71,0,0,0,139.7,35.78Z"/><path class="cls-25" d="M139.7,35.78a6.69,6.69,0,0,0-4.45-4.37c-.94,1.33-2.83,2.85-6.92,3-7.37.31,2.73,7.13,2.73,7.13s5.42-.78,7.47.55A6.71,6.71,0,0,0,139.7,35.78Z"/><path class="cls-25" d="M118.93,72.73a5.53,5.53,0,0,1-2.59-.65l-12.1-6.36a.22.22,0,0,0-.22,0l-12.1,6.36a5.49,5.49,0,0,1-2.58.65,5.56,5.56,0,0,1-5.47-6.49l2.31-13.48a.21.21,0,0,0-.07-.21L76.32,43a5.55,5.55,0,0,1,3.07-9.46l13.54-2a.26.26,0,0,0,.18-.13l6-12.26a5.54,5.54,0,0,1,9.94,0l6.05,12.26a.26.26,0,0,0,.18.13l13.54,2A5.55,5.55,0,0,1,131.94,43l-9.79,9.54a.24.24,0,0,0-.07.21l2.31,13.48a5.53,5.53,0,0,1-1.21,4.5A5.58,5.58,0,0,1,118.93,72.73Z"/><path class="cls-25" d="M86.18,53.94a.21.21,0,0,0-.07-.21L86,53.65,83.87,66.24a5.62,5.62,0,0,0,0,1.53c0-.12,0-.24,0-.35Z"/><path class="cls-25" d="M122.08,53.94l2.31,13.48c0,.11,0,.23,0,.35a5.24,5.24,0,0,0,0-1.53l-2.16-12.59-.08.08A.23.23,0,0,0,122.08,53.94Z"/><path class="cls-25" d="M86.11,51.9l-9.79-9.55a5.5,5.5,0,0,1-1.66-3.65A5.52,5.52,0,0,0,76.32,43l9.79,9.53.07-.43A.21.21,0,0,0,86.11,51.9Z"/><path class="cls-25" d="M118.93,72.08a5.53,5.53,0,0,1-2.59-.65l-12.1-6.36a.22.22,0,0,0-.22,0l-12.1,6.36a5.5,5.5,0,0,1-6.83-1.34,5.51,5.51,0,0,1-1.29-3.25,5.49,5.49,0,0,0,1.29,3.9,5.55,5.55,0,0,0,4.25,2,5.49,5.49,0,0,0,2.58-.65L104,65.72a.22.22,0,0,1,.22,0l12.1,6.36a5.53,5.53,0,0,0,2.59.65,5.55,5.55,0,0,0,5.53-5.89,5.54,5.54,0,0,1-5.53,5.24Z"/><path class="cls-25" d="M131.94,42.35l-9.79,9.55a.23.23,0,0,0-.07.21l.07.43L131.94,43a5.52,5.52,0,0,0,1.66-4.31A5.5,5.5,0,0,1,131.94,42.35Z"/><path class="cls-25" d="M124.5,32.91l-9.17-1.33a.26.26,0,0,1-.18-.13L109.1,19.19a5.54,5.54,0,0,0-9.94,0l-6,12.26a.26.26,0,0,1-.18.13l-13.54,2A5.55,5.55,0,0,0,76.32,43l9.79,9.54a.23.23,0,0,1,.07.21C93.64,53.46,110.09,52.35,124.5,32.91Z"/><path class="cls-25" d="M79.39,34.72l13.54-2a.26.26,0,0,0,.18-.13l6-12.27a5.54,5.54,0,0,1,9.94,0l6.05,12.27a.26.26,0,0,0,.18.13l13.54,2a5.52,5.52,0,0,1,4.47,3.78,5.38,5.38,0,0,1,.24,1.18,5.56,5.56,0,0,0-4.71-6.13l-13.54-2a.26.26,0,0,1-.18-.13L109.1,19.19a5.54,5.54,0,0,0-9.94,0l-6,12.26a.26.26,0,0,1-.18.13l-13.54,2a5.5,5.5,0,0,0-4.47,3.77,5.61,5.61,0,0,0-.24,2.36,5.38,5.38,0,0,1,.24-1.18A5.53,5.53,0,0,1,79.39,34.72Z"/><ellipse class="cls-26" cx="102.26" cy="17.04" rx="1.33" ry="0.61" transform="translate(-0.52 30.63) rotate(-16.99)"/><g class="cls-27"><path class="cls-28" d="M122.15,78.89a6.71,6.71,0,0,1-3.15-.78l-14.73-7.75a.35.35,0,0,0-.14,0,.28.28,0,0,0-.13,0L89.26,78.11a6.83,6.83,0,0,1-3.15.78A6.76,6.76,0,0,1,79.46,71l2.82-16.41a.31.31,0,0,0-.09-.26L70.27,42.7A6.75,6.75,0,0,1,74,31.18l16.48-2.39a.3.3,0,0,0,.22-.16L98.08,13.7a6.75,6.75,0,0,1,12.11,0l7.36,14.93a.3.3,0,0,0,.22.16l16.48,2.39A6.75,6.75,0,0,1,138,42.7L126.07,54.32a.28.28,0,0,0-.08.26L128.8,71a6.76,6.76,0,0,1-6.65,7.9Z"/><path class="cls-28" d="M126.75,72.14c-2.07-1-4.25-5.87-4.25-5.87l-6.16,2s2.59,4.44,2.94,6.5c.2,1.21-1.12,1.9-2.25,2.28l2,1a6.75,6.75,0,0,0,9.88-5.57A4,4,0,0,1,126.75,72.14Z"/><path class="cls-28" d="M126.75,72.14c-2.07-1-4.25-5.87-4.25-5.87l-6.16,2s2.59,4.44,2.94,6.5c.2,1.21-1.12,1.9-2.25,2.28l2,1a6.75,6.75,0,0,0,9.88-5.57A4,4,0,0,1,126.75,72.14Z"/><path class="cls-28" d="M88.09,75.42c.35-2.06,2.94-6.5,2.94-6.5l-6.16-2s-2.18,4.86-4.25,5.86a4,4,0,0,1-1.18.37,6.65,6.65,0,0,0,1.5,3.33,6.75,6.75,0,0,0,5.17,2.42,6.83,6.83,0,0,0,3.15-.78l.89-.47C89.07,77.25,87.9,76.56,88.09,75.42Z"/><path class="cls-28" d="M88.09,75.42c.35-2.06,2.94-6.5,2.94-6.5l-6.16-2s-2.18,4.86-4.25,5.86a4,4,0,0,1-1.18.37,6.65,6.65,0,0,0,1.5,3.33,6.75,6.75,0,0,0,5.17,2.42,6.83,6.83,0,0,0,3.15-.78l.89-.47C89.07,77.25,87.9,76.56,88.09,75.42Z"/><path class="cls-28" d="M103.75,17.07s3.41-4.72.9-7.11a4.41,4.41,0,0,0-.52,0,6.7,6.7,0,0,0-6,3.77L90.71,28.63l0,0,2.57,3.25Z"/><path class="cls-28" d="M103.75,17.07s3.41-4.72.9-7.11a4.41,4.41,0,0,0-.52,0,6.7,6.7,0,0,0-6,3.77L90.71,28.63l0,0,2.57,3.25Z"/><path class="cls-28" d="M77.1,41,78,35.2a8.83,8.83,0,0,1-4.37-.81A3.28,3.28,0,0,1,72,31.8a6.75,6.75,0,0,0-2.72,9.71l1.89-.75C74.84,39.34,77.1,41,77.1,41Z"/><path class="cls-28" d="M77.1,41,78,35.2a8.83,8.83,0,0,1-4.37-.81A3.28,3.28,0,0,1,72,31.8a6.75,6.75,0,0,0-2.72,9.71l1.89-.75C74.84,39.34,77.1,41,77.1,41Z"/><path class="cls-28" d="M139.7,35.78a6.69,6.69,0,0,0-4.45-4.37c-.94,1.33-2.83,2.85-6.92,3-7.37.31,2.73,7.13,2.73,7.13s5.42-.78,7.47.55A6.71,6.71,0,0,0,139.7,35.78Z"/><path class="cls-28" d="M139.7,35.78a6.69,6.69,0,0,0-4.45-4.37c-.94,1.33-2.83,2.85-6.92,3-7.37.31,2.73,7.13,2.73,7.13s5.42-.78,7.47.55A6.71,6.71,0,0,0,139.7,35.78Z"/><path class="cls-28" d="M118.93,72.73a5.53,5.53,0,0,1-2.59-.65l-12.1-6.36a.22.22,0,0,0-.22,0l-12.1,6.36a5.49,5.49,0,0,1-2.58.65,5.56,5.56,0,0,1-5.47-6.49l2.31-13.48a.21.21,0,0,0-.07-.21L76.32,43a5.55,5.55,0,0,1,3.07-9.46l13.54-2a.26.26,0,0,0,.18-.13l6-12.26a5.54,5.54,0,0,1,9.94,0l6.05,12.26a.26.26,0,0,0,.18.13l13.54,2A5.55,5.55,0,0,1,131.94,43l-9.79,9.54a.24.24,0,0,0-.07.21l2.31,13.48a5.53,5.53,0,0,1-1.21,4.5A5.58,5.58,0,0,1,118.93,72.73Z"/><path class="cls-28" d="M86.18,53.94a.21.21,0,0,0-.07-.21L86,53.65,83.87,66.24a5.62,5.62,0,0,0,0,1.53c0-.12,0-.24,0-.35Z"/><path class="cls-28" d="M122.08,53.94l2.31,13.48c0,.11,0,.23,0,.35a5.24,5.24,0,0,0,0-1.53l-2.16-12.59-.08.08A.23.23,0,0,0,122.08,53.94Z"/><path class="cls-28" d="M86.11,51.9l-9.79-9.55a5.5,5.5,0,0,1-1.66-3.65A5.52,5.52,0,0,0,76.32,43l9.79,9.53.07-.43A.21.21,0,0,0,86.11,51.9Z"/><path class="cls-28" d="M118.93,72.08a5.53,5.53,0,0,1-2.59-.65l-12.1-6.36a.22.22,0,0,0-.22,0l-12.1,6.36a5.5,5.5,0,0,1-6.83-1.34,5.51,5.51,0,0,1-1.29-3.25,5.49,5.49,0,0,0,1.29,3.9,5.55,5.55,0,0,0,4.25,2,5.49,5.49,0,0,0,2.58-.65L104,65.72a.22.22,0,0,1,.22,0l12.1,6.36a5.53,5.53,0,0,0,2.59.65,5.55,5.55,0,0,0,5.53-5.89,5.54,5.54,0,0,1-5.53,5.24Z"/><path class="cls-28" d="M131.94,42.35l-9.79,9.55a.23.23,0,0,0-.07.21l.07.43L131.94,43a5.52,5.52,0,0,0,1.66-4.31A5.5,5.5,0,0,1,131.94,42.35Z"/><path class="cls-28" d="M124.5,32.91l-9.17-1.33a.26.26,0,0,1-.18-.13L109.1,19.19a5.54,5.54,0,0,0-9.94,0l-6,12.26a.26.26,0,0,1-.18.13l-13.54,2A5.55,5.55,0,0,0,76.32,43l9.79,9.54a.23.23,0,0,1,.07.21C93.64,53.46,110.09,52.35,124.5,32.91Z"/><path class="cls-28" d="M79.39,34.72l13.54-2a.26.26,0,0,0,.18-.13l6-12.27a5.54,5.54,0,0,1,9.94,0l6.05,12.27a.26.26,0,0,0,.18.13l13.54,2a5.52,5.52,0,0,1,4.47,3.78,5.38,5.38,0,0,1,.24,1.18,5.56,5.56,0,0,0-4.71-6.13l-13.54-2a.26.26,0,0,1-.18-.13L109.1,19.19a5.54,5.54,0,0,0-9.94,0l-6,12.26a.26.26,0,0,1-.18.13l-13.54,2a5.5,5.5,0,0,0-4.47,3.77,5.61,5.61,0,0,0-.24,2.36,5.38,5.38,0,0,1,.24-1.18A5.53,5.53,0,0,1,79.39,34.72Z"/><ellipse class="cls-28" cx="102.26" cy="17.04" rx="1.33" ry="0.61" transform="translate(-0.52 30.63) rotate(-16.99)"/></g></g></g></g></svg>