<svg xmlns="http://www.w3.org/2000/svg" xmlns:xlink="http://www.w3.org/1999/xlink" viewBox="0 0 213 57"><defs><style>.cls-1{isolation:isolate;}.cls-2{fill:url(#linear-gradient);}.cls-3{fill:url(#linear-gradient-2);}.cls-24,.cls-26,.cls-4,.cls-6{opacity:0.53;mix-blend-mode:multiply;}.cls-4{fill:url(#linear-gradient-3);}.cls-5{fill:url(#linear-gradient-4);}.cls-6{fill:url(#linear-gradient-5);}.cls-7{fill:url(#linear-gradient-6);}.cls-28,.cls-8{opacity:0.44;}.cls-10,.cls-12,.cls-17,.cls-19,.cls-20,.cls-28,.cls-30,.cls-32,.cls-37,.cls-39,.cls-8{mix-blend-mode:screen;}.cls-8{fill:url(#linear-gradient-7);}.cls-9{fill:url(#linear-gradient-8);}.cls-10,.cls-30{opacity:0.58;}.cls-10{fill:url(#linear-gradient-9);}.cls-11{fill:url(#linear-gradient-10);}.cls-12,.cls-32{opacity:0.46;}.cls-12{fill:url(#linear-gradient-11);}.cls-13,.cls-17{fill:url(#linear-gradient-12);}.cls-14{fill:url(#linear-gradient-13);}.cls-15{fill:url(#linear-gradient-14);}.cls-16{fill:url(#linear-gradient-15);}.cls-18{fill:url(#linear-gradient-17);}.cls-19,.cls-39{opacity:0.67;}.cls-19{fill:url(#linear-gradient-18);}.cls-20{fill:#fffcdc;}.cls-21{fill:#fff;}.cls-22{fill:url(#linear-gradient-19);}.cls-23{fill:url(#linear-gradient-20);}.cls-24{fill:url(#linear-gradient-21);}.cls-25{fill:url(#linear-gradient-22);}.cls-26{fill:url(#linear-gradient-23);}.cls-27{fill:url(#linear-gradient-24);}.cls-28{fill:url(#linear-gradient-25);}.cls-29{fill:url(#linear-gradient-26);}.cls-30{fill:url(#linear-gradient-27);}.cls-31{fill:url(#linear-gradient-28);}.cls-32{fill:url(#linear-gradient-29);}.cls-33,.cls-37{fill:url(#linear-gradient-30);}.cls-34{fill:url(#linear-gradient-31);}.cls-35{fill:url(#linear-gradient-32);}.cls-36{fill:url(#linear-gradient-33);}.cls-38{fill:url(#linear-gradient-35);}.cls-39{fill:url(#linear-gradient-36);}</style><linearGradient id="linear-gradient" x1="45.14" y1="20.51" x2="45.14" y2="58.79" gradientUnits="userSpaceOnUse"><stop offset="0.07" stop-color="#ffc928"/><stop offset="0.25" stop-color="#ffb21f"/><stop offset="0.62" stop-color="#ff760a"/><stop offset="0.78" stop-color="#ff5b00"/></linearGradient><linearGradient id="linear-gradient-2" x1="54.99" y1="20.51" x2="54.99" y2="58.79" xlink:href="#linear-gradient"/><linearGradient id="linear-gradient-3" x1="54.99" y1="45.04" x2="54.99" y2="53.1" xlink:href="#linear-gradient"/><linearGradient id="linear-gradient-4" x1="35.06" y1="20.51" x2="35.06" y2="58.79" xlink:href="#linear-gradient"/><linearGradient id="linear-gradient-5" x1="4691.76" y1="45.37" x2="4691.76" y2="53.44" gradientTransform="matrix(-1, 0, 0, 1, 4726.83, 0)" xlink:href="#linear-gradient"/><linearGradient id="linear-gradient-6" x1="41.94" y1="20.51" x2="41.94" y2="58.79" xlink:href="#linear-gradient"/><linearGradient id="linear-gradient-7" x1="41.94" y1="15.24" x2="41.94" y2="28.1" xlink:href="#linear-gradient"/><linearGradient id="linear-gradient-8" x1="28.61" y1="20.51" x2="28.61" y2="58.79" xlink:href="#linear-gradient"/><linearGradient id="linear-gradient-9" x1="28.61" y1="25.76" x2="28.61" y2="32.29" xlink:href="#linear-gradient"/><linearGradient id="linear-gradient-10" x1="60.44" y1="20.51" x2="60.44" y2="58.79" xlink:href="#linear-gradient"/><linearGradient id="linear-gradient-11" x1="60.44" y1="25.38" x2="60.44" y2="33.9" xlink:href="#linear-gradient"/><linearGradient id="linear-gradient-12" x1="45.14" y1="22.55" x2="45.14" y2="53.98" gradientUnits="userSpaceOnUse"><stop offset="0" stop-color="#ff0"/><stop offset="0.16" stop-color="#fff300"/><stop offset="0.46" stop-color="#ffd300"/><stop offset="0.77" stop-color="#fa0"/></linearGradient><linearGradient id="linear-gradient-13" x1="34.93" y1="22.55" x2="34.93" y2="53.98" xlink:href="#linear-gradient-12"/><linearGradient id="linear-gradient-14" x1="55.34" y1="22.55" x2="55.34" y2="53.98" xlink:href="#linear-gradient-12"/><linearGradient id="linear-gradient-15" x1="32.5" y1="22.55" x2="32.5" y2="53.98" xlink:href="#linear-gradient-12"/><linearGradient id="linear-gradient-17" x1="57.78" y1="22.55" x2="57.78" y2="53.98" xlink:href="#linear-gradient-12"/><linearGradient id="linear-gradient-18" x1="42.71" y1="22.55" x2="42.71" y2="53.98" xlink:href="#linear-gradient-12"/><linearGradient id="linear-gradient-19" x1="163.12" y1="20.51" x2="163.12" y2="58.79" xlink:href="#linear-gradient"/><linearGradient id="linear-gradient-20" x1="172.98" y1="20.51" x2="172.98" y2="58.79" xlink:href="#linear-gradient"/><linearGradient id="linear-gradient-21" x1="172.98" y1="45.04" x2="172.98" y2="53.1" xlink:href="#linear-gradient"/><linearGradient id="linear-gradient-22" x1="153.05" y1="20.51" x2="153.05" y2="58.79" xlink:href="#linear-gradient"/><linearGradient id="linear-gradient-23" x1="4573.78" y1="45.37" x2="4573.78" y2="53.44" gradientTransform="matrix(-1, 0, 0, 1, 4726.83, 0)" xlink:href="#linear-gradient"/><linearGradient id="linear-gradient-24" x1="159.92" y1="20.51" x2="159.92" y2="58.79" xlink:href="#linear-gradient"/><linearGradient id="linear-gradient-25" x1="159.92" y1="15.24" x2="159.92" y2="28.1" xlink:href="#linear-gradient"/><linearGradient id="linear-gradient-26" x1="146.6" y1="20.51" x2="146.6" y2="58.79" xlink:href="#linear-gradient"/><linearGradient id="linear-gradient-27" x1="146.6" y1="25.76" x2="146.6" y2="32.29" xlink:href="#linear-gradient"/><linearGradient id="linear-gradient-28" x1="178.43" y1="20.51" x2="178.43" y2="58.79" xlink:href="#linear-gradient"/><linearGradient id="linear-gradient-29" x1="178.43" y1="25.38" x2="178.43" y2="33.9" xlink:href="#linear-gradient"/><linearGradient id="linear-gradient-30" x1="163.12" y1="22.55" x2="163.12" y2="53.98" xlink:href="#linear-gradient-12"/><linearGradient id="linear-gradient-31" x1="152.92" y1="22.55" x2="152.92" y2="53.98" xlink:href="#linear-gradient-12"/><linearGradient id="linear-gradient-32" x1="173.33" y1="22.55" x2="173.33" y2="53.98" xlink:href="#linear-gradient-12"/><linearGradient id="linear-gradient-33" x1="150.48" y1="22.55" x2="150.48" y2="53.98" xlink:href="#linear-gradient-12"/><linearGradient id="linear-gradient-35" x1="175.76" y1="22.55" x2="175.76" y2="53.98" xlink:href="#linear-gradient-12"/><linearGradient id="linear-gradient-36" x1="160.69" y1="22.55" x2="160.69" y2="53.98" xlink:href="#linear-gradient-12"/></defs><title>BINTANGKCL</title><g class="cls-1"><g id="Layer_1" data-name="Layer 1"><path class="cls-2" d="M54.74,50.29a3.58,3.58,0,0,1-1.68-.42l-7.85-4.13h-.15l-7.85,4.13a3.55,3.55,0,0,1-1.68.42A3.62,3.62,0,0,1,32.77,49,3.58,3.58,0,0,1,32,46.08l1.5-8.75a.16.16,0,0,0-.05-.14L27.09,31a3.6,3.6,0,0,1,2-6.14l8.78-1.28A.13.13,0,0,0,38,23.5l3.93-8a3.59,3.59,0,0,1,6.45,0l3.93,8a.13.13,0,0,0,.12.08l8.78,1.28a3.6,3.6,0,0,1,2,6.14l-6.36,6.2a.12.12,0,0,0,0,.13l1.5,8.75a3.6,3.6,0,0,1-3.55,4.21Z"/><path class="cls-3" d="M57.2,46.69c-1.11-.53-2.27-3.12-2.27-3.12l-3.28,1.07a16.75,16.75,0,0,1,1.56,3.46c.11.65-.6,1-1.2,1.22l1.05.55A3.59,3.59,0,0,0,57.5,49a3.53,3.53,0,0,0,.83-2.09A2.06,2.06,0,0,1,57.2,46.69Z"/><path class="cls-4" d="M57.2,46.69c-1.11-.53-2.27-3.12-2.27-3.12l-3.28,1.07a16.75,16.75,0,0,1,1.56,3.46c.11.65-.6,1-1.2,1.22l1.05.55A3.59,3.59,0,0,0,57.5,49a3.53,3.53,0,0,0,.83-2.09A2.06,2.06,0,0,1,57.2,46.69Z"/><path class="cls-5" d="M36.59,48.44A16.49,16.49,0,0,1,38.15,45L34.87,43.9S33.71,46.5,32.6,47a2.08,2.08,0,0,1-.63.2,3.58,3.58,0,0,0,.8,1.77,3.62,3.62,0,0,0,2.76,1.29,3.55,3.55,0,0,0,1.68-.42l.48-.25C37.11,49.42,36.48,49.05,36.59,48.44Z"/><path class="cls-6" d="M36.59,48.44A16.49,16.49,0,0,1,38.15,45L34.87,43.9S33.71,46.5,32.6,47a2.08,2.08,0,0,1-.63.2,3.58,3.58,0,0,0,.8,1.77,3.62,3.62,0,0,0,2.76,1.29,3.55,3.55,0,0,0,1.68-.42l.48-.25C37.11,49.42,36.48,49.05,36.59,48.44Z"/><path class="cls-7" d="M44.93,17.34s1.82-2.52.48-3.79l-.27,0a3.58,3.58,0,0,0-3.23,2L38,23.5s0,0,0,0l1.37,1.73Z"/><path class="cls-8" d="M44.93,17.34s1.82-2.52.48-3.79l-.27,0a3.58,3.58,0,0,0-3.23,2L38,23.5s0,0,0,0l1.37,1.73Z"/><path class="cls-9" d="M30.73,30.09,31.22,27a4.75,4.75,0,0,1-2.33-.43A1.72,1.72,0,0,1,28,25.19a3.61,3.61,0,0,0-1.45,5.18l1-.41A3.4,3.4,0,0,1,30.73,30.09Z"/><path class="cls-10" d="M30.73,30.09,31.22,27a4.75,4.75,0,0,1-2.33-.43A1.72,1.72,0,0,1,28,25.19a3.61,3.61,0,0,0-1.45,5.18l1-.41A3.4,3.4,0,0,1,30.73,30.09Z"/><path class="cls-11" d="M64.1,27.31A3.58,3.58,0,0,0,61.72,25c-.49.71-1.5,1.52-3.69,1.61-3.92.16,1.46,3.8,1.46,3.8s2.89-.42,4,.3A3.58,3.58,0,0,0,64.1,27.31Z"/><path class="cls-12" d="M64.1,27.31A3.58,3.58,0,0,0,61.72,25c-.49.71-1.5,1.52-3.69,1.61-3.92.16,1.46,3.8,1.46,3.8s2.89-.42,4,.3A3.58,3.58,0,0,0,64.1,27.31Z"/><path class="cls-13" d="M53,47a2.88,2.88,0,0,1-1.37-.35L45.2,43.27h-.12l-6.45,3.39a3,3,0,0,1-1.38.35,2.95,2.95,0,0,1-2.91-3.46l1.23-7.19a.12.12,0,0,0,0-.11l-5.22-5.09a3,3,0,0,1,1.64-5l7.21-1.05a.11.11,0,0,0,.1-.07l3.23-6.53a3,3,0,0,1,5.3,0L51,25a.12.12,0,0,0,.1.07l7.21,1.05a3,3,0,0,1,1.64,5l-5.22,5.09a.15.15,0,0,0,0,.11l1.24,7.19A3,3,0,0,1,53,47Z"/><path class="cls-14" d="M35.57,37a.12.12,0,0,0,0-.11l0-.05-1.15,6.72a3.22,3.22,0,0,0,0,.82l0-.2Z"/><path class="cls-15" d="M54.7,37l1.24,7.18c0,.07,0,.13,0,.2a3.22,3.22,0,0,0,0-.82l-1.15-6.72,0,.05A.15.15,0,0,0,54.7,37Z"/><path class="cls-16" d="M35.53,35.9l-5.22-5.08a3,3,0,0,1-.88-1.95,2.9,2.9,0,0,0,.88,2.29l5.22,5.09,0-.23A.13.13,0,0,0,35.53,35.9Z"/><path class="cls-17" d="M53,46.66a3,3,0,0,1-1.37-.34l-6.45-3.4h-.12l-6.45,3.4a3.06,3.06,0,0,1-1.38.34A3,3,0,0,1,35,45.6a2.92,2.92,0,0,1-.68-1.73A2.93,2.93,0,0,0,35,46,3,3,0,0,0,37.25,47a3,3,0,0,0,1.38-.35l6.45-3.39h.12l6.45,3.39A2.88,2.88,0,0,0,53,47,3,3,0,0,0,55.29,46,2.93,2.93,0,0,0,56,43.87a2.92,2.92,0,0,1-.68,1.73A3,3,0,0,1,53,46.66Z"/><path class="cls-18" d="M60,30.82,54.74,35.9a.16.16,0,0,0,0,.12l0,.23L60,31.16a2.9,2.9,0,0,0,.88-2.29A2.91,2.91,0,0,1,60,30.82Z"/><path class="cls-19" d="M56,25.78l-4.89-.71A.12.12,0,0,1,51,25l-3.22-6.53a3,3,0,0,0-5.3,0L39.26,25a.11.11,0,0,1-.1.07L32,26.12a3,3,0,0,0-1.64,5l5.22,5.09a.12.12,0,0,1,0,.11C39.55,36.74,48.31,36.14,56,25.78Z"/><path class="cls-20" d="M32,26.75l7.21-1.05a.13.13,0,0,0,.1-.07l3.23-6.54a3,3,0,0,1,5.3,0L51,25.63a.14.14,0,0,0,.1.07l7.21,1.05a2.93,2.93,0,0,1,2.39,2,2.8,2.8,0,0,1,.12.63,3,3,0,0,0-.12-1.26,3,3,0,0,0-2.39-2l-7.21-1.05A.12.12,0,0,1,51,25l-3.22-6.53a3,3,0,0,0-5.3,0L39.26,25a.11.11,0,0,1-.1.07L32,26.12a3,3,0,0,0-2.39,2,3,3,0,0,0-.12,1.26,3.5,3.5,0,0,1,.12-.63A3,3,0,0,1,32,26.75Z"/><ellipse class="cls-21" cx="44.14" cy="17.32" rx="0.71" ry="0.32" transform="translate(-3.14 13.65) rotate(-16.99)"/><path class="cls-22" d="M172.73,50.29a3.55,3.55,0,0,1-1.68-.42l-7.85-4.13h-.15l-7.85,4.13a3.55,3.55,0,0,1-1.68.42A3.6,3.6,0,0,1,150,46.08l1.5-8.75a.15.15,0,0,0,0-.14L145.07,31a3.6,3.6,0,0,1,2-6.14l8.78-1.28a.13.13,0,0,0,.12-.08l3.93-8a3.59,3.59,0,0,1,6.45,0l3.93,8a.13.13,0,0,0,.12.08l8.78,1.28a3.59,3.59,0,0,1,2,6.14l-6.35,6.2a.15.15,0,0,0,0,.13l1.5,8.75a3.59,3.59,0,0,1-3.54,4.21Z"/><path class="cls-23" d="M175.18,46.69c-1.1-.53-2.26-3.12-2.26-3.12l-3.29,1.07a16.63,16.63,0,0,1,1.57,3.46c.11.65-.6,1-1.2,1.22l1.05.55a3.55,3.55,0,0,0,1.68.42,3.6,3.6,0,0,0,3.59-3.38A2.11,2.11,0,0,1,175.18,46.69Z"/><path class="cls-24" d="M175.18,46.69c-1.1-.53-2.26-3.12-2.26-3.12l-3.29,1.07a16.63,16.63,0,0,1,1.57,3.46c.11.65-.6,1-1.2,1.22l1.05.55a3.55,3.55,0,0,0,1.68.42,3.6,3.6,0,0,0,3.59-3.38A2.11,2.11,0,0,1,175.18,46.69Z"/><path class="cls-25" d="M154.57,48.44A16.37,16.37,0,0,1,156.14,45l-3.28-1.08s-1.17,2.6-2.27,3.13a2.08,2.08,0,0,1-.63.2,3.59,3.59,0,0,0,5.24,2.64l.47-.25C155.1,49.42,154.47,49.05,154.57,48.44Z"/><path class="cls-26" d="M154.57,48.44A16.37,16.37,0,0,1,156.14,45l-3.28-1.08s-1.17,2.6-2.27,3.13a2.08,2.08,0,0,1-.63.2,3.59,3.59,0,0,0,5.24,2.64l.47-.25C155.1,49.42,154.47,49.05,154.57,48.44Z"/><path class="cls-27" d="M162.92,17.34s1.82-2.52.48-3.79l-.28,0a3.56,3.56,0,0,0-3.22,2l-3.93,8s0,0,0,0l1.38,1.73Z"/><path class="cls-28" d="M162.92,17.34s1.82-2.52.48-3.79l-.28,0a3.56,3.56,0,0,0-3.22,2l-3.93,8s0,0,0,0l1.38,1.73Z"/><path class="cls-29" d="M148.72,30.09l.49-3.09a4.75,4.75,0,0,1-2.33-.43,1.72,1.72,0,0,1-.87-1.38,3.59,3.59,0,0,0-1.45,5.18l1-.41A3.4,3.4,0,0,1,148.72,30.09Z"/><path class="cls-30" d="M148.72,30.09l.49-3.09a4.75,4.75,0,0,1-2.33-.43,1.72,1.72,0,0,1-.87-1.38,3.59,3.59,0,0,0-1.45,5.18l1-.41A3.4,3.4,0,0,1,148.72,30.09Z"/><path class="cls-31" d="M182.09,27.31A3.58,3.58,0,0,0,179.71,25c-.5.71-1.5,1.52-3.69,1.61-3.92.16,1.46,3.8,1.46,3.8s2.89-.42,4,.3A3.58,3.58,0,0,0,182.09,27.31Z"/><path class="cls-32" d="M182.09,27.31A3.58,3.58,0,0,0,179.71,25c-.5.71-1.5,1.52-3.69,1.61-3.92.16,1.46,3.8,1.46,3.8s2.89-.42,4,.3A3.58,3.58,0,0,0,182.09,27.31Z"/><path class="cls-33" d="M171,47a2.88,2.88,0,0,1-1.37-.35l-6.46-3.39h-.12l-6.45,3.39a2.88,2.88,0,0,1-1.37.35,3,3,0,0,1-2.92-3.46l1.24-7.19a.15.15,0,0,0,0-.11l-5.22-5.09a3,3,0,0,1,1.64-5l7.21-1.05a.12.12,0,0,0,.1-.07l3.22-6.53a3,3,0,0,1,5.3,0L169,25a.11.11,0,0,0,.1.07l7.21,1.05a3,3,0,0,1,1.64,5l-5.22,5.09a.12.12,0,0,0,0,.11l1.23,7.19a2.94,2.94,0,0,1-.64,2.4A3,3,0,0,1,171,47Z"/><path class="cls-34" d="M153.56,37a.15.15,0,0,0,0-.11l0-.05-1.16,6.72a3.22,3.22,0,0,0,0,.82c0-.07,0-.13,0-.2Z"/><path class="cls-35" d="M172.69,37l1.23,7.18,0,.2a3.22,3.22,0,0,0,0-.82l-1.15-6.72,0,.05A.12.12,0,0,0,172.69,37Z"/><path class="cls-36" d="M153.52,35.9l-5.22-5.08a3,3,0,0,1-.88-1.95,2.9,2.9,0,0,0,.88,2.29l5.22,5.09,0-.23A.16.16,0,0,0,153.52,35.9Z"/><path class="cls-37" d="M171,46.66a3,3,0,0,1-1.37-.34l-6.46-3.4h-.12l-6.45,3.4A3,3,0,0,1,153,45.6a2.92,2.92,0,0,1-.68-1.73A2.93,2.93,0,0,0,153,46,3,3,0,0,0,155.24,47a2.88,2.88,0,0,0,1.37-.35l6.45-3.39h.12l6.46,3.39A2.88,2.88,0,0,0,171,47,3,3,0,0,0,173.28,46a2.93,2.93,0,0,0,.68-2.08,2.92,2.92,0,0,1-.68,1.73A3,3,0,0,1,171,46.66Z"/><path class="cls-38" d="M178,30.82l-5.22,5.08a.13.13,0,0,0,0,.12l0,.23L178,31.16a2.9,2.9,0,0,0,.88-2.29A3,3,0,0,1,178,30.82Z"/><path class="cls-39" d="M174,25.78l-4.88-.71A.11.11,0,0,1,169,25l-3.23-6.53a3,3,0,0,0-5.3,0L157.25,25a.12.12,0,0,1-.1.07l-7.21,1.05a3,3,0,0,0-1.64,5l5.22,5.09a.15.15,0,0,1,0,.11C157.53,36.74,166.3,36.14,174,25.78Z"/><path class="cls-20" d="M149.94,26.75l7.21-1.05a.14.14,0,0,0,.1-.07l3.22-6.54a3,3,0,0,1,5.3,0L169,25.63a.13.13,0,0,0,.1.07l7.21,1.05a2.93,2.93,0,0,1,2.39,2,3.5,3.5,0,0,1,.12.63,3,3,0,0,0-.12-1.26,3,3,0,0,0-2.39-2l-7.21-1.05A.11.11,0,0,1,169,25l-3.23-6.53a3,3,0,0,0-5.3,0L157.25,25a.12.12,0,0,1-.1.07l-7.21,1.05a3,3,0,0,0-2.39,2,3,3,0,0,0-.12,1.26,2.8,2.8,0,0,1,.12-.63A2.93,2.93,0,0,1,149.94,26.75Z"/><ellipse class="cls-21" cx="162.12" cy="17.32" rx="0.71" ry="0.32" transform="translate(2.02 48.14) rotate(-16.99)"/></g></g></svg>