<svg xmlns="http://www.w3.org/2000/svg" xmlns:xlink="http://www.w3.org/1999/xlink" viewBox="0 0 435 129"><defs><style>.cls-1{fill:none;}.cls-2{fill:#fff;}.cls-3{isolation:isolate;}.cls-4{fill:url(#linear-gradient);}.cls-5{fill:url(#linear-gradient-14);}.cls-6{fill:url(#linear-gradient-27);}.cls-7{fill:url(#linear-gradient-40);}.cls-8{fill:url(#linear-gradient-53);}.cls-9{fill:url(#linear-gradient-66);}.cls-10{fill:url(#linear-gradient-79);}.cls-11{fill:url(#linear-gradient-92);}.cls-12{fill:url(#linear-gradient-105);}.cls-13{opacity:0.7;mix-blend-mode:overlay;}.cls-14{fill:url(#New_Pattern_11);}</style><linearGradient id="linear-gradient" x1="217.13" y1="92.27" x2="217.13" y2="19.88" gradientTransform="translate(0.59 1) scale(0.99 1)" gradientUnits="userSpaceOnUse"><stop offset="0" stop-color="#270011"/><stop offset="1" stop-color="#4a0000"/></linearGradient><linearGradient id="linear-gradient-14" x1="217.13" y1="92.27" x2="217.13" y2="19.88" gradientTransform="translate(0.16 1) scale(0.99 1)" xlink:href="#linear-gradient"/><linearGradient id="linear-gradient-27" x1="217.13" y1="92.27" x2="217.13" y2="19.88" gradientTransform="translate(-0.27 1) scale(0.99 1)" xlink:href="#linear-gradient"/><linearGradient id="linear-gradient-40" x1="217.13" y1="92.27" x2="217.13" y2="19.88" gradientTransform="translate(-0.7 1) scale(0.99 1)" xlink:href="#linear-gradient"/><linearGradient id="linear-gradient-53" x1="217.13" y1="92.27" x2="217.13" y2="19.88" gradientTransform="translate(-1.13 1)" xlink:href="#linear-gradient"/><linearGradient id="linear-gradient-66" x1="217.13" y1="92.27" x2="217.13" y2="19.88" gradientTransform="translate(-1.57 1)" xlink:href="#linear-gradient"/><linearGradient id="linear-gradient-79" x1="217.13" y1="92.27" x2="217.13" y2="19.88" gradientTransform="translate(-2 1)" xlink:href="#linear-gradient"/><linearGradient id="linear-gradient-92" x1="217.13" y1="91.53" x2="217.13" y2="20.67" gradientTransform="translate(-1.43 1.43)" gradientUnits="userSpaceOnUse"><stop offset="0" stop-color="#4a0000"/><stop offset="1" stop-color="#e00018"/></linearGradient><linearGradient id="linear-gradient-105" x1="217.13" y1="84.82" x2="217.13" y2="23.56" gradientUnits="userSpaceOnUse"><stop offset="0" stop-color="#ccc"/><stop offset="0.99" stop-color="#fff"/></linearGradient><pattern id="New_Pattern_11" data-name="New Pattern 11" width="310" height="210" patternTransform="matrix(0.4, -0.31, 0.31, 0.4, 92.03, 881.49)" patternUnits="userSpaceOnUse" viewBox="0 0 310 210"><rect class="cls-1" width="310" height="210"/><polygon class="cls-2" points="309.75 183.75 309.75 166.75 620.25 166.75 620.25 183.75 309.75 183.75"/><polygon class="cls-2" points="309.75 198.25 309.75 189.75 620.25 189.75 620.25 198.25 309.75 198.25"/><polygon class="cls-2" points="-0.25 183.75 -0.25 166.75 310.25 166.75 310.25 183.75 -0.25 183.75"/><polygon class="cls-2" points="-0.25 198.25 -0.25 189.75 310.25 189.75 310.25 198.25 -0.25 198.25"/><polygon class="cls-2" points="-310.25 183.75 -310.25 166.75 0.25 166.75 0.25 183.75 -310.25 183.75"/><polygon class="cls-2" points="-310.25 198.25 -310.25 189.75 0.25 189.75 0.25 198.25 -310.25 198.25"/><polygon class="cls-2" points="309.75 78.75 309.75 61.75 620.25 61.75 620.25 78.75 309.75 78.75"/><polygon class="cls-2" points="309.75 118.25 309.75 105.75 620.25 105.75 620.25 118.25 309.75 118.25"/><polygon class="cls-2" points="309.75 93.25 309.75 84.75 620.25 84.75 620.25 93.25 309.75 93.25"/><polygon class="cls-2" points="309.75 148.25 309.75 139.75 620.25 139.75 620.25 148.25 309.75 148.25"/><polygon class="cls-2" points="309.75 128.25 309.75 122.75 620.25 122.75 620.25 128.25 309.75 128.25"/><polygon class="cls-2" points="-0.25 78.75 -0.25 61.75 310.25 61.75 310.25 78.75 -0.25 78.75"/><polygon class="cls-2" points="-0.25 118.25 -0.25 105.75 310.25 105.75 310.25 118.25 -0.25 118.25"/><polygon class="cls-2" points="-0.25 93.25 -0.25 84.75 310.25 84.75 310.25 93.25 -0.25 93.25"/><polygon class="cls-2" points="-0.25 148.25 -0.25 139.75 310.25 139.75 310.25 148.25 -0.25 148.25"/><polygon class="cls-2" points="-0.25 128.25 -0.25 122.75 310.25 122.75 310.25 128.25 -0.25 128.25"/><polygon class="cls-2" points="-310.25 78.75 -310.25 61.75 0.25 61.75 0.25 78.75 -310.25 78.75"/><polygon class="cls-2" points="-310.25 118.25 -310.25 105.75 0.25 105.75 0.25 118.25 -310.25 118.25"/><polygon class="cls-2" points="-310.25 93.25 -310.25 84.75 0.25 84.75 0.25 93.25 -310.25 93.25"/><polygon class="cls-2" points="-310.25 148.25 -310.25 139.75 0.25 139.75 0.25 148.25 -310.25 148.25"/><polygon class="cls-2" points="-310.25 128.25 -310.25 122.75 0.25 122.75 0.25 128.25 -310.25 128.25"/><polygon class="cls-2" points="309.75 13.25 309.75 0.75 620.25 0.75 620.25 13.25 309.75 13.25"/><polygon class="cls-2" points="309.75 43.25 309.75 34.75 620.25 34.75 620.25 43.25 309.75 43.25"/><polygon class="cls-2" points="309.75 23.25 309.75 17.75 620.25 17.75 620.25 23.25 309.75 23.25"/><polygon class="cls-2" points="-0.25 13.25 -0.25 0.75 310.25 0.75 310.25 13.25 -0.25 13.25"/><polygon class="cls-2" points="-0.25 43.25 -0.25 34.75 310.25 34.75 310.25 43.25 -0.25 43.25"/><polygon class="cls-2" points="-0.25 23.25 -0.25 17.75 310.25 17.75 310.25 23.25 -0.25 23.25"/><polygon class="cls-2" points="-310.25 13.25 -310.25 0.75 0.25 0.75 0.25 13.25 -310.25 13.25"/><polygon class="cls-2" points="-310.25 43.25 -310.25 34.75 0.25 34.75 0.25 43.25 -310.25 43.25"/><polygon class="cls-2" points="-310.25 23.25 -310.25 17.75 0.25 17.75 0.25 23.25 -310.25 23.25"/></pattern></defs><title>COBALAGI</title><g class="cls-3"><g id="Layer_1" data-name="Layer 1"><path class="cls-4" d="M29,105.88c-3.86,0-6.94-1-9.17-2.94a12.84,12.84,0,0,1-3.93-8.2,26,26,0,0,1-.16-4.29l.5-11.38C16.67,68.84,22.83,62.41,33.58,61a26.3,26.3,0,0,1,3.34-.23,14.66,14.66,0,0,1,8,2.07,12.13,12.13,0,0,1,5.56,9,18.19,18.19,0,0,1-.06,5,17,17,0,0,1-1,3.9l-.37,1a3.93,3.93,0,0,1-1.2,1.66,4.08,4.08,0,0,1,.76.55,4,4,0,0,1,1.29,3.11l-.06,1.44c-.36,9.6-6.43,15.68-17.1,17.11A28.61,28.61,0,0,1,29,105.88Zm4.95-29.26c-.72.13-1.19.43-1.26,2.32l-.39,10a9.12,9.12,0,0,0,0,1c.67-.1,1.08-.3,1.16-2.09a4,4,0,0,1,1.54-3,3.93,3.93,0,0,1-1.38-1.34,4.06,4.06,0,0,1,0-4.33A4.18,4.18,0,0,0,33.93,76.62Z"/><path class="cls-4" d="M60.29,101.68c-4,0-7.23-1.08-9.56-3.2a13.25,13.25,0,0,1-3.94-8.34,26.28,26.28,0,0,1-.15-4.6l.41-9.86c.44-10.72,6.62-17.42,17.4-18.86A26.25,26.25,0,0,1,68,56.56c7.71,0,12.69,4.26,13.66,11.67a24,24,0,0,1,.15,4.21l-.4,9.86c-.22,5.53-1.8,10-4.7,13.17s-7.18,5.2-12.72,6A28.68,28.68,0,0,1,60.29,101.68Zm4.94-29.27c-.83.13-1.61.25-1.71,2.64l-.4,9.52a11.08,11.08,0,0,0,0,1.26h.08a2.23,2.23,0,0,0,1.22-.46h0A5.79,5.79,0,0,0,64.87,83l.41-9.47a8.44,8.44,0,0,0,0-1.07Z"/><path class="cls-4" d="M82.72,98.18a3.9,3.9,0,0,1-2.66-1.05A4,4,0,0,1,78.77,94l1.5-35.64a4,4,0,0,1,3.43-3.8l13.86-1.86a23.39,23.39,0,0,1,3.14-.22,12.27,12.27,0,0,1,7.91,2.44,10.65,10.65,0,0,1,3.78,7,15.68,15.68,0,0,1,.1,2.77l-.12,2.4a13.17,13.17,0,0,1-1.5,5.6,9.11,9.11,0,0,1,2.33,5,13.14,13.14,0,0,1,0,2.6l-.08,1.46a14.67,14.67,0,0,1-3.87,9.54c-2.36,2.51-5.75,4.08-10.1,4.67l-16,2.14A4.55,4.55,0,0,1,82.72,98.18Z"/><path class="cls-4" d="M111.63,94.29a4,4,0,0,1-2.9-1.28,4,4,0,0,1-1-3.55L115.48,53a4,4,0,0,1,3.35-3.13l15.77-2.12.52,0A4,4,0,0,1,139,51.15L143.79,86a4,4,0,0,1-.77,3,3.91,3.91,0,0,1-2.62,1.54l-9.08,1.22a3.12,3.12,0,0,1-.52,0,4,4,0,0,1-3.94-3.63l-.32-3.49-1,.14-.85,5A4,4,0,0,1,121.28,93l-9.13,1.23A4.41,4.41,0,0,1,111.63,94.29Z"/><path class="cls-4" d="M155.88,88.35a3.9,3.9,0,0,1-2.66-1,4,4,0,0,1-1.28-3.12l1.5-35.64a4,4,0,0,1,3.43-3.8l8.6-1.15a3,3,0,0,1,.52,0,3.9,3.9,0,0,1,2.66,1.05,4,4,0,0,1,1.29,3.12l-1,23.15,8.53-1.14a4.38,4.38,0,0,1,.52,0,3.91,3.91,0,0,1,2.67,1.06A4,4,0,0,1,182,73.88l-.34,7.72a4,4,0,0,1-3.43,3.78l-21.8,2.93A4.38,4.38,0,0,1,155.88,88.35Z"/><path class="cls-4" d="M179.35,85.19a3.92,3.92,0,0,1-2.9-1.28,4,4,0,0,1-1-3.55l7.72-36.48a4,4,0,0,1,3.34-3.13l15.77-2.11a3.15,3.15,0,0,1,.53,0,4,4,0,0,1,3.91,3.45l4.76,34.8a4.09,4.09,0,0,1-.77,3,3.93,3.93,0,0,1-2.63,1.54L199,82.58a3,3,0,0,1-.52,0,3.89,3.89,0,0,1-2.46-.87A4,4,0,0,1,194.58,79l-.33-3.49-1,.14-.85,5A4,4,0,0,1,189,83.93l-9.13,1.23A4.53,4.53,0,0,1,179.35,85.19Z"/><path class="cls-4" d="M221.14,80.08c-4,0-7.15-1.09-9.41-3.24A13.49,13.49,0,0,1,208,68.59a26.34,26.34,0,0,1-.17-4.69l.41-9.87c.44-10.72,6.62-17.42,17.4-18.87a26.43,26.43,0,0,1,3.34-.23,14.81,14.81,0,0,1,8,2.07,12.17,12.17,0,0,1,5.55,9,18,18,0,0,1,0,4.52,17.6,17.6,0,0,1-.73,3.53l-.22.59a4,4,0,0,1,.62,2.37l-.21,4.27-.06,1.38c-.44,9.62-6.53,15.69-17.14,17.12A27.35,27.35,0,0,1,221.14,80.08Zm4.79-29.26c-.66.14-1.19.51-1.27,2.57l0,1.27.41-.08.23,0a4.1,4.1,0,0,1,.46-1.59A2.71,2.71,0,0,0,226,51.2C226,51.06,226,50.93,225.93,50.82Z"/><path class="cls-4" d="M243.15,76.62a3.92,3.92,0,0,1-2.67-1.05,4,4,0,0,1-1.28-3.12l1.5-35.64A4,4,0,0,1,244.13,33l8.6-1.16a4.53,4.53,0,0,1,.52,0,3.94,3.94,0,0,1,2.66,1A4,4,0,0,1,257.2,36l-1.46,35.64a4,4,0,0,1-3.42,3.79l-8.65,1.17Z"/><path class="cls-4" d="M270,73a4,4,0,0,1-2.67-1,4.05,4.05,0,0,1-1.28-3.13l1.5-35.63a4,4,0,0,1,3.43-3.8l8.89-1.19a3.12,3.12,0,0,1,.52,0,4,4,0,0,1,3.55,2.24l1.43,2.94.11-2.57A4,4,0,0,1,288.9,27l8.61-1.15a3,3,0,0,1,.52,0,3.9,3.9,0,0,1,2.66,1.05A4.06,4.06,0,0,1,302,30l-1.46,35.63a4,4,0,0,1-3.43,3.8l-8.65,1.16a4.55,4.55,0,0,1-.52,0,3.94,3.94,0,0,1-3.57-2.3l-1.63-3.48L282.6,68a4,4,0,0,1-3.43,3.81L270.52,73A4.53,4.53,0,0,1,270,73Z"/><path class="cls-4" d="M301.16,68.83a3.91,3.91,0,0,1-2.9-1.29,4,4,0,0,1-1-3.55L305,27.52a4,4,0,0,1,3.34-3.13l15.77-2.12.53,0a4,4,0,0,1,3.91,3.45l4.76,34.79a4.11,4.11,0,0,1-.77,3A4,4,0,0,1,329.92,65l-9.08,1.22a4.41,4.41,0,0,1-.52,0,3.89,3.89,0,0,1-2.46-.87,4,4,0,0,1-1.47-2.75l-.33-3.5-1,.14-.85,5a4,4,0,0,1-3.37,3.29l-9.13,1.22A3,3,0,0,1,301.16,68.83Z"/><path class="cls-4" d="M333.94,64.42a3.94,3.94,0,0,1-2.66-1A4,4,0,0,1,330,60.25l1.51-35.64a4,4,0,0,1,3.42-3.79l8.89-1.19a3.12,3.12,0,0,1,.52,0,3.94,3.94,0,0,1,3.55,2.24l1.43,2.94.11-2.57a4,4,0,0,1,3.42-3.79l8.61-1.15a3,3,0,0,1,.52,0,3.9,3.9,0,0,1,2.66,1.05,4.06,4.06,0,0,1,1.29,3.12L364.46,57a4,4,0,0,1-3.43,3.8L352.38,62a4.53,4.53,0,0,1-.52,0,3.93,3.93,0,0,1-3.57-2.29l-1.63-3.48-.12,3.18a4,4,0,0,1-3.43,3.81l-8.65,1.16A4.53,4.53,0,0,1,333.94,64.42Z"/><path class="cls-4" d="M376.19,58.75a3.92,3.92,0,0,1-2.67-1,4,4,0,0,1-1.28-3.12l.95-23.16-7.13,1a3.12,3.12,0,0,1-.52,0,4,4,0,0,1-2.68-1.05,4,4,0,0,1-1.27-3.13l.35-7.73a4,4,0,0,1,3.42-3.78l32.21-4.33.52,0a4,4,0,0,1,2.68,1.05A4,4,0,0,1,402,16.55l-.35,7.72a4,4,0,0,1-3.42,3.79l-8.47,1.13-1,24.56a4,4,0,0,1-3.42,3.8l-8.65,1.16A3.12,3.12,0,0,1,376.19,58.75Z"/><path class="cls-4" d="M400.51,55.48a3.94,3.94,0,0,1-2.67-1,4,4,0,0,1-1.28-3.12l1.5-35.64a4,4,0,0,1,3.43-3.79l8.6-1.16a4.73,4.73,0,0,1,.52,0,3.92,3.92,0,0,1,2.67,1.05,4,4,0,0,1,1.28,3.12l-1.45,35.63a4,4,0,0,1-3.43,3.8L401,55.44A3,3,0,0,1,400.51,55.48Z"/><path class="cls-5" d="M28.61,105.88c-3.87,0-7-1-9.19-2.94a12.9,12.9,0,0,1-3.94-8.2,24.94,24.94,0,0,1-.15-4.29l.49-11.38C16.27,68.84,22.45,62.41,33.21,61a26.61,26.61,0,0,1,3.36-.23,14.72,14.72,0,0,1,8,2.07,12.11,12.11,0,0,1,5.57,9,17.82,17.82,0,0,1-.06,5,17,17,0,0,1-1,3.9l-.37,1a3.93,3.93,0,0,1-1.2,1.66,4.44,4.44,0,0,1,.76.55,4,4,0,0,1,1.29,3.11l-.06,1.44c-.36,9.6-6.45,15.68-17.13,17.11A28.88,28.88,0,0,1,28.61,105.88Zm5-29.26c-.73.13-1.2.43-1.27,2.32l-.39,10c0,.37,0,.72,0,1,.68-.1,1.09-.3,1.16-2.09a4,4,0,0,1,1.55-3,3.93,3.93,0,0,1-1.38-1.34,4.06,4.06,0,0,1,.05-4.33A4.18,4.18,0,0,0,33.57,76.62Z"/><path class="cls-5" d="M60,101.68c-4,0-7.25-1.08-9.58-3.2a13.26,13.26,0,0,1-3.95-8.34,25.39,25.39,0,0,1-.14-4.6l.4-9.86C47.15,65,53.34,58.26,64.15,56.82a26.25,26.25,0,0,1,3.54-.26c7.73,0,12.72,4.26,13.7,11.67a23.11,23.11,0,0,1,.14,4.21l-.4,9.86c-.21,5.53-1.8,10-4.71,13.17s-7.19,5.2-12.75,6A28.56,28.56,0,0,1,60,101.68Zm5-29.27c-.83.13-1.62.25-1.71,2.64l-.41,9.52a11.22,11.22,0,0,0,0,1.26h.08a2.23,2.23,0,0,0,1.22-.46h0A5.79,5.79,0,0,0,64.57,83L65,73.48a8.44,8.44,0,0,0,0-1.07Z"/><path class="cls-5" d="M82.46,98.18a4,4,0,0,1-2.68-1.05A4,4,0,0,1,78.5,94L80,58.37a4,4,0,0,1,3.44-3.8l13.89-1.86a23.39,23.39,0,0,1,3.14-.22,12.26,12.26,0,0,1,7.92,2.44,10.58,10.58,0,0,1,3.79,7,15.66,15.66,0,0,1,.11,2.77l-.13,2.4a13,13,0,0,1-1.5,5.6,9,9,0,0,1,2.33,5,12.39,12.39,0,0,1,.06,2.6L113,81.79a14.69,14.69,0,0,1-3.89,9.54C106.73,93.84,103.32,95.41,99,96L83,98.14A4.73,4.73,0,0,1,82.46,98.18Z"/><path class="cls-5" d="M111.43,94.29A4,4,0,0,1,108.52,93a4,4,0,0,1-1-3.55L115.28,53a4,4,0,0,1,3.36-3.13l15.8-2.12a4.53,4.53,0,0,1,.52,0,4,4,0,0,1,3.92,3.45L143.65,86a4,4,0,0,1-.77,3,4,4,0,0,1-2.63,1.54l-9.1,1.22a3.12,3.12,0,0,1-.52,0,4,4,0,0,1-2.47-.87,4.08,4.08,0,0,1-1.48-2.76l-.32-3.49-1,.14-.85,5A4,4,0,0,1,121.09,93L112,94.26Z"/><path class="cls-5" d="M155.77,88.35a4,4,0,0,1-2.68-1,4,4,0,0,1-1.28-3.12l1.5-35.64a4,4,0,0,1,3.44-3.8l8.62-1.15a3,3,0,0,1,.52,0,3.92,3.92,0,0,1,2.67,1.05,4,4,0,0,1,1.29,3.12l-1,23.15,8.54-1.14a4.55,4.55,0,0,1,.52,0,3.91,3.91,0,0,1,2.68,1.06,4,4,0,0,1,1.28,3.13l-.35,7.72a4,4,0,0,1-3.44,3.78l-21.83,2.93A4.73,4.73,0,0,1,155.77,88.35Z"/><path class="cls-5" d="M179.28,85.19a4,4,0,0,1-2.91-1.28,4,4,0,0,1-1-3.55l7.72-36.48a4,4,0,0,1,3.36-3.13l15.8-2.11a3,3,0,0,1,.52,0,4,4,0,0,1,3.92,3.45l4.77,34.8a4,4,0,0,1-.77,3,4,4,0,0,1-2.63,1.54L199,82.58a3,3,0,0,1-.52,0,3.94,3.94,0,0,1-2.47-.87A4,4,0,0,1,194.54,79l-.33-3.49-1,.14-.85,5A4,4,0,0,1,189,83.93l-9.15,1.23Z"/><path class="cls-5" d="M221.16,80.08c-4,0-7.17-1.09-9.44-3.24a13.56,13.56,0,0,1-3.79-8.25,26.38,26.38,0,0,1-.16-4.69l.4-9.87c.44-10.72,6.64-17.42,17.44-18.87a26.58,26.58,0,0,1,3.35-.23A14.82,14.82,0,0,1,237,37a12.15,12.15,0,0,1,5.56,9,17.1,17.1,0,0,1,0,4.52,17.6,17.6,0,0,1-.73,3.53s-.22.59-.22.59a4,4,0,0,1,.63,2.37L242,61.32l-.05,1.38c-.45,9.62-6.55,15.69-17.18,17.12A27.35,27.35,0,0,1,221.16,80.08ZM226,50.82c-.66.14-1.19.51-1.27,2.57l-.05,1.27.41-.08.23,0a4.1,4.1,0,0,1,.46-1.59A2.71,2.71,0,0,0,226,51.2C226,51.06,226,50.93,226,50.82Z"/><path class="cls-5" d="M243.2,76.62a3.92,3.92,0,0,1-2.67-1.05,4,4,0,0,1-1.28-3.12l1.5-35.64A4,4,0,0,1,244.18,33l8.62-1.16.52,0a4,4,0,0,1,2.68,1A4,4,0,0,1,257.28,36l-1.45,35.64a4,4,0,0,1-3.44,3.79l-8.67,1.17A4.41,4.41,0,0,1,243.2,76.62Z"/><path class="cls-5" d="M270.11,73a4,4,0,0,1-2.67-1,4.05,4.05,0,0,1-1.28-3.13l1.5-35.63a4,4,0,0,1,3.44-3.8l8.9-1.19a3.12,3.12,0,0,1,.52,0,4,4,0,0,1,3.56,2.24l1.43,2.94.11-2.57A4,4,0,0,1,289.05,27l8.62-1.15a3.12,3.12,0,0,1,.52,0,3.92,3.92,0,0,1,2.67,1.05A4,4,0,0,1,302.15,30l-1.46,35.63a4,4,0,0,1-3.43,3.8l-8.67,1.16a4.55,4.55,0,0,1-.52,0,4,4,0,0,1-3.58-2.3l-1.63-3.48L282.74,68a4,4,0,0,1-3.44,3.81L270.63,73A4.53,4.53,0,0,1,270.11,73Z"/><path class="cls-5" d="M301.33,68.83a4,4,0,0,1-2.91-1.29,4,4,0,0,1-1-3.55l7.73-36.47a4,4,0,0,1,3.35-3.13l15.8-2.12a4.71,4.71,0,0,1,.53,0,4,4,0,0,1,3.92,3.45l4.76,34.79a4,4,0,0,1-.77,3A4,4,0,0,1,330.15,65l-9.1,1.22a4.41,4.41,0,0,1-.52,0,3.89,3.89,0,0,1-2.46-.87,4,4,0,0,1-1.48-2.75l-.33-3.5-1,.14-.86,5A4,4,0,0,1,311,67.57l-9.15,1.22A3,3,0,0,1,301.33,68.83Z"/><path class="cls-5" d="M334.18,64.42a4,4,0,0,1-2.67-1,4,4,0,0,1-1.29-3.13l1.51-35.64a4,4,0,0,1,3.43-3.79l8.91-1.19a3.12,3.12,0,0,1,.52,0,4,4,0,0,1,3.56,2.24l1.43,2.94.11-2.57a4,4,0,0,1,3.43-3.79l8.62-1.15a3,3,0,0,1,.52,0,3.92,3.92,0,0,1,2.67,1.05,4.06,4.06,0,0,1,1.29,3.12L364.76,57a4,4,0,0,1-3.43,3.8L352.66,62l-.52,0a3.94,3.94,0,0,1-3.58-2.29l-1.63-3.48-.13,3.18a4,4,0,0,1-3.43,3.81l-8.67,1.16A4.53,4.53,0,0,1,334.18,64.42Z"/><path class="cls-5" d="M376.51,58.75a3.92,3.92,0,0,1-2.67-1,4,4,0,0,1-1.29-3.12l1-23.16-7.15,1a3.12,3.12,0,0,1-.52,0,4,4,0,0,1-2.68-1.05,4.05,4.05,0,0,1-1.28-3.13l.35-7.73a4,4,0,0,1,3.44-3.78l32.27-4.33a4.53,4.53,0,0,1,.52,0,4,4,0,0,1,2.68,1.05,4.05,4.05,0,0,1,1.28,3.13l-.35,7.72a4,4,0,0,1-3.44,3.79l-8.48,1.13-1,24.56a4,4,0,0,1-3.43,3.8L377,58.71A3,3,0,0,1,376.51,58.75Z"/><path class="cls-5" d="M400.88,55.48a4,4,0,0,1-3.95-4.17l1.5-35.64a4,4,0,0,1,3.43-3.79l8.62-1.16a4.73,4.73,0,0,1,.53,0,3.94,3.94,0,0,1,2.67,1.05A4,4,0,0,1,415,14.85l-1.45,35.63a4,4,0,0,1-3.44,3.8l-8.67,1.16A3,3,0,0,1,400.88,55.48Z"/><path class="cls-6" d="M28.24,105.88c-3.88,0-7-1-9.21-2.94a12.86,12.86,0,0,1-4-8.2,24.9,24.9,0,0,1-.16-4.29l.51-11.38C15.87,68.84,22.06,62.41,32.85,61a26.61,26.61,0,0,1,3.36-.23,14.79,14.79,0,0,1,8,2.07,12.12,12.12,0,0,1,5.58,9,17.82,17.82,0,0,1-.06,5,17,17,0,0,1-1,3.9l-.37,1a4,4,0,0,1-1.21,1.66A4.08,4.08,0,0,1,48,84a4,4,0,0,1,1.29,3.11l0,1.44c-.36,9.6-6.46,15.68-17.17,17.11A28.76,28.76,0,0,1,28.24,105.88Zm5-29.26c-.72.13-1.2.43-1.26,2.32l-.4,10c0,.37,0,.72,0,1,.68-.1,1.09-.3,1.17-2.09a4,4,0,0,1,1.54-3,3.9,3.9,0,0,1-1.37-1.34,4,4,0,0,1,.05-4.33A4.12,4.12,0,0,0,33.2,76.62Z"/><path class="cls-6" d="M59.67,101.68c-4,0-7.26-1.08-9.6-3.2a13.26,13.26,0,0,1-4-8.34,24.47,24.47,0,0,1-.15-4.6l.4-9.86C46.81,65,53,58.26,63.84,56.82a26.54,26.54,0,0,1,3.56-.26c7.74,0,12.74,4.26,13.72,11.67a23.11,23.11,0,0,1,.14,4.21l-.4,9.86c-.21,5.53-1.8,10-4.72,13.17s-7.2,5.2-12.77,6A28.83,28.83,0,0,1,59.67,101.68Zm5-29.27c-.83.13-1.62.25-1.72,2.64l-.4,9.52a11.08,11.08,0,0,0,0,1.26h.08a2.29,2.29,0,0,0,1.23-.46h0A6,6,0,0,0,64.27,83l.41-9.47a8.44,8.44,0,0,0-.05-1.07Z"/><path class="cls-6" d="M82.19,98.18a4,4,0,0,1-2.68-1.05A4,4,0,0,1,78.23,94l1.5-35.64a4,4,0,0,1,3.45-3.8l13.91-1.86a23.64,23.64,0,0,1,3.15-.22,12.32,12.32,0,0,1,7.94,2.44,10.63,10.63,0,0,1,3.8,7,15.68,15.68,0,0,1,.1,2.77l-.13,2.4a13,13,0,0,1-1.5,5.6,9.12,9.12,0,0,1,2.34,5,13.91,13.91,0,0,1,.06,2.6l-.09,1.46a14.58,14.58,0,0,1-3.89,9.54c-2.36,2.51-5.77,4.08-10.13,4.67l-16,2.14A4.55,4.55,0,0,1,82.19,98.18Z"/><path class="cls-6" d="M111.22,94.29A4,4,0,0,1,108.3,93a4,4,0,0,1-1-3.55L115.08,53a4,4,0,0,1,3.36-3.13l15.84-2.12a4.53,4.53,0,0,1,.52,0,4,4,0,0,1,3.93,3.45L143.51,86a4.05,4.05,0,0,1-.78,3,3.93,3.93,0,0,1-2.63,1.54L131,91.68a3,3,0,0,1-.52,0,4,4,0,0,1-2.47-.87,4,4,0,0,1-1.48-2.76l-.33-3.49-1,.14-.86,5A4,4,0,0,1,120.91,93l-9.17,1.23A4.53,4.53,0,0,1,111.22,94.29Z"/><path class="cls-6" d="M155.65,88.35a4,4,0,0,1-2.68-1,4,4,0,0,1-1.29-3.12l1.51-35.64a4,4,0,0,1,3.44-3.8l8.64-1.15a3,3,0,0,1,.52,0,4,4,0,0,1,2.68,1.05,4.07,4.07,0,0,1,1.29,3.12l-1,23.15,8.55-1.14a4.73,4.73,0,0,1,.53,0,3.93,3.93,0,0,1,2.68,1.06,4,4,0,0,1,1.28,3.13l-.35,7.72a4,4,0,0,1-3.44,3.78l-21.88,2.93A4.73,4.73,0,0,1,155.65,88.35Z"/><path class="cls-6" d="M179.21,85.19a4,4,0,0,1-2.92-1.28,4,4,0,0,1-1-3.55l7.74-36.48a4,4,0,0,1,3.36-3.13l15.83-2.11a3.15,3.15,0,0,1,.53,0,4,4,0,0,1,3.92,3.45l4.78,34.8a4,4,0,0,1-.77,3,4,4,0,0,1-2.64,1.54L199,82.58a3.12,3.12,0,0,1-.52,0,4,4,0,0,1-2.48-.87A4,4,0,0,1,194.5,79l-.33-3.49-1,.14-.86,5a4,4,0,0,1-3.39,3.28l-9.16,1.23Z"/><path class="cls-6" d="M221.17,80.08c-4,0-7.18-1.09-9.46-3.24a13.56,13.56,0,0,1-3.79-8.25,26.34,26.34,0,0,1-.17-4.69l.41-9.87c.44-10.72,6.65-17.42,17.47-18.87a26.61,26.61,0,0,1,3.36-.23A14.85,14.85,0,0,1,237,37a12.14,12.14,0,0,1,5.58,9,18,18,0,0,1,0,4.52,18.34,18.34,0,0,1-.73,3.53l-.23.59a4,4,0,0,1,.63,2.37L242,61.32l0,1.38c-.44,9.62-6.56,15.69-17.22,17.12A27.35,27.35,0,0,1,221.17,80.08ZM226,50.82c-.66.14-1.19.51-1.27,2.57l0,1.27.41-.08.23,0a4,4,0,0,1,.47-1.59A2.71,2.71,0,0,0,226,51.2,3.38,3.38,0,0,0,226,50.82Z"/><path class="cls-6" d="M243.26,76.62a4,4,0,0,1-2.68-1.05,4,4,0,0,1-1.29-3.12l1.51-35.64A4,4,0,0,1,244.24,33l8.64-1.16a4.53,4.53,0,0,1,.52,0,4,4,0,0,1,2.68,1A4.07,4.07,0,0,1,257.37,36l-1.46,35.64a4,4,0,0,1-3.45,3.79l-8.68,1.17A4.53,4.53,0,0,1,243.26,76.62Z"/><path class="cls-6" d="M270.22,73a4,4,0,0,1-2.68-1,4.05,4.05,0,0,1-1.28-3.13l1.5-35.63a4,4,0,0,1,3.45-3.8l8.92-1.19a3.15,3.15,0,0,1,.53,0,4,4,0,0,1,3.55,2.24l1.44,2.94.11-2.57A4,4,0,0,1,289.2,27l8.64-1.15a3,3,0,0,1,.52,0A3.92,3.92,0,0,1,301,26.86,4,4,0,0,1,302.32,30l-1.45,35.63a4,4,0,0,1-3.45,3.8l-8.68,1.16a4.73,4.73,0,0,1-.53,0,4,4,0,0,1-3.58-2.3L283,64.83,282.87,68a4,4,0,0,1-3.44,3.81L270.74,73A4.41,4.41,0,0,1,270.22,73Z"/><path class="cls-6" d="M301.5,68.83a4,4,0,0,1-2.91-1.29,4,4,0,0,1-1-3.55l7.75-36.47a4,4,0,0,1,3.36-3.13l15.83-2.12a4.71,4.71,0,0,1,.53,0A4,4,0,0,1,329,25.69l4.78,34.79A4,4,0,0,1,330.38,65l-9.11,1.22a4.71,4.71,0,0,1-.53,0,3.94,3.94,0,0,1-2.47-.87,4,4,0,0,1-1.48-2.75l-.32-3.5-1,.14-.86,5a4,4,0,0,1-3.39,3.29L302,68.79A3.15,3.15,0,0,1,301.5,68.83Z"/><path class="cls-6" d="M334.42,64.42a4,4,0,0,1-2.68-1,4.06,4.06,0,0,1-1.29-3.13L332,24.61a4,4,0,0,1,3.44-3.79l8.93-1.19a3,3,0,0,1,.52,0,4,4,0,0,1,3.56,2.24l1.44,2.94L350,22.2a4,4,0,0,1,3.44-3.79L362,17.26a3.12,3.12,0,0,1,.52,0,3.93,3.93,0,0,1,2.68,1.05,4,4,0,0,1,1.29,3.12L365.06,57a4,4,0,0,1-3.44,3.8L352.93,62a4.53,4.53,0,0,1-.52,0,4,4,0,0,1-3.59-2.29l-1.63-3.48-.12,3.18a4,4,0,0,1-3.44,3.81l-8.69,1.16A4.53,4.53,0,0,1,334.42,64.42Z"/><path class="cls-6" d="M376.83,58.75a3.92,3.92,0,0,1-2.67-1,4,4,0,0,1-1.29-3.12l1-23.16-7.17,1a3,3,0,0,1-.52,0,3.93,3.93,0,0,1-2.68-1.05,4,4,0,0,1-1.28-3.13l.34-7.73A4,4,0,0,1,366,16.73l32.34-4.33a4.41,4.41,0,0,1,.52,0,4,4,0,0,1,4,4.18l-.35,7.72A4,4,0,0,1,399,28.06l-8.5,1.13-1,24.56a4,4,0,0,1-3.44,3.8l-8.69,1.16A3,3,0,0,1,376.83,58.75Z"/><path class="cls-6" d="M401.25,55.48a3.92,3.92,0,0,1-2.67-1,4,4,0,0,1-1.29-3.12l1.51-35.64a4,4,0,0,1,3.44-3.79l8.64-1.16a4.38,4.38,0,0,1,.52,0,3.92,3.92,0,0,1,2.67,1.05,4,4,0,0,1,1.29,3.12L413.9,50.48a4,4,0,0,1-3.44,3.8l-8.68,1.16A3.15,3.15,0,0,1,401.25,55.48Z"/><path class="cls-7" d="M27.86,105.88c-3.88,0-7-1-9.23-2.94a12.86,12.86,0,0,1-3.95-8.2,24.9,24.9,0,0,1-.16-4.29L15,79.07C15.47,68.84,21.67,62.41,32.48,61a26.89,26.89,0,0,1,3.37-.23,14.86,14.86,0,0,1,8,2.07,12.13,12.13,0,0,1,5.59,9,18.58,18.58,0,0,1-.06,5,17.53,17.53,0,0,1-1,3.9l-.38,1a3.93,3.93,0,0,1-1.2,1.66,4.44,4.44,0,0,1,.76.55,4,4,0,0,1,1.29,3.11l0,1.44c-.37,9.6-6.48,15.68-17.21,17.11A28.9,28.9,0,0,1,27.86,105.88Zm5-29.26c-.73.13-1.2.43-1.27,2.32l-.39,10c0,.37,0,.72,0,1,.68-.1,1.09-.3,1.17-2.09a4,4,0,0,1,1.55-3,3.93,3.93,0,0,1-1.38-1.34,4,4,0,0,1,0-4.33A4.18,4.18,0,0,0,32.84,76.62Z"/><path class="cls-7" d="M59.36,101.68c-4,0-7.28-1.08-9.62-3.2a13.21,13.21,0,0,1-4-8.34,24.47,24.47,0,0,1-.15-4.6l.4-9.86C46.48,65,52.69,58.26,63.54,56.82a26.66,26.66,0,0,1,3.56-.26c7.76,0,12.77,4.26,13.75,11.67A24,24,0,0,1,81,72.44l-.41,9.86c-.21,5.53-1.8,10-4.73,13.17s-7.22,5.2-12.79,6A29.1,29.1,0,0,1,59.36,101.68Zm5-29.27c-.84.13-1.62.25-1.72,2.64l-.41,9.52c0,.38,0,.81,0,1.26h.09a2.29,2.29,0,0,0,1.23-.46h0A6,6,0,0,0,64,83l.4-9.47a8.63,8.63,0,0,0,0-1.07Z"/><path class="cls-7" d="M81.92,98.18A4,4,0,0,1,78,94l1.51-35.64a4,4,0,0,1,3.45-3.8l13.94-1.86a23.79,23.79,0,0,1,3.16-.22,12.39,12.39,0,0,1,8,2.44,10.63,10.63,0,0,1,3.8,7,15.66,15.66,0,0,1,.11,2.77l-.13,2.4a13,13,0,0,1-1.51,5.6,9,9,0,0,1,2.34,5,12.39,12.39,0,0,1,.06,2.6l-.08,1.46a14.64,14.64,0,0,1-3.9,9.54c-2.37,2.51-5.79,4.08-10.16,4.67l-16,2.14A4.73,4.73,0,0,1,81.92,98.18Z"/><path class="cls-7" d="M111,94.29a4,4,0,0,1-3.89-4.83L114.88,53a4,4,0,0,1,3.37-3.13l15.86-2.12.53,0a4,4,0,0,1,3.94,3.45L143.36,86a4,4,0,0,1-.77,3A4,4,0,0,1,140,90.46l-9.14,1.22a3,3,0,0,1-.52,0,4,4,0,0,1-4-3.63L126,84.6l-1,.14-.86,5A4,4,0,0,1,120.72,93l-9.19,1.23A4.53,4.53,0,0,1,111,94.29Z"/><path class="cls-7" d="M155.53,88.35a4,4,0,0,1-2.69-1,4,4,0,0,1-1.28-3.12l1.51-35.64a4,4,0,0,1,3.45-3.8l8.65-1.15a3,3,0,0,1,.52,0,3.93,3.93,0,0,1,2.68,1.05,4,4,0,0,1,1.3,3.12l-1,23.15,8.58-1.14a4.55,4.55,0,0,1,.52,0,4,4,0,0,1,4,4.19l-.35,7.72A4,4,0,0,1,178,85.38l-21.92,2.93A4.55,4.55,0,0,1,155.53,88.35Z"/><path class="cls-7" d="M179.13,85.19a4,4,0,0,1-2.92-1.28,4,4,0,0,1-1-3.55L183,43.88a4,4,0,0,1,3.36-3.13l15.87-2.11a3,3,0,0,1,.52,0,4,4,0,0,1,3.94,3.45l4.79,34.8a4.05,4.05,0,0,1-.78,3,4,4,0,0,1-2.64,1.54l-9.13,1.22a3.15,3.15,0,0,1-.53,0,3.92,3.92,0,0,1-2.47-.87A4,4,0,0,1,194.45,79l-.32-3.49-1,.14-.85,5a4,4,0,0,1-3.4,3.28l-9.18,1.23A4.71,4.71,0,0,1,179.13,85.19Z"/><path class="cls-7" d="M221.18,80.08c-4,0-7.2-1.09-9.47-3.24a13.46,13.46,0,0,1-3.81-8.25,26.38,26.38,0,0,1-.16-4.69l.4-9.87c.45-10.72,6.67-17.42,17.51-18.87a26.89,26.89,0,0,1,3.37-.23,15,15,0,0,1,8,2.07,12.14,12.14,0,0,1,5.58,9,17.1,17.1,0,0,1,0,4.52,17.6,17.6,0,0,1-.73,3.53l-.22.59a4,4,0,0,1,.63,2.37l-.22,4.27L242,62.7c-.44,9.62-6.57,15.69-17.25,17.12A27.38,27.38,0,0,1,221.18,80.08ZM226,50.82c-.66.14-1.19.51-1.27,2.57l-.05,1.27.41-.08.23,0a4.11,4.11,0,0,1,.47-1.59,2.78,2.78,0,0,0,.28-1.76A3.25,3.25,0,0,0,226,50.82Z"/><path class="cls-7" d="M243.31,76.62a4,4,0,0,1-4-4.17l1.51-35.64A4,4,0,0,1,244.3,33L253,31.86a4.71,4.71,0,0,1,.53,0,4,4,0,0,1,4,4.16L256,71.63a4,4,0,0,1-3.45,3.79l-8.7,1.17A4.71,4.71,0,0,1,243.31,76.62Z"/><path class="cls-7" d="M270.33,73a4,4,0,0,1-4-4.17l1.51-35.63a4,4,0,0,1,3.45-3.8l8.94-1.19a3.15,3.15,0,0,1,.53,0,4,4,0,0,1,3.56,2.24l1.44,2.94.11-2.57A4,4,0,0,1,289.35,27L298,25.85a3.15,3.15,0,0,1,.53,0,4,4,0,0,1,2.68,1.05A4,4,0,0,1,302.5,30L301,65.61a4,4,0,0,1-3.45,3.8l-8.71,1.16a4.55,4.55,0,0,1-.52,0,4,4,0,0,1-3.59-2.3l-1.64-3.48L283,68a4,4,0,0,1-3.45,3.81L270.86,73A4.71,4.71,0,0,1,270.33,73Z"/><path class="cls-7" d="M301.68,68.83a4,4,0,0,1-2.92-1.29,4,4,0,0,1-1-3.55l7.76-36.47a4,4,0,0,1,3.36-3.13l15.87-2.12a4.71,4.71,0,0,1,.53,0,4,4,0,0,1,3.93,3.45L334,60.48A4,4,0,0,1,330.61,65l-9.13,1.22a4.53,4.53,0,0,1-.52,0,4,4,0,0,1-4-3.62l-.33-3.5-1,.14-.86,5a4,4,0,0,1-3.4,3.29l-9.18,1.22A3,3,0,0,1,301.68,68.83Z"/><path class="cls-7" d="M334.66,64.42a4,4,0,0,1-4-4.17l1.51-35.64a4,4,0,0,1,3.45-3.79l8.94-1.19a3,3,0,0,1,.52,0,4,4,0,0,1,3.57,2.24l1.44,2.94.11-2.57a4,4,0,0,1,3.44-3.79l8.66-1.15a3,3,0,0,1,.52,0,4,4,0,0,1,2.68,1.05,4,4,0,0,1,1.29,3.12L365.36,57a4,4,0,0,1-3.45,3.8L353.21,62l-.52,0a4,4,0,0,1-3.6-2.29l-1.63-3.48-.13,3.18a4,4,0,0,1-3.45,3.81l-8.7,1.16A4.53,4.53,0,0,1,334.66,64.42Z"/><path class="cls-7" d="M377.16,58.75a4,4,0,0,1-2.69-1,4.07,4.07,0,0,1-1.29-3.12l1-23.16-7.18,1a3.15,3.15,0,0,1-.53,0,4,4,0,0,1-2.69-1.05,4.05,4.05,0,0,1-1.28-3.13l.35-7.73a4,4,0,0,1,3.45-3.78l32.4-4.33a4.71,4.71,0,0,1,.53,0,3.93,3.93,0,0,1,2.68,1.05,4,4,0,0,1,1.29,3.13l-.35,7.72a4,4,0,0,1-3.45,3.79l-8.52,1.13-1,24.56a4,4,0,0,1-3.45,3.8l-8.7,1.16A3,3,0,0,1,377.16,58.75Z"/><path class="cls-7" d="M401.63,55.48a4,4,0,0,1-2.69-1,4,4,0,0,1-1.29-3.12l1.51-35.64a4,4,0,0,1,3.45-3.79l8.66-1.16a4.55,4.55,0,0,1,.52,0,3.93,3.93,0,0,1,2.68,1.05,4,4,0,0,1,1.29,3.12L414.3,50.48a4,4,0,0,1-3.45,3.8l-8.7,1.16A3,3,0,0,1,401.63,55.48Z"/><path class="cls-8" d="M27.49,105.88c-3.89,0-7-1-9.25-2.94a12.82,12.82,0,0,1-4-8.2,24.9,24.9,0,0,1-.16-4.29l.5-11.38c.45-10.23,6.67-16.66,17.5-18.11a26.76,26.76,0,0,1,3.37-.23,14.93,14.93,0,0,1,8.06,2.07,12.11,12.11,0,0,1,5.59,9,18.19,18.19,0,0,1,0,5,17.46,17.46,0,0,1-1,3.9l-.37,1a4,4,0,0,1-1.21,1.66,4.08,4.08,0,0,1,.76.55,4,4,0,0,1,1.3,3.11l-.06,1.44c-.36,9.6-6.48,15.68-17.23,17.11A29.17,29.17,0,0,1,27.49,105.88Zm5-29.26c-.73.13-1.2.43-1.27,2.32l-.39,10a9.12,9.12,0,0,0,0,1c.68-.1,1.09-.3,1.17-2.09a4,4,0,0,1,1.55-3,4,4,0,0,1-1.33-5.67A4.12,4.12,0,0,0,32.47,76.62Z"/><path class="cls-8" d="M59.05,101.68c-4,0-7.3-1.08-9.64-3.2a13.17,13.17,0,0,1-4-8.34,24.47,24.47,0,0,1-.15-4.6l.4-9.86C46.14,65,52.37,58.26,63.24,56.82a26.68,26.68,0,0,1,3.57-.26c7.77,0,12.79,4.26,13.77,11.67a24,24,0,0,1,.15,4.21l-.41,9.86c-.21,5.53-1.81,10-4.74,13.17s-7.23,5.2-12.82,6A29.1,29.1,0,0,1,59.05,101.68Zm5-29.27c-.83.13-1.62.25-1.72,2.64l-.41,9.52a11.22,11.22,0,0,0,0,1.26H62a2.26,2.26,0,0,0,1.23-.46h0A5.79,5.79,0,0,0,63.66,83l.41-9.47a8.63,8.63,0,0,0,0-1.07Z"/><path class="cls-8" d="M81.66,98.18a4,4,0,0,1-4-4.17l1.51-35.64a4,4,0,0,1,3.46-3.8l14-1.86a23.67,23.67,0,0,1,3.16-.22,12.4,12.4,0,0,1,8,2.44,10.6,10.6,0,0,1,3.81,7,15.66,15.66,0,0,1,.11,2.77l-.13,2.4a12.89,12.89,0,0,1-1.51,5.6,9.06,9.06,0,0,1,2.35,5,13.91,13.91,0,0,1,.06,2.6l-.09,1.46a14.6,14.6,0,0,1-3.91,9.54c-2.37,2.51-5.79,4.08-10.17,4.67L82.18,98.14A4.55,4.55,0,0,1,81.66,98.18Z"/><path class="cls-8" d="M110.8,94.29a4,4,0,0,1-3.89-4.83L114.68,53a4,4,0,0,1,3.37-3.13L134,47.73l.53,0a4,4,0,0,1,3.94,3.45l4.8,34.8a4,4,0,0,1-3.42,4.51l-9.16,1.22a3,3,0,0,1-.52,0,4,4,0,0,1-4-3.63l-.32-3.49-1,.14-.86,5a4,4,0,0,1-3.4,3.29l-9.2,1.23A4.71,4.71,0,0,1,110.8,94.29Z"/><path class="cls-8" d="M155.41,88.35a4,4,0,0,1-4-4.17l1.51-35.64a4,4,0,0,1,3.46-3.8l8.67-1.15a3,3,0,0,1,.52,0,4,4,0,0,1,4,4.17l-1,23.15,8.59-1.14a4.73,4.73,0,0,1,.53,0,3.94,3.94,0,0,1,2.69,1.06,4,4,0,0,1,1.29,3.13l-.35,7.72a4,4,0,0,1-3.46,3.78l-22,2.93A4.55,4.55,0,0,1,155.41,88.35Z"/><path class="cls-8" d="M179.06,85.19a4,4,0,0,1-3.89-4.83l7.77-36.48a4,4,0,0,1,3.37-3.13l15.9-2.11a3.15,3.15,0,0,1,.53,0,4,4,0,0,1,3.94,3.45l4.8,34.8a4.05,4.05,0,0,1-.78,3,4,4,0,0,1-2.64,1.54l-9.16,1.22a3,3,0,0,1-.52,0,4,4,0,0,1-2.48-.87A4,4,0,0,1,194.41,79l-.33-3.49-1,.14-.86,5a4,4,0,0,1-3.4,3.28l-9.2,1.23A4.71,4.71,0,0,1,179.06,85.19Z"/><path class="cls-8" d="M221.19,80.08c-4,0-7.21-1.09-9.49-3.24a13.46,13.46,0,0,1-3.81-8.25,25.47,25.47,0,0,1-.16-4.69l.4-9.87c.44-10.72,6.68-17.42,17.54-18.87a26.91,26.91,0,0,1,3.38-.23,15,15,0,0,1,8,2.07,12.14,12.14,0,0,1,5.6,9,18,18,0,0,1,0,4.52,18.34,18.34,0,0,1-.73,3.53l-.23.59a4,4,0,0,1,.63,2.37l-.22,4.27-.05,1.38c-.45,9.62-6.58,15.69-17.29,17.12A27.52,27.52,0,0,1,221.19,80.08ZM226,50.82c-.67.14-1.2.51-1.28,2.57l-.05,1.27.41-.08.23,0A4.11,4.11,0,0,1,225.8,53a2.78,2.78,0,0,0,.28-1.76C226.06,51.06,226,50.93,226,50.82Z"/><path class="cls-8" d="M243.37,76.62a4,4,0,0,1-4-4.17l1.51-35.64A4,4,0,0,1,244.36,33L253,31.86l.52,0a4,4,0,0,1,4,4.16l-1.47,35.64a4,4,0,0,1-3.46,3.79l-8.71,1.17A4.71,4.71,0,0,1,243.37,76.62Z"/><path class="cls-8" d="M270.44,73a4,4,0,0,1-2.69-1,4.06,4.06,0,0,1-1.29-3.13L268,33.21a4,4,0,0,1,3.45-3.8l9-1.19a3.15,3.15,0,0,1,.53,0,4,4,0,0,1,3.57,2.24l1.44,2.94.11-2.57A4,4,0,0,1,289.5,27l8.67-1.15a3,3,0,0,1,.52,0,4,4,0,0,1,4,4.17l-1.46,35.63a4,4,0,0,1-3.46,3.8L289,70.57a4.55,4.55,0,0,1-.52,0,4,4,0,0,1-3.6-2.3l-1.64-3.48L283.14,68a4,4,0,0,1-3.45,3.81L271,73A4.71,4.71,0,0,1,270.44,73Z"/><path class="cls-8" d="M301.85,68.83A4,4,0,0,1,298,64l7.77-36.47a4,4,0,0,1,3.37-3.13L325,22.27a4.71,4.71,0,0,1,.53,0,4,4,0,0,1,3.94,3.45l4.8,34.79a4.07,4.07,0,0,1-.78,3A4,4,0,0,1,330.85,65l-9.16,1.22a4.53,4.53,0,0,1-.52,0,4,4,0,0,1-4-3.62l-.33-3.5-1,.14-.86,5a4,4,0,0,1-3.4,3.29l-9.2,1.22A3.15,3.15,0,0,1,301.85,68.83Z"/><path class="cls-8" d="M334.9,64.42a4,4,0,0,1-4-4.17l1.51-35.64a4,4,0,0,1,3.46-3.79l9-1.19a3,3,0,0,1,.52,0A4,4,0,0,1,349,21.83l1.44,2.94.11-2.57A4,4,0,0,1,354,18.41l8.67-1.15a3.15,3.15,0,0,1,.53,0,4,4,0,0,1,4,4.17L365.66,57a4,4,0,0,1-3.45,3.8L353.49,62,353,62a4,4,0,0,1-3.6-2.29l-1.64-3.48-.12,3.18a4,4,0,0,1-3.46,3.81l-8.72,1.16A4.53,4.53,0,0,1,334.9,64.42Z"/><path class="cls-8" d="M377.48,58.75a4,4,0,0,1-2.69-1,4,4,0,0,1-1.29-3.12l1-23.16-7.2,1a3.12,3.12,0,0,1-.52,0,4,4,0,0,1-4-4.18l.35-7.73a4,4,0,0,1,3.45-3.78L399,12.4l.52,0a4,4,0,0,1,4,4.18l-.35,7.72a4,4,0,0,1-3.45,3.79l-8.54,1.13-1,24.56a4,4,0,0,1-3.46,3.8L378,58.71A3.15,3.15,0,0,1,377.48,58.75Z"/><path class="cls-8" d="M402,55.48a4,4,0,0,1-4-4.17l1.51-35.64A4,4,0,0,1,403,11.88l8.67-1.16a4.73,4.73,0,0,1,.52,0,4,4,0,0,1,2.69,1.05,4,4,0,0,1,1.3,3.12L414.7,50.48a4,4,0,0,1-3.46,3.8l-8.72,1.16A3,3,0,0,1,402,55.48Z"/><path class="cls-9" d="M27.11,105.88c-3.9,0-7-1-9.26-2.94a12.73,12.73,0,0,1-4-8.2,23.94,23.94,0,0,1-.16-4.29l.5-11.38C14.67,68.84,20.9,62.41,31.75,61a27,27,0,0,1,3.38-.23A14.94,14.94,0,0,1,43.2,62.8a12.1,12.1,0,0,1,5.61,9,17.82,17.82,0,0,1-.06,5,17,17,0,0,1-1,3.9l-.38,1A4,4,0,0,1,46.2,83.4,4.08,4.08,0,0,1,47,84a4,4,0,0,1,1.31,3.11l-.06,1.44c-.37,9.6-6.5,15.68-17.27,17.11A29.31,29.31,0,0,1,27.11,105.88Zm5-29.26c-.73.13-1.21.43-1.28,2.32l-.39,10a9.12,9.12,0,0,0,0,1c.68-.1,1.09-.3,1.17-2.09a4,4,0,0,1,1.55-3,3.93,3.93,0,0,1-1.38-1.34,4,4,0,0,1,.05-4.33A4.18,4.18,0,0,0,32.11,76.62Z"/><path class="cls-9" d="M58.73,101.68c-4,0-7.3-1.08-9.65-3.2a13.18,13.18,0,0,1-4-8.34,24.47,24.47,0,0,1-.15-4.6l.41-9.86C45.8,65,52,58.26,62.93,56.82a26.94,26.94,0,0,1,3.58-.26c7.79,0,12.82,4.26,13.8,11.67a24,24,0,0,1,.15,4.21l-.41,9.86c-.21,5.53-1.81,10-4.74,13.17s-7.25,5.2-12.85,6A29.28,29.28,0,0,1,58.73,101.68Zm5-29.27c-.84.13-1.63.25-1.72,2.64l-.41,9.52a11.08,11.08,0,0,0,0,1.26h.09A2.29,2.29,0,0,0,63,85.36h0A6,6,0,0,0,63.36,83l.41-9.47a8.44,8.44,0,0,0-.05-1.07Z"/><path class="cls-9" d="M81.39,98.18a4,4,0,0,1-4-4.17l1.52-35.64a4,4,0,0,1,3.46-3.8l14-1.86a23.82,23.82,0,0,1,3.17-.22,12.48,12.48,0,0,1,8,2.44,10.6,10.6,0,0,1,3.81,7,14.76,14.76,0,0,1,.11,2.77l-.13,2.4a12.89,12.89,0,0,1-1.51,5.6,9,9,0,0,1,2.35,5,12.39,12.39,0,0,1,.06,2.6l-.09,1.46a14.55,14.55,0,0,1-3.91,9.54C105.85,93.84,102.42,95.41,98,96L81.92,98.14A4.91,4.91,0,0,1,81.39,98.18Z"/><path class="cls-9" d="M110.59,94.29a4,4,0,0,1-3.9-4.83L114.48,53a4,4,0,0,1,3.38-3.13l15.93-2.12a4.71,4.71,0,0,1,.53,0,4,4,0,0,1,4,3.45L143.08,86a4.05,4.05,0,0,1-.78,3,4,4,0,0,1-2.65,1.54l-9.18,1.22a3,3,0,0,1-.52,0,4,4,0,0,1-4-3.63l-.32-3.49-1,.14-.86,5A4,4,0,0,1,120.34,93l-9.22,1.23A4.71,4.71,0,0,1,110.59,94.29Z"/><path class="cls-9" d="M155.29,88.35a4,4,0,0,1-4-4.17l1.52-35.64a4,4,0,0,1,3.46-3.8L165,43.59a3,3,0,0,1,.52,0,4,4,0,0,1,4,4.17l-1,23.15,8.61-1.14a4.55,4.55,0,0,1,.52,0,3.94,3.94,0,0,1,2.7,1.06,4,4,0,0,1,1.29,3.13l-.35,7.72a4,4,0,0,1-3.46,3.78l-22,2.93A4.55,4.55,0,0,1,155.29,88.35Z"/><path class="cls-9" d="M179,85.19a4,4,0,0,1-3.9-4.83l7.79-36.48a4,4,0,0,1,3.38-3.13l15.92-2.11a3.23,3.23,0,0,1,.53,0,4,4,0,0,1,3.95,3.45l4.81,34.8A4,4,0,0,1,208,81.36l-9.17,1.22a3,3,0,0,1-.52,0,4,4,0,0,1-4-3.63L194,75.5l-1,.14-.86,5a4,4,0,0,1-3.41,3.28l-9.22,1.23A4.53,4.53,0,0,1,179,85.19Z"/><path class="cls-9" d="M221.2,80.08c-4,0-7.22-1.09-9.51-3.24a13.53,13.53,0,0,1-3.82-8.25,26.38,26.38,0,0,1-.16-4.69l.41-9.87c.44-10.72,6.68-17.42,17.57-18.87a27,27,0,0,1,3.38-.23A15.07,15.07,0,0,1,237.15,37a12.14,12.14,0,0,1,5.6,9,17.1,17.1,0,0,1,0,4.52,17.6,17.6,0,0,1-.73,3.53l-.23.59a4,4,0,0,1,.64,2.37l-.22,4.27-.06,1.38c-.44,9.62-6.59,15.69-17.32,17.12A27.67,27.67,0,0,1,221.2,80.08ZM226,50.82c-.67.14-1.2.51-1.28,2.57l-.06,1.27.42-.08.23,0a4.11,4.11,0,0,1,.47-1.59,2.78,2.78,0,0,0,.28-1.76C226.08,51.06,226.06,50.93,226,50.82Z"/><path class="cls-9" d="M243.43,76.62a4,4,0,0,1-4-4.17L241,36.81A4,4,0,0,1,244.42,33l8.69-1.16a4.53,4.53,0,0,1,.52,0,4,4,0,0,1,4,4.16l-1.47,35.64a4,4,0,0,1-3.46,3.79L244,76.59A4.53,4.53,0,0,1,243.43,76.62Z"/><path class="cls-9" d="M270.55,73a4,4,0,0,1-4-4.17l1.51-35.63a4,4,0,0,1,3.47-3.8l9-1.19a3.23,3.23,0,0,1,.53,0,4,4,0,0,1,3.58,2.24l1.44,2.94.11-2.57A4,4,0,0,1,289.65,27l8.69-1.15a3,3,0,0,1,.52,0,4,4,0,0,1,4,4.17l-1.47,35.63a4,4,0,0,1-3.46,3.8l-8.74,1.16a4.73,4.73,0,0,1-.53,0,4,4,0,0,1-3.6-2.3l-1.65-3.48L283.28,68a4,4,0,0,1-3.46,3.81L271.08,73A4.71,4.71,0,0,1,270.55,73Z"/><path class="cls-9" d="M302,68.83A4,4,0,0,1,298.12,64l7.79-36.47a4,4,0,0,1,3.38-3.13l15.93-2.12.53,0a4,4,0,0,1,3.95,3.45l4.81,34.79A4,4,0,0,1,331.08,65l-9.17,1.22a4.71,4.71,0,0,1-.53,0,4,4,0,0,1-4-3.62l-.33-3.5-1,.14-.86,5a4,4,0,0,1-3.41,3.29l-9.22,1.22A3.12,3.12,0,0,1,302,68.83Z"/><path class="cls-9" d="M335.14,64.42a4,4,0,0,1-4-4.17l1.52-35.64a4,4,0,0,1,3.46-3.79l9-1.19a3,3,0,0,1,.52,0,4,4,0,0,1,3.58,2.24l1.45,2.94.11-2.57a4,4,0,0,1,3.46-3.79l8.69-1.15a3,3,0,0,1,.52,0,4,4,0,0,1,4,4.17L366,57a4,4,0,0,1-3.46,3.8L353.76,62a4.53,4.53,0,0,1-.52,0,4,4,0,0,1-3.61-2.29L348,56.24l-.13,3.18a4,4,0,0,1-3.46,3.81l-8.74,1.16A4.53,4.53,0,0,1,335.14,64.42Z"/><path class="cls-9" d="M377.81,58.75a4,4,0,0,1-4-4.17l1-23.16-7.21,1a3,3,0,0,1-.52,0,4,4,0,0,1-4-4.18l.35-7.73a4,4,0,0,1,3.47-3.78l32.53-4.33a4.53,4.53,0,0,1,.52,0,4,4,0,0,1,4,4.18l-.35,7.72a4,4,0,0,1-3.46,3.79l-8.55,1.13-1,24.56a4,4,0,0,1-3.46,3.8l-8.74,1.16A3,3,0,0,1,377.81,58.75Z"/><path class="cls-9" d="M402.37,55.48a4,4,0,0,1-4-4.17l1.51-35.64a4,4,0,0,1,3.47-3.79l8.68-1.16a4.91,4.91,0,0,1,.53,0,4,4,0,0,1,4,4.17L415.1,50.48a4,4,0,0,1-3.46,3.8l-8.74,1.16A3.15,3.15,0,0,1,402.37,55.48Z"/><path class="cls-10" d="M26.74,105.88c-3.91,0-7-1-9.29-2.94a12.78,12.78,0,0,1-4-8.2,23.9,23.9,0,0,1-.17-4.29l.51-11.38C14.27,68.84,20.51,62.41,31.38,61a27.07,27.07,0,0,1,3.39-.23,15,15,0,0,1,8.09,2.07,12.14,12.14,0,0,1,5.62,9,17.82,17.82,0,0,1-.06,5,16.93,16.93,0,0,1-1,3.9l-.37,1a4,4,0,0,1-1.22,1.66,4.15,4.15,0,0,1,.77.55,4,4,0,0,1,1.3,3.11l-.06,1.44c-.36,9.6-6.51,15.68-17.3,17.11A29.43,29.43,0,0,1,26.74,105.88Zm5-29.26c-.73.13-1.21.43-1.28,2.32l-.39,10a9.12,9.12,0,0,0,0,1c.68-.1,1.09-.3,1.17-2.09a4,4,0,0,1,1.56-3,3.88,3.88,0,0,1-1.39-1.34,4,4,0,0,1,.05-4.33A4.18,4.18,0,0,0,31.74,76.62Z"/><path class="cls-10" d="M58.42,101.68c-4.07,0-7.32-1.08-9.68-3.2a13.18,13.18,0,0,1-4-8.34,24.47,24.47,0,0,1-.15-4.6L45,75.68c.44-10.72,6.7-17.42,17.61-18.86a26.83,26.83,0,0,1,3.58-.26C74,56.56,79.06,60.82,80,68.23a24,24,0,0,1,.15,4.21l-.41,9.86c-.21,5.53-1.81,10-4.76,13.17s-7.26,5.2-12.87,6A29.28,29.28,0,0,1,58.42,101.68Zm5-29.27c-.84.13-1.63.25-1.73,2.64l-.41,9.52a11.08,11.08,0,0,0,0,1.26h.09a2.26,2.26,0,0,0,1.23-.46h0A5.64,5.64,0,0,0,63.06,83l.41-9.47a8.44,8.44,0,0,0,0-1.07Z"/><path class="cls-10" d="M81.12,98.18a4,4,0,0,1-4-4.17l1.52-35.64a4,4,0,0,1,3.47-3.8l14-1.86a24.08,24.08,0,0,1,3.18-.22,12.49,12.49,0,0,1,8,2.44,10.58,10.58,0,0,1,3.83,7,15.68,15.68,0,0,1,.1,2.77l-.13,2.4a12.89,12.89,0,0,1-1.51,5.6,9,9,0,0,1,2.35,5,12.39,12.39,0,0,1,.06,2.6l-.08,1.46A14.61,14.61,0,0,1,108,91.33c-2.39,2.51-5.82,4.08-10.22,4.67L81.65,98.14A4.73,4.73,0,0,1,81.12,98.18Z"/><path class="cls-10" d="M110.38,94.29a4,4,0,0,1-3.91-4.83L114.28,53a4,4,0,0,1,3.39-3.13l16-2.12a4.58,4.58,0,0,1,.53,0,4,4,0,0,1,4,3.45L142.93,86a4,4,0,0,1-3.43,4.51l-9.2,1.22a3,3,0,0,1-.52,0,4,4,0,0,1-4-3.63l-.32-3.49-1,.14-.87,5A4,4,0,0,1,120.15,93l-9.24,1.23A4.71,4.71,0,0,1,110.38,94.29Z"/><path class="cls-10" d="M155.17,88.35a4,4,0,0,1-4-4.17l1.52-35.64a4,4,0,0,1,3.47-3.8l8.71-1.15a3,3,0,0,1,.52,0,4,4,0,0,1,4,4.17l-1,23.15,8.63-1.14a4.73,4.73,0,0,1,.53,0,4,4,0,0,1,4,4.19l-.35,7.72a4,4,0,0,1-3.47,3.78L155.7,88.31A4.91,4.91,0,0,1,155.17,88.35Z"/><path class="cls-10" d="M178.92,85.19A4,4,0,0,1,175,80.36l7.8-36.48a4,4,0,0,1,3.39-3.13l16-2.11a3.15,3.15,0,0,1,.53,0,4,4,0,0,1,4,3.45l4.81,34.8A4,4,0,0,1,208,81.36l-9.19,1.22a3.15,3.15,0,0,1-.53,0,4,4,0,0,1-4-3.63L194,75.5l-1,.14-.86,5a4,4,0,0,1-3.42,3.28l-9.24,1.23A4.53,4.53,0,0,1,178.92,85.19Z"/><path class="cls-10" d="M221.22,80.08c-4,0-7.24-1.09-9.53-3.24a13.43,13.43,0,0,1-3.83-8.25,25.47,25.47,0,0,1-.16-4.69l.4-9.87c.45-10.72,6.7-17.42,17.62-18.87a27,27,0,0,1,3.38-.23A15.08,15.08,0,0,1,237.19,37a12.13,12.13,0,0,1,5.62,9,18,18,0,0,1,0,4.52,17.51,17.51,0,0,1-.74,3.53s-.22.59-.22.59a4,4,0,0,1,.63,2.37l-.22,4.27,0,1.38c-.45,9.62-6.61,15.69-17.36,17.12A27.79,27.79,0,0,1,221.22,80.08Zm4.84-29.26c-.67.14-1.2.51-1.28,2.57l-.06,1.27.42-.08.23,0a4.11,4.11,0,0,1,.47-1.59,2.71,2.71,0,0,0,.28-1.76C226.1,51.06,226.08,50.93,226.06,50.82Z"/><path class="cls-10" d="M243.48,76.62a4,4,0,0,1-4-4.17L241,36.81A4,4,0,0,1,244.48,33l8.7-1.16a4.71,4.71,0,0,1,.53,0,4,4,0,0,1,4,4.16l-1.48,35.64a4,4,0,0,1-3.47,3.79L244,76.59A4.71,4.71,0,0,1,243.48,76.62Z"/><path class="cls-10" d="M270.67,73a4,4,0,0,1-4-4.17l1.52-35.63a4,4,0,0,1,3.47-3.8l9-1.19a3.23,3.23,0,0,1,.53,0,4,4,0,0,1,3.59,2.24l1.45,2.94.11-2.57A4,4,0,0,1,289.8,27l8.7-1.15a3.15,3.15,0,0,1,.53,0A4,4,0,0,1,303,30l-1.48,35.63a4,4,0,0,1-3.47,3.8l-8.75,1.16a4.73,4.73,0,0,1-.53,0,4,4,0,0,1-3.61-2.3l-1.65-3.48L283.42,68A4,4,0,0,1,280,71.82L271.19,73A4.53,4.53,0,0,1,270.67,73Z"/><path class="cls-10" d="M302.2,68.83A4,4,0,0,1,298.29,64l7.8-36.47a4,4,0,0,1,3.39-3.13l16-2.12.53,0a4,4,0,0,1,4,3.45l4.82,34.79A4,4,0,0,1,331.31,65l-9.19,1.22a4.58,4.58,0,0,1-.53,0,4,4,0,0,1-4-3.62l-.33-3.5-1,.14-.86,5A4,4,0,0,1,312,67.57l-9.23,1.22A3.23,3.23,0,0,1,302.2,68.83Z"/><path class="cls-10" d="M335.38,64.42a4,4,0,0,1-4-4.17l1.52-35.64a4,4,0,0,1,3.47-3.79l9-1.19a3.08,3.08,0,0,1,.53,0,4,4,0,0,1,3.58,2.24l1.45,2.94L351,22.2a4,4,0,0,1,3.47-3.79l8.7-1.15a3.23,3.23,0,0,1,.53,0,4,4,0,0,1,4,4.17L366.27,57a4,4,0,0,1-3.47,3.8L354,62a4.58,4.58,0,0,1-.53,0,4,4,0,0,1-3.61-2.29l-1.65-3.48-.12,3.18a4,4,0,0,1-3.47,3.81l-8.76,1.16A4.53,4.53,0,0,1,335.38,64.42Z"/><path class="cls-10" d="M378.13,58.75a4,4,0,0,1-4-4.17l1-23.16-7.22,1a3.15,3.15,0,0,1-.53,0,4,4,0,0,1-4-4.18l.35-7.73a4,4,0,0,1,3.47-3.78l32.6-4.33a4.53,4.53,0,0,1,.52,0,4,4,0,0,1,4,4.18L404,24.27a4,4,0,0,1-3.47,3.79l-8.57,1.13-1,24.56a4,4,0,0,1-3.47,3.8l-8.75,1.16A3.15,3.15,0,0,1,378.13,58.75Z"/><path class="cls-10" d="M402.75,55.48a4,4,0,0,1-4-4.17l1.52-35.64a4,4,0,0,1,3.47-3.79l8.71-1.16a4.55,4.55,0,0,1,.53,0,4,4,0,0,1,4,4.17L415.5,50.48a4,4,0,0,1-3.47,3.8l-8.75,1.16A3.23,3.23,0,0,1,402.75,55.48Z"/><path class="cls-11" d="M27.3,105.32c-3.66,0-6.56-.91-8.63-2.7A11.86,11.86,0,0,1,15,95a22.87,22.87,0,0,1-.15-4.11l.5-11.38c.31-6.86,3.45-15.4,16.7-17.16a25.1,25.1,0,0,1,3.26-.23,14.09,14.09,0,0,1,7.55,1.92,11.12,11.12,0,0,1,5.16,8.32,16.88,16.88,0,0,1,0,4.76,16.1,16.1,0,0,1-.91,3.67l-.38,1a3,3,0,0,1-2.4,1.89l-8.56,1.13a2.56,2.56,0,0,1-.39,0,3,3,0,0,1-2.51-4.65,5,5,0,0,0,.44-3.39A1.67,1.67,0,0,0,33,76h-.19l-.31,0c-1.3.17-2.38.54-2.48,3.32l-.39,10a10,10,0,0,0,.06,2,.51.51,0,0,0,0,.13H30a4.08,4.08,0,0,0,.59,0c1.15-.15,2.11-.49,2.23-3.06a3,3,0,0,1,2.6-2.85l8.71-1.15a2.56,2.56,0,0,1,.39,0,3,3,0,0,1,3,3.12l-.06,1.43C47.2,95.3,44.15,103.31,31,105.05A27.33,27.33,0,0,1,27.3,105.32Z"/><path class="cls-11" d="M59,101.12c-3.81,0-6.84-1-9-3a12.26,12.26,0,0,1-3.67-7.72A25.37,25.37,0,0,1,46.17,86l.41-9.86C47,65.83,52.8,59.64,63.33,58.24A26.48,26.48,0,0,1,66.78,58c7.35,0,11.91,3.83,12.84,10.8a22,22,0,0,1,.13,4l-.4,9.87c-.21,5.28-1.72,9.5-4.5,12.53s-6.89,4.92-12.26,5.63A27.35,27.35,0,0,1,59,101.12Zm2-13.87a1.86,1.86,0,0,0,.43,0h0a5.42,5.42,0,0,0,.66-.05A2.69,2.69,0,0,0,64,86.46c.06-.07.57-.72.66-3L65,73.9A8.18,8.18,0,0,0,65,72.66a1.73,1.73,0,0,0-.24-.82h0a2.75,2.75,0,0,0-.37,0,4.57,4.57,0,0,0-.5,0c-1.27.2-2.47.62-2.59,3.6L60.85,85A13.07,13.07,0,0,0,61,87,1.41,1.41,0,0,0,61,87.25Z"/><path class="cls-11" d="M81.69,97.61a3,3,0,0,1-3-3.13l1.52-35.64A3,3,0,0,1,82.81,56l14-1.86a22.08,22.08,0,0,1,3-.22,11.55,11.55,0,0,1,7.38,2.22,9.49,9.49,0,0,1,3.46,6.36,14.74,14.74,0,0,1,.1,2.6l-.13,2.4a11.42,11.42,0,0,1-1.78,5.79,8.1,8.1,0,0,1,2.63,5,11.12,11.12,0,0,1,0,2.39l-.08,1.49a13.69,13.69,0,0,1-3.65,8.91c-2.22,2.34-5.46,3.81-9.62,4.36L82.08,97.58A2.56,2.56,0,0,1,81.69,97.61Zm12.2-15.32,1.29-.17a3,3,0,0,0,1.59-.62.8.8,0,0,0,.16-.21s0,0,0-.06h-.27a5.1,5.1,0,0,0-.64,0l-2.09.28Zm.51-12.82h0c1.66-.22,1.63-.49,1.52-1.31,0-.06,0-.1,0-.14h0l-.31,0-1.12.15Z"/><path class="cls-11" d="M111,93.73A3,3,0,0,1,108,90.1l7.8-36.48a3,3,0,0,1,2.54-2.34l16-2.12.4,0a3,3,0,0,1,3,2.59l4.82,34.8a3,3,0,0,1-2.58,3.38l-9.19,1.22a2.6,2.6,0,0,1-.4,0,3.06,3.06,0,0,1-1.87-.65,3,3,0,0,1-1.11-2.07l-.43-4.53-2.8.37-1,5.74a3,3,0,0,1-2.57,2.46l-9.23,1.23Z"/><path class="cls-11" d="M155.74,87.78a3,3,0,0,1-3-3.13L154.26,49a3,3,0,0,1,2.6-2.84L165.57,45a2.55,2.55,0,0,1,.39,0,3,3,0,0,1,3,3.12l-1,24.35,9.81-1.31.39,0a3,3,0,0,1,2,.79,3,3,0,0,1,1,2.34L180.79,82a3,3,0,0,1-2.6,2.84l-22.06,2.92A2.56,2.56,0,0,1,155.74,87.78Z"/><path class="cls-11" d="M179.48,84.63A3,3,0,0,1,176.55,81l7.81-36.47a3,3,0,0,1,2.54-2.35l16-2.12a2.55,2.55,0,0,1,.39,0,3,3,0,0,1,3,2.58L211,77.42a3,3,0,0,1-.59,2.23,3,3,0,0,1-2,1.16L199.27,82l-.39,0A3,3,0,0,1,197,81.4a3,3,0,0,1-1.12-2.07l-.42-4.53-2.8.38-1,5.73a3,3,0,0,1-2.56,2.46l-9.24,1.23A2.69,2.69,0,0,1,179.48,84.63Z"/><path class="cls-11" d="M221.78,79.51c-3.77,0-6.74-1-8.84-3a12.44,12.44,0,0,1-3.52-7.65,24.37,24.37,0,0,1-.16-4.51l.41-9.87c.43-10.33,6.22-16.52,16.74-17.92a25.22,25.22,0,0,1,3.26-.23,14.12,14.12,0,0,1,7.56,1.92,11.14,11.14,0,0,1,5.15,8.32,16.06,16.06,0,0,1,0,4.27,16.58,16.58,0,0,1-.69,3.33s-.41,1.06-.41,1.07a3,3,0,0,1,.77,2.17l-.22,4.26-.06,1.39c-.29,6.43-3.4,14.43-16.48,16.17A26,26,0,0,1,221.78,79.51Zm5.36-29.32-.3,0c-1.25.17-2.38.57-2.49,3.58l-.13,3a3,3,0,0,1,1.62-.75l1.14-.15a3.07,3.07,0,0,1,.31-2,3.77,3.77,0,0,0,.39-2.37,3,3,0,0,0-.38-1.3Z"/><path class="cls-11" d="M244.05,76.06a3,3,0,0,1-2-.79,3,3,0,0,1-1-2.34l1.52-35.64a3,3,0,0,1,2.61-2.85l8.7-1.15a2.6,2.6,0,0,1,.4,0,3,3,0,0,1,3,3.12L255.8,72a3,3,0,0,1-2.6,2.85L244.45,76Z"/><path class="cls-11" d="M271.23,72.45a3,3,0,0,1-3-3.13l1.52-35.64a3,3,0,0,1,2.61-2.85l9-1.19a2.69,2.69,0,0,1,.4,0,3,3,0,0,1,2.69,1.68l3.17,6.46.28-6.48a3,3,0,0,1,2.6-2.84l8.71-1.16a2.55,2.55,0,0,1,.39,0,3,3,0,0,1,3,3.12L301.12,66a3,3,0,0,1-2.6,2.85L289.76,70a2.56,2.56,0,0,1-.39,0,3,3,0,0,1-2.71-1.72l-3.39-7.17L283,68.4a3,3,0,0,1-2.6,2.86l-8.75,1.16Z"/><path class="cls-11" d="M302.77,68.26a3,3,0,0,1-2.94-3.63l7.81-36.47a3,3,0,0,1,2.54-2.35l16-2.11a2.69,2.69,0,0,1,.4,0,3,3,0,0,1,3,2.59l4.82,34.79a3,3,0,0,1-2.57,3.39l-9.19,1.22-.4,0a3,3,0,0,1-3-2.72l-.42-4.53-2.8.37-1,5.73A3,3,0,0,1,312.4,67l-9.24,1.22A2.56,2.56,0,0,1,302.77,68.26Z"/><path class="cls-11" d="M335.94,63.86a3,3,0,0,1-3-3.13l1.52-35.64a3,3,0,0,1,2.6-2.85l9-1.19a2.56,2.56,0,0,1,.39,0,3,3,0,0,1,2.69,1.68l3.18,6.46.27-6.48a3,3,0,0,1,2.61-2.84l8.7-1.16a2.69,2.69,0,0,1,.4,0,3,3,0,0,1,3,3.13l-1.47,35.63a3,3,0,0,1-2.6,2.85l-8.75,1.16-.4,0a3,3,0,0,1-2.71-1.72L348,52.56l-.28,7.25a3,3,0,0,1-2.61,2.86l-8.75,1.16A2.6,2.6,0,0,1,335.94,63.86Z"/><path class="cls-11" d="M378.7,58.18a3,3,0,0,1-3-3.12l1-24.35-8.41,1.12-.39,0a3,3,0,0,1-3-3.13l.36-7.73a3,3,0,0,1,2.6-2.84l32.6-4.32.39,0a3,3,0,0,1,3,3.14l-.35,7.72a3,3,0,0,1-2.61,2.84l-9.4,1.25-1.06,25.39a3,3,0,0,1-2.6,2.85l-8.76,1.16A2.56,2.56,0,0,1,378.7,58.18Z"/><path class="cls-11" d="M403.32,54.91a3,3,0,0,1-3-3.13l1.52-35.63a3,3,0,0,1,2.6-2.85l8.71-1.16.39,0a3,3,0,0,1,3,3.12l-1.47,35.63a3,3,0,0,1-2.6,2.85l-8.76,1.17Z"/><path class="cls-12" d="M32,100.65q-6.91.91-10-1.73a8.89,8.89,0,0,1-2.63-5.71,19.6,19.6,0,0,1-.13-3.57l.51-11.39q.54-12.52,14.09-14.32,5.61-.75,8.83,1.26a8.11,8.11,0,0,1,3.77,6.17,13.93,13.93,0,0,1,0,3.92,13.64,13.64,0,0,1-.72,3l-.4,1-8.56,1.14a7.81,7.81,0,0,0,.9-5.44,4.22,4.22,0,0,0-1.29-2.71,3.51,3.51,0,0,0-2.85-.68q-4.89.66-5.08,6.19l-.4,10a12.93,12.93,0,0,0,.09,2.5c.28,2.12,1.69,3,4.24,2.68q4.59-.61,4.83-5.91l8.7-1.15,0,1.43Q45.43,98.88,32,100.65Z"/><path class="cls-12" d="M65.15,59.78q11.66-1.55,12.93,8a18.7,18.7,0,0,1,.11,3.48l-.41,9.9q-.25,6.87-3.7,10.63T63.62,96.45q-7,.93-10.2-1.94a9.33,9.33,0,0,1-2.7-5.89,21.91,21.91,0,0,1-.12-3.87l.41-9.9Q51.57,61.59,65.15,59.78Zm-1.22,29A5.73,5.73,0,0,0,67.64,87c.85-1,1.33-2.6,1.41-4.91l.41-9.51a10.79,10.79,0,0,0-.08-1.76c-.35-2.61-1.84-3.74-4.49-3.39q-5,.77-5.2,6.45l-.41,9.51a17,17,0,0,0,.14,2.54C59.72,88.19,61.23,89.14,63.93,88.78Z"/><path class="cls-12" d="M98.67,55.68q5.51-.74,8.15,1.37a6.56,6.56,0,0,1,2.36,4.41,11.57,11.57,0,0,1,.08,2.06l-.13,2.38a8.23,8.23,0,0,1-1.48,4.58,4.18,4.18,0,0,1-2.48,1.9v.4a4,4,0,0,1,3,1.13A5.08,5.08,0,0,1,110,77.25,9.36,9.36,0,0,1,110,79l-.1,1.54a10.62,10.62,0,0,1-2.83,7Q104.5,90.34,99.28,91L83.12,93.18l1.52-35.64ZM97.05,76.86l-4.59.61-.28,6.82,4.6-.6.19,0a5.58,5.58,0,0,0,3.39-1.51,3.17,3.17,0,0,0,1-2.71C101.06,77.38,99.63,76.51,97.05,76.86Zm-.43-13.23L93,64.11l-.31,7.37L96.27,71q4.65-.61,4.11-4.67a3.2,3.2,0,0,0-1.15-2.17A3.36,3.36,0,0,0,96.62,63.63Z"/><path class="cls-12" d="M131.78,86.72l-.72-7.64L123,80.16l-1.36,7.91-9.24,1.22,7.81-36.47,16-2.12L141,85.5Zm-5.48-26.1-2.19,12.79,6.33-.84-1.1-12.35Z"/><path class="cls-12" d="M179.22,80.42l-22.05,2.93,1.52-35.64,8.7-1.16-1.16,27.91,13.35-1.77Z"/><path class="cls-12" d="M200.31,77.62,199.59,70l-8.07,1.07L190.16,79l-9.24,1.22,7.8-36.47,16-2.12,4.82,34.8Zm-5.48-26.1-2.19,12.8,6.34-.85-1.1-12.35Z"/><path class="cls-12" d="M226.33,74.85q-6.87.91-9.91-1.93a9.58,9.58,0,0,1-2.6-5.86,23,23,0,0,1-.13-4l.41-9.89q.56-13.26,14.14-15.07c3.74-.5,6.69-.08,8.83,1.26a8.09,8.09,0,0,1,3.77,6.17,13.66,13.66,0,0,1,0,3.5,13.83,13.83,0,0,1-.55,2.73l-.36.93-8.57,1.14a6.71,6.71,0,0,0,.73-4.18c-.39-2.9-1.79-4.2-4.21-3.87q-4.87.64-5.1,6.43l-.41,9.51a13.87,13.87,0,0,0,.1,2.59c.29,2.23,1.76,3.16,4.38,2.82a4.9,4.9,0,0,0,4.53-4.64l-4,.52.25-5.49,12.82-1.7-.23,4.26,0,1.43Q239.67,73.09,226.33,74.85Z"/><path class="cls-12" d="M255.71,34.83l-1.47,35.63-8.76,1.16L247,36Z"/><path class="cls-12" d="M301,28.81l-1.47,35.63-8.76,1.17-8.62-18.25-.76,19.49L272.67,68l1.51-35.63,9-1.2,8.36,17L292.32,30Z"/><path class="cls-12" d="M323.59,61.25l-.71-7.63-8.08,1.07-1.36,7.91-9.24,1.23L312,27.35l16-2.11L332.78,60Zm-5.48-26.09L315.92,48l6.34-.84-1.1-12.36Z"/><path class="cls-12" d="M365.74,20.22l-1.47,35.63L355.52,57l-8.63-18.24-.76,19.49-8.75,1.16,1.52-35.64,9-1.19,8.36,17L357,21.38Z"/><path class="cls-12" d="M402,23.09l-11.9,1.58-1.16,27.91-8.76,1.17,1.17-27.92-11.95,1.59.36-7.73,32.59-4.32Z"/><path class="cls-12" d="M415,13.68,413.5,49.32l-8.75,1.16,1.52-35.64Z"/><g class="cls-13"><path class="cls-14" d="M32,100.65q-6.91.91-10-1.73a8.89,8.89,0,0,1-2.63-5.71,19.6,19.6,0,0,1-.13-3.57l.51-11.39q.54-12.52,14.09-14.32,5.61-.75,8.83,1.26a8.11,8.11,0,0,1,3.77,6.17,13.93,13.93,0,0,1,0,3.92,13.64,13.64,0,0,1-.72,3l-.4,1-8.56,1.14a7.81,7.81,0,0,0,.9-5.44,4.22,4.22,0,0,0-1.29-2.71,3.51,3.51,0,0,0-2.85-.68q-4.89.66-5.08,6.19l-.4,10a12.93,12.93,0,0,0,.09,2.5c.28,2.12,1.69,3,4.24,2.68q4.59-.61,4.83-5.91l8.7-1.15,0,1.43Q45.43,98.88,32,100.65Z"/><path class="cls-14" d="M65.15,59.78q11.66-1.55,12.93,8a18.7,18.7,0,0,1,.11,3.48l-.41,9.9q-.25,6.87-3.7,10.63T63.62,96.45q-7,.93-10.2-1.94a9.33,9.33,0,0,1-2.7-5.89,21.91,21.91,0,0,1-.12-3.87l.41-9.9Q51.57,61.59,65.15,59.78Zm-1.22,29A5.73,5.73,0,0,0,67.64,87c.85-1,1.33-2.6,1.41-4.91l.41-9.51a10.79,10.79,0,0,0-.08-1.76c-.35-2.61-1.84-3.74-4.49-3.39q-5,.77-5.2,6.45l-.41,9.51a17,17,0,0,0,.14,2.54C59.72,88.19,61.23,89.14,63.93,88.78Z"/><path class="cls-14" d="M98.67,55.68q5.51-.74,8.15,1.37a6.56,6.56,0,0,1,2.36,4.41,11.57,11.57,0,0,1,.08,2.06l-.13,2.38a8.23,8.23,0,0,1-1.48,4.58,4.18,4.18,0,0,1-2.48,1.9v.4a4,4,0,0,1,3,1.13A5.08,5.08,0,0,1,110,77.25,9.36,9.36,0,0,1,110,79l-.1,1.54a10.62,10.62,0,0,1-2.83,7Q104.5,90.34,99.28,91L83.12,93.18l1.52-35.64ZM97.05,76.86l-4.59.61-.28,6.82,4.6-.6.19,0a5.58,5.58,0,0,0,3.39-1.51,3.17,3.17,0,0,0,1-2.71C101.06,77.38,99.63,76.51,97.05,76.86Zm-.43-13.23L93,64.11l-.31,7.37L96.27,71q4.65-.61,4.11-4.67a3.2,3.2,0,0,0-1.15-2.17A3.36,3.36,0,0,0,96.62,63.63Z"/><path class="cls-14" d="M131.78,86.72l-.72-7.64L123,80.16l-1.36,7.91-9.24,1.22,7.81-36.47,16-2.12L141,85.5Zm-5.48-26.1-2.19,12.79,6.33-.84-1.1-12.35Z"/><path class="cls-14" d="M179.22,80.42l-22.05,2.93,1.52-35.64,8.7-1.16-1.16,27.91,13.35-1.77Z"/><path class="cls-14" d="M200.31,77.62,199.59,70l-8.07,1.07L190.16,79l-9.24,1.22,7.8-36.47,16-2.12,4.82,34.8Zm-5.48-26.1-2.19,12.8,6.34-.85-1.1-12.35Z"/><path class="cls-14" d="M226.33,74.85q-6.87.91-9.91-1.93a9.58,9.58,0,0,1-2.6-5.86,23,23,0,0,1-.13-4l.41-9.89q.56-13.26,14.14-15.07c3.74-.5,6.69-.08,8.83,1.26a8.09,8.09,0,0,1,3.77,6.17,13.66,13.66,0,0,1,0,3.5,13.83,13.83,0,0,1-.55,2.73l-.36.93-8.57,1.14a6.71,6.71,0,0,0,.73-4.18c-.39-2.9-1.79-4.2-4.21-3.87q-4.87.64-5.1,6.43l-.41,9.51a13.87,13.87,0,0,0,.1,2.59c.29,2.23,1.76,3.16,4.38,2.82a4.9,4.9,0,0,0,4.53-4.64l-4,.52.25-5.49,12.82-1.7-.23,4.26,0,1.43Q239.67,73.09,226.33,74.85Z"/><path class="cls-14" d="M255.71,34.83l-1.47,35.63-8.76,1.16L247,36Z"/><path class="cls-14" d="M301,28.81l-1.47,35.63-8.76,1.17-8.62-18.25-.76,19.49L272.67,68l1.51-35.63,9-1.2,8.36,17L292.32,30Z"/><path class="cls-14" d="M323.59,61.25l-.71-7.63-8.08,1.07-1.36,7.91-9.24,1.23L312,27.35l16-2.11L332.78,60Zm-5.48-26.09L315.92,48l6.34-.84-1.1-12.36Z"/><path class="cls-14" d="M365.74,20.22l-1.47,35.63L355.52,57l-8.63-18.24-.76,19.49-8.75,1.16,1.52-35.64,9-1.19,8.36,17L357,21.38Z"/><path class="cls-14" d="M402,23.09l-11.9,1.58-1.16,27.91-8.76,1.17,1.17-27.92-11.95,1.59.36-7.73,32.59-4.32Z"/><path class="cls-14" d="M415,13.68,413.5,49.32l-8.75,1.16,1.52-35.64Z"/></g></g></g></svg>