<svg xmlns="http://www.w3.org/2000/svg" xmlns:xlink="http://www.w3.org/1999/xlink" viewBox="0 0 773 159"><defs><style>.cls-1{fill:none;}.cls-2{fill:#fff;}.cls-3{isolation:isolate;}.cls-4{fill:url(#linear-gradient);}.cls-5{fill:#ffff89;}.cls-6{fill:url(#New_Gradient_Swatch);}.cls-7{opacity:0.7;mix-blend-mode:overlay;}.cls-8{fill:url(#New_Pattern_11);}</style><linearGradient id="linear-gradient" x1="391.67" y1="124.01" x2="391.67" y2="15.02" gradientTransform="translate(-6.82 6.82)" gradientUnits="userSpaceOnUse"><stop offset="0" stop-color="#4a0000"/><stop offset="1" stop-color="#e00018"/></linearGradient><linearGradient id="New_Gradient_Swatch" x1="391.67" y1="107.65" x2="391.67" y2="26.86" gradientUnits="userSpaceOnUse"><stop offset="0" stop-color="#fc8300"/><stop offset="0.99" stop-color="#fffe53"/></linearGradient><pattern id="New_Pattern_11" data-name="New Pattern 11" width="310" height="210" patternTransform="translate(-1613.85 959.3) rotate(-30) scale(1.73)" patternUnits="userSpaceOnUse" viewBox="0 0 310 210"><rect class="cls-1" width="310" height="210"/><polygon class="cls-2" points="309.75 183.75 309.75 166.75 620.25 166.75 620.25 183.75 309.75 183.75"/><polygon class="cls-2" points="309.75 198.25 309.75 189.75 620.25 189.75 620.25 198.25 309.75 198.25"/><polygon class="cls-2" points="-0.25 183.75 -0.25 166.75 310.25 166.75 310.25 183.75 -0.25 183.75"/><polygon class="cls-2" points="-0.25 198.25 -0.25 189.75 310.25 189.75 310.25 198.25 -0.25 198.25"/><polygon class="cls-2" points="-310.25 183.75 -310.25 166.75 0.25 166.75 0.25 183.75 -310.25 183.75"/><polygon class="cls-2" points="-310.25 198.25 -310.25 189.75 0.25 189.75 0.25 198.25 -310.25 198.25"/><polygon class="cls-2" points="309.75 78.75 309.75 61.75 620.25 61.75 620.25 78.75 309.75 78.75"/><polygon class="cls-2" points="309.75 118.25 309.75 105.75 620.25 105.75 620.25 118.25 309.75 118.25"/><polygon class="cls-2" points="309.75 93.25 309.75 84.75 620.25 84.75 620.25 93.25 309.75 93.25"/><polygon class="cls-2" points="309.75 148.25 309.75 139.75 620.25 139.75 620.25 148.25 309.75 148.25"/><polygon class="cls-2" points="309.75 128.25 309.75 122.75 620.25 122.75 620.25 128.25 309.75 128.25"/><polygon class="cls-2" points="-0.25 78.75 -0.25 61.75 310.25 61.75 310.25 78.75 -0.25 78.75"/><polygon class="cls-2" points="-0.25 118.25 -0.25 105.75 310.25 105.75 310.25 118.25 -0.25 118.25"/><polygon class="cls-2" points="-0.25 93.25 -0.25 84.75 310.25 84.75 310.25 93.25 -0.25 93.25"/><polygon class="cls-2" points="-0.25 148.25 -0.25 139.75 310.25 139.75 310.25 148.25 -0.25 148.25"/><polygon class="cls-2" points="-0.25 128.25 -0.25 122.75 310.25 122.75 310.25 128.25 -0.25 128.25"/><polygon class="cls-2" points="-310.25 78.75 -310.25 61.75 0.25 61.75 0.25 78.75 -310.25 78.75"/><polygon class="cls-2" points="-310.25 118.25 -310.25 105.75 0.25 105.75 0.25 118.25 -310.25 118.25"/><polygon class="cls-2" points="-310.25 93.25 -310.25 84.75 0.25 84.75 0.25 93.25 -310.25 93.25"/><polygon class="cls-2" points="-310.25 148.25 -310.25 139.75 0.25 139.75 0.25 148.25 -310.25 148.25"/><polygon class="cls-2" points="-310.25 128.25 -310.25 122.75 0.25 122.75 0.25 128.25 -310.25 128.25"/><polygon class="cls-2" points="309.75 13.25 309.75 0.75 620.25 0.75 620.25 13.25 309.75 13.25"/><polygon class="cls-2" points="309.75 43.25 309.75 34.75 620.25 34.75 620.25 43.25 309.75 43.25"/><polygon class="cls-2" points="309.75 23.25 309.75 17.75 620.25 17.75 620.25 23.25 309.75 23.25"/><polygon class="cls-2" points="-0.25 13.25 -0.25 0.75 310.25 0.75 310.25 13.25 -0.25 13.25"/><polygon class="cls-2" points="-0.25 43.25 -0.25 34.75 310.25 34.75 310.25 43.25 -0.25 43.25"/><polygon class="cls-2" points="-0.25 23.25 -0.25 17.75 310.25 17.75 310.25 23.25 -0.25 23.25"/><polygon class="cls-2" points="-310.25 13.25 -310.25 0.75 0.25 0.75 0.25 13.25 -310.25 13.25"/><polygon class="cls-2" points="-310.25 43.25 -310.25 34.75 0.25 34.75 0.25 43.25 -310.25 43.25"/><polygon class="cls-2" points="-310.25 23.25 -310.25 17.75 0.25 17.75 0.25 23.25 -310.25 23.25"/></pattern></defs><title>JACKPOT-01</title><g class="cls-3"><g id="Layer_1" data-name="Layer 1"><path class="cls-4" d="M61.09,149.82a72,72,0,0,1-39.41-12,14.16,14.16,0,0,1-3.63-20.3c3.2-4.33,7.58-10.18,13.35-17.83a14.17,14.17,0,0,1,12.85-8.2h.39a14.13,14.13,0,0,1,8.46,2.8c4.21,2,6.54,2.29,7.41,2.29h0a2.15,2.15,0,0,0,.61-.06c.75-.5,3.78-5.2,4-18.54,0-.44,0-.87.08-1.31.21-2,5.76-55.49,5.76-55.49a14.25,14.25,0,0,1,1.83-5.64,15.68,15.68,0,0,1,13.61-8h24.17a14.45,14.45,0,0,1,10.84,4.9c4.81,5.43,4.68,11.69,3.09,28.22-.91,9.54-2.32,21-3.56,31.18-.88,7.1-1.94,15.82-2.15,18.65,0,.33,0,.65,0,1,0,16.83-5.54,31.34-16.14,42S77.35,149.82,61.09,149.82Z"/><path class="cls-4" d="M211.32,149c-3.14,0-6.61-.09-9.39-.16-1.82-.05-3.41-.09-4.51-.09a16.18,16.18,0,0,1-1.71.1h0c-6.7,0-14-4.35-15.78-14H163.1c-1.49,4-4.06,10.14-12,13.1a14.14,14.14,0,0,1-5,.9H122.38a14.18,14.18,0,0,1-5.15-1,15.22,15.22,0,0,1-8.87-8.82c-2.45-6.49.29-11.79,1.61-14.34a26.53,26.53,0,0,0,1.32-2.88q.17-.44.36-.87c20-44.71,28.84-64.43,29.52-65.92l.12-.26c5.15-10.74,8.5-18.85,11-24.77,4.55-11,7.29-17.64,14.71-21.15A14.17,14.17,0,0,1,173,7.5h21.52c7.73,0,14.09,5.57,15.61,13.59,5.13,24.1,9,42.2,12.2,57,4.67,21.76,7.77,36.2,11.1,52.29a14.51,14.51,0,0,1-1.58,10.78C227.25,149,218.79,149,211.32,149Z"/><path class="cls-4" d="M284,149.76c-18.77,0-36.74-7.28-49.29-20-11.9-12-18.12-27.71-18-45.35-.42-19,7.79-38.58,22.55-53.74,15-15.39,34.69-24.21,54.07-24.21H295a65.72,65.72,0,0,1,44.82,17.36A14.17,14.17,0,0,1,340,44.47c-16.86,16.26-19.7,19-20.37,19.59A14.2,14.2,0,0,1,310,67.85h-.62a14.19,14.19,0,0,1-9.13-3.33,11.65,11.65,0,0,0-7.8-2.81c-5.11,0-10.92,2.72-15.17,7.1-3.63,3.75-5.64,8.23-5.52,12.3q0,.54,0,1.08a11.23,11.23,0,0,0,3.14,8.62,16.37,16.37,0,0,0,11.69,4.72,15.42,15.42,0,0,0,9.29-3,14.17,14.17,0,0,1,19.3,2.2l14.2,16.79a14.17,14.17,0,0,1,5.39,11.12v.44a14.18,14.18,0,0,1-8.23,12.87A72.4,72.4,0,0,1,284,149.76Z"/><path class="cls-4" d="M356.09,149c-3.29,0-6.8-.06-9.62-.11-1.92,0-3.55-.06-4.64-.06h-.1a12.63,12.63,0,0,1-1.38.07h-.41a14.49,14.49,0,0,1-10.57-5.05c-4.66-5.41-4.53-11.56-3-27.75.9-9.35,2.28-20.57,3.49-30.47.84-6.87,1.88-15.29,2.07-18a14.45,14.45,0,0,1,.08-2.71c1.53-12.21,2.26-21.59,2.8-28.45,1.11-14.3,1.78-22.93,10.81-27.42A14.21,14.21,0,0,1,352,7.5a15.22,15.22,0,0,1,1.79.11c1.06,0,2.81-.05,4.66-.1,2.83-.08,6.35-.18,9.58-.18,7.36,0,15.71,0,20.65,7.05l.16.24c2.06-3.19,5.95-6.36,13.33-7,2-.18,4.44-.26,7.75-.26,3.59,0,7.54.1,11,.19,2.5.06,4.86.12,6.34.12h.39a13.91,13.91,0,0,1,1.93-.13,14.24,14.24,0,0,1,4.51.73,14.93,14.93,0,0,1,9.77,9.92c2.23,7.48-2.1,13-3.52,14.78a12.27,12.27,0,0,0-.82,1.1c-.08.13-.17.26-.26.39-.33.51-1.22,1.84-28.62,41l-4.25,6.1L434,121.11c.17.25.34.5.49.75s.59.84,1,1.36c1.54,2,5.63,7.23,3.76,14.47a14.93,14.93,0,0,1-8.7,10,14.11,14.11,0,0,1-5.58,1.15H398.11c-2.87,0-10-.89-15-9L380.39,136a14.73,14.73,0,0,1-1.33,4.26C374.8,149,366.13,149,356.09,149Z"/><path class="cls-4" d="M441.24,148.85a15.26,15.26,0,0,1-15.18-13.53,14.21,14.21,0,0,1-.05-3.26l6.42-63.13c0-.22.05-.44.09-.65.19-1.63,1.21-11.27,4.85-46.91a13.66,13.66,0,0,1,1-3.93A15.81,15.81,0,0,1,453,7.5q.44,0,.87,0c1.28.08,2.77.11,4.55.11,2.61,0,5.5-.08,8.55-.16,3.48-.1,7.08-.21,10.8-.21,14.68,0,33,1.61,45,14.16,16.18,16.5,20.58,38.91,11.77,60A64,64,0,0,1,482.77,120c-.14,1.85-.25,3.52-.35,5.07-.52,8.18-1.06,16.65-9,21.66a14.1,14.1,0,0,1-7.53,2.17Z"/><path class="cls-4" d="M586.76,149.63c-26.56,0-49.52-14-60-36.57-10.22-21-8.21-46.57,5.4-68.4,14.69-23.55,39.48-38.18,64.7-38.18l1.6,0h.42c27.8,0,50.35,15.1,60.34,40.4,10.79,27.34,3.51,59.36-18.1,79.82A75.16,75.16,0,0,1,586.76,149.63Zm8.7-88.78c-13.25,0-19.55,11.83-19.78,20.23s4.44,12.82,13.88,13.47c13.15-.21,19.39-11.94,19.63-20.29.24-8.1-4.25-12.6-13.34-13.41Z"/><path class="cls-4" d="M677.62,148.85a14.18,14.18,0,0,1-14.17-14.72c1.44-37.69,3.92-55.44,5.73-68.41.24-1.68.46-3.25.66-4.77-1.64,0-3.05.08-4.26.08-3.61,0-11.13,0-16.36-6.18s-4-13.16-3.07-18.8a118.27,118.27,0,0,0,1.68-14.23,14.09,14.09,0,0,1,2.66-7.52,15.83,15.83,0,0,1,12.87-6.8H739a15.43,15.43,0,0,1,15.13,12.67,14.29,14.29,0,0,1,.21,4.13c-.72,7.59-1.28,13.37-1.68,17.18-.21,2-.37,3.51-.5,4.51-.05.44-.11.88-.19,1.29a14.5,14.5,0,0,1-2.62,6.9C744.5,61,737,61,727.52,61h-2.88c-2.24,21.66-3.55,34.49-4.54,44.26-1.11,11-1.85,18.25-3.12,30.05a14.18,14.18,0,0,1-1.7,5.38,15.72,15.72,0,0,1-13.88,8.21Z"/><path class="cls-5" d="M86.13,14.86h24.16c3.53-.17-6.89,68.59-5.9,69.79.09,42.3-43.59,55.18-75.22,34.5q5.28-7.14,15.2-20.29H44C68.36,112.22,78.59,98,79,71.41l5.77-55.57A1.59,1.59,0,0,1,86.13,14.86Z"/><path class="cls-5" d="M172.75,14.86h21.52c.89,0,1.46.72,1.7,2.15,12.7,59.62,17.77,82.57,23.42,109.87,1.2,2.17-23.6.46-23.95,1-1.05,0-1.7-1-1.94-3q-2.31-10.75-2.31-11H153.54c-5,9.86-4,12.65-7.65,14H122.11c-2.08-.81.25-2.62,2.21-7.91Q152.77,56.37,153.8,54.1C166.54,27.52,168.5,16.87,172.75,14.86Zm-7.2,73h19.58l-6.27-29.6C177.8,60.44,167.61,83.37,165.55,87.86Z"/><path class="cls-5" d="M294.1,13.86a51.72,51.72,0,0,1,35.77,13.59q-18.74,18.06-20.18,19.41h-.62c-20-16.84-52.53,3.76-51.78,27.87-1.09,24,28.23,36.17,46.76,22.33l16.24,19.19v-.43c-34.54,28.07-90.16,8.32-89.64-38.3C229.78,44.85,261.3,13.2,294.1,13.86Z"/><path class="cls-5" d="M351.68,14.86c.76.57,26.05-1.37,25.12,1.18l-4.06,39c.16-.2,1.28-1.8,3.38-4.79,2.71-3.79,17-24.6,24.25-34.55.32-2.06,27.61-.21,28.92-.82,1.84.61-.21,1.82-2.1,4.88q-1.14,1.7-28.46,40.78-9.76,14-10,14.18,2.06,2.92,33.33,47.71c2,3.25,4.24,4.74,2.58,5.45H397.84c-1.08,0-2.12-.85-3.1-2.54Q372.32,93.42,370,89.86h-.05Q366.24,126.09,366,127c1.35,1.74-25.83.51-26,.87-3.43-.1,6.67-66.68,5.75-68.06C349.65,29.27,348.57,16.41,351.68,14.86Z"/><path class="cls-5" d="M452.74,14.86c17.07,1.05,46.24-4.51,59.58,9.6,30.91,31.39-1.79,79.92-42.53,74.4-2.71,19.44-1.1,27.05-4.21,29H441c-.66,0-1-.4-1.14-1.18l6.43-63.13q.09-.25,4.93-47.56A1.57,1.57,0,0,1,452.74,14.86Zm22.11,26c-.74,19-3.24,32-2.9,32C497.69,76.44,504.15,38.12,474.85,40.86Z"/><path class="cls-5" d="M598,13.86c51.8-.48,68.26,62.85,32.8,96-25.7,27.37-75.38,25.38-91.53-9.7C520.4,61.58,556.68,12.7,598,13.86Zm-2.72,26c-38.27-.14-49.55,59.62-6.42,62.05,38.31.07,49.75-59.59,6.52-62.1Z"/><path class="cls-5" d="M663.09,14.86h75.67c.65,0,1.06.42,1.23,1.28q-2.16,22.74-2.36,22.74c.66,2-25.36.59-26,1-6,57.38-6.37,62.7-9,87.07a1.62,1.62,0,0,1-1.49.93H677.35c2.25-58.93,7-67.83,7.75-88-34.83-.7-25,6-23.39-24.08A1.78,1.78,0,0,1,663.09,14.86Z"/><path class="cls-5" d="M93.22,14.86h24.16c3.53-.17-6.89,68.59-5.91,69.79.1,42.3-43.58,55.18-75.22,34.5q5.3-7.14,15.21-20.29h-.39c24.37,13.36,34.6-.91,35-27.45l5.77-55.57A1.58,1.58,0,0,1,93.22,14.86Z"/><path class="cls-5" d="M179.84,14.86h21.52c.89,0,1.46.72,1.7,2.15,12.7,59.62,17.77,82.57,23.42,109.87,1.2,2.17-23.6.46-23.95,1-1.05,0-1.7-1-1.94-3q-2.31-10.75-2.31-11H160.63c-5,9.86-4,12.65-7.66,14H129.19c-2.07-.81.25-2.62,2.21-7.91q28.46-63.58,29.49-65.85C173.63,27.52,175.58,16.87,179.84,14.86Zm-7.2,73h19.58L186,58.26C184.89,60.44,174.69,83.37,172.64,87.86Z"/><path class="cls-5" d="M301.19,13.86A51.74,51.74,0,0,1,337,27.45q-18.73,18.06-20.18,19.41h-.63c-20-16.84-52.52,3.76-51.78,27.87-1.08,24,28.23,36.17,46.76,22.33l16.24,19.19v-.43c-34.54,28.07-90.15,8.32-89.64-38.3C236.87,44.85,268.39,13.2,301.19,13.86Z"/><path class="cls-5" d="M358.77,14.86c.75.57,26-1.37,25.12,1.18l-4.06,39c.15-.2,1.28-1.8,3.37-4.79,2.71-3.79,17-24.6,24.26-34.55.32-2.06,27.61-.21,28.92-.82,1.84.61-.21,1.82-2.11,4.88q-1.12,1.7-28.45,40.78-9.76,14-10,14.18,2.06,2.92,33.34,47.71c2,3.25,4.24,4.74,2.58,5.45H404.93c-1.09,0-2.12-.85-3.1-2.54q-22.43-31.9-24.76-35.46H377q-3.7,36.23-3.9,37.13c1.35,1.74-25.83.51-26,.87-3.43-.1,6.67-66.68,5.75-68.06C356.74,29.27,355.65,16.41,358.77,14.86Z"/><path class="cls-5" d="M459.82,14.86c17.07,1.05,46.24-4.51,59.58,9.6,30.92,31.39-1.79,79.92-42.52,74.4-2.71,19.44-1.11,27.05-4.22,29h-24.6c-.65,0-1-.4-1.13-1.18l6.42-63.13q.11-.25,4.93-47.56A1.59,1.59,0,0,1,459.82,14.86Zm22.12,26c-.74,19-3.24,32-2.9,32C504.78,76.44,511.24,38.12,481.94,40.86Z"/><path class="cls-5" d="M605.13,13.86c51.8-.48,68.26,62.85,32.8,96-25.71,27.37-75.39,25.38-91.54-9.7C527.49,61.58,563.77,12.7,605.13,13.86Zm-2.72,26c-38.27-.14-49.55,59.62-6.42,62.05,38.31.07,49.75-59.59,6.52-62.1Z"/><path class="cls-5" d="M670.18,14.86h75.67c.65,0,1.06.42,1.23,1.28q-2.16,22.74-2.36,22.74c.66,2-25.36.59-26,1-6,57.38-6.37,62.7-9,87.07a1.62,1.62,0,0,1-1.49.93H684.43c2.25-58.93,7.05-67.83,7.76-88-34.83-.7-25,6-23.39-24.08A1.78,1.78,0,0,1,670.18,14.86Z"/><path class="cls-6" d="M93.22,14.86h24.16c3.53-.17-6.89,68.59-5.91,69.79.1,42.3-43.58,55.18-75.22,34.5q5.3-7.14,15.21-20.29h-.39c24.37,13.36,34.6-.91,35-27.45l5.77-55.57A1.58,1.58,0,0,1,93.22,14.86Z"/><path class="cls-6" d="M179.84,14.86h21.52c.89,0,1.46.72,1.7,2.15,12.7,59.62,17.77,82.57,23.42,109.87,1.2,2.17-23.6.46-23.95,1-1.05,0-1.7-1-1.94-3q-2.31-10.75-2.31-11H160.63c-5,9.86-4,12.65-7.66,14H129.19c-2.07-.81.25-2.62,2.21-7.91q28.46-63.58,29.49-65.85C173.63,27.52,175.58,16.87,179.84,14.86Zm-7.2,73h19.58L186,58.26C184.89,60.44,174.69,83.37,172.64,87.86Z"/><path class="cls-6" d="M301.19,13.86A51.74,51.74,0,0,1,337,27.45q-18.73,18.06-20.18,19.41h-.63c-20-16.84-52.52,3.76-51.78,27.87-1.08,24,28.23,36.17,46.76,22.33l16.24,19.19v-.43c-34.54,28.07-90.15,8.32-89.64-38.3C236.87,44.85,268.39,13.2,301.19,13.86Z"/><path class="cls-6" d="M358.77,14.86c.75.57,26-1.37,25.12,1.18l-4.06,39c.15-.2,1.28-1.8,3.37-4.79,2.71-3.79,17-24.6,24.26-34.55.32-2.06,27.61-.21,28.92-.82,1.84.61-.21,1.82-2.11,4.88q-1.12,1.7-28.45,40.78-9.76,14-10,14.18,2.06,2.92,33.34,47.71c2,3.25,4.24,4.74,2.58,5.45H404.93c-1.09,0-2.12-.85-3.1-2.54q-22.43-31.9-24.76-35.46H377q-3.7,36.23-3.9,37.13c1.35,1.74-25.83.51-26,.87-3.43-.1,6.67-66.68,5.75-68.06C356.74,29.27,355.65,16.41,358.77,14.86Z"/><path class="cls-6" d="M459.82,14.86c17.07,1.05,46.24-4.51,59.58,9.6,30.92,31.39-1.79,79.92-42.52,74.4-2.71,19.44-1.11,27.05-4.22,29h-24.6c-.65,0-1-.4-1.13-1.18l6.42-63.13q.11-.25,4.93-47.56A1.59,1.59,0,0,1,459.82,14.86Zm22.12,26c-.74,19-3.24,32-2.9,32C504.78,76.44,511.24,38.12,481.94,40.86Z"/><path class="cls-6" d="M605.13,13.86c51.8-.48,68.26,62.85,32.8,96-25.71,27.37-75.39,25.38-91.54-9.7C527.49,61.58,563.77,12.7,605.13,13.86Zm-2.72,26c-38.27-.14-49.55,59.62-6.42,62.05,38.31.07,49.75-59.59,6.52-62.1Z"/><path class="cls-6" d="M670.18,14.86h75.67c.65,0,1.06.42,1.23,1.28q-2.16,22.74-2.36,22.74c.66,2-25.36.59-26,1-6,57.38-6.37,62.7-9,87.07a1.62,1.62,0,0,1-1.49.93H684.43c2.25-58.93,7.05-67.83,7.76-88-34.83-.7-25,6-23.39-24.08A1.78,1.78,0,0,1,670.18,14.86Z"/><g class="cls-7"><path class="cls-8" d="M93.22,14.86h24.16c3.53-.17-6.89,68.59-5.91,69.79.1,42.3-43.58,55.18-75.22,34.5q5.3-7.14,15.21-20.29h-.39c24.37,13.36,34.6-.91,35-27.45l5.77-55.57A1.58,1.58,0,0,1,93.22,14.86Z"/><path class="cls-8" d="M179.84,14.86h21.52c.89,0,1.46.72,1.7,2.15,12.7,59.62,17.77,82.57,23.42,109.87,1.2,2.17-23.6.46-23.95,1-1.05,0-1.7-1-1.94-3q-2.31-10.75-2.31-11H160.63c-5,9.86-4,12.65-7.66,14H129.19c-2.07-.81.25-2.62,2.21-7.91q28.46-63.58,29.49-65.85C173.63,27.52,175.58,16.87,179.84,14.86Zm-7.2,73h19.58L186,58.26C184.89,60.44,174.69,83.37,172.64,87.86Z"/><path class="cls-8" d="M301.19,13.86A51.74,51.74,0,0,1,337,27.45q-18.73,18.06-20.18,19.41h-.63c-20-16.84-52.52,3.76-51.78,27.87-1.08,24,28.23,36.17,46.76,22.33l16.24,19.19v-.43c-34.54,28.07-90.15,8.32-89.64-38.3C236.87,44.85,268.39,13.2,301.19,13.86Z"/><path class="cls-8" d="M358.77,14.86c.75.57,26-1.37,25.12,1.18l-4.06,39c.15-.2,1.28-1.8,3.37-4.79,2.71-3.79,17-24.6,24.26-34.55.32-2.06,27.61-.21,28.92-.82,1.84.61-.21,1.82-2.11,4.88q-1.12,1.7-28.45,40.78-9.76,14-10,14.18,2.06,2.92,33.34,47.71c2,3.25,4.24,4.74,2.58,5.45H404.93c-1.09,0-2.12-.85-3.1-2.54q-22.43-31.9-24.76-35.46H377q-3.7,36.23-3.9,37.13c1.35,1.74-25.83.51-26,.87-3.43-.1,6.67-66.68,5.75-68.06C356.74,29.27,355.65,16.41,358.77,14.86Z"/><path class="cls-8" d="M459.82,14.86c17.07,1.05,46.24-4.51,59.58,9.6,30.92,31.39-1.79,79.92-42.52,74.4-2.71,19.44-1.11,27.05-4.22,29h-24.6c-.65,0-1-.4-1.13-1.18l6.42-63.13q.11-.25,4.93-47.56A1.59,1.59,0,0,1,459.82,14.86Zm22.12,26c-.74,19-3.24,32-2.9,32C504.78,76.44,511.24,38.12,481.94,40.86Z"/><path class="cls-8" d="M605.13,13.86c51.8-.48,68.26,62.85,32.8,96-25.71,27.37-75.39,25.38-91.54-9.7C527.49,61.58,563.77,12.7,605.13,13.86Zm-2.72,26c-38.27-.14-49.55,59.62-6.42,62.05,38.31.07,49.75-59.59,6.52-62.1Z"/><path class="cls-8" d="M670.18,14.86h75.67c.65,0,1.06.42,1.23,1.28q-2.16,22.74-2.36,22.74c.66,2-25.36.59-26,1-6,57.38-6.37,62.7-9,87.07a1.62,1.62,0,0,1-1.49.93H684.43c2.25-58.93,7.05-67.83,7.76-88-34.83-.7-25,6-23.39-24.08A1.78,1.78,0,0,1,670.18,14.86Z"/></g></g></g></svg>