<svg xmlns="http://www.w3.org/2000/svg" xmlns:xlink="http://www.w3.org/1999/xlink" viewBox="0 0 1060 168"><defs><style>.cls-1{isolation:isolate;}.cls-2{fill:url(#linear-gradient);}.cls-3{fill:#9f237b;}.cls-4{fill:#c63994;}.cls-5{fill:url(#linear-gradient-2);}.cls-6{fill:url(#linear-gradient-4);}.cls-7{fill:url(#linear-gradient-5);}.cls-13,.cls-22,.cls-24,.cls-8{mix-blend-mode:screen;}.cls-8{fill:url(#linear-gradient-6);}.cls-14,.cls-19,.cls-20,.cls-9{mix-blend-mode:multiply;}.cls-9{fill:url(#linear-gradient-7);}.cls-10{fill:url(#linear-gradient-8);}.cls-11{fill:url(#linear-gradient-10);}.cls-12{fill:url(#linear-gradient-11);}.cls-13{fill:url(#linear-gradient-12);}.cls-14{fill:url(#linear-gradient-13);}.cls-15{fill:#5b144a;}.cls-16{fill:url(#New_Gradient_Swatch_copy_2);}.cls-17{fill:url(#New_Gradient_Swatch_copy_2-2);}.cls-18{fill:url(#linear-gradient-14);}.cls-19{opacity:0.25;fill:url(#linear-gradient-15);}.cls-20{opacity:0.2;fill:url(#linear-gradient-16);}.cls-21{fill:url(#New_Gradient_Swatch_copy_2-3);}.cls-22,.cls-24{opacity:0.24;}.cls-22{fill:url(#New_Gradient_Swatch_copy_2-4);}.cls-23{fill:url(#linear-gradient-17);}.cls-24{fill:url(#New_Gradient_Swatch_copy);}</style><linearGradient id="linear-gradient" x1="-4.56" y1="91.86" x2="269.25" y2="91.86" gradientUnits="userSpaceOnUse"><stop offset="0.42" stop-color="#e9509b"/><stop offset="0.51" stop-color="#d54493"/><stop offset="0.67" stop-color="#b93288"/><stop offset="0.81" stop-color="#a72781"/><stop offset="0.91" stop-color="#a1237f"/></linearGradient><linearGradient id="linear-gradient-2" x1="-4.56" y1="110.25" x2="269.25" y2="110.25" xlink:href="#linear-gradient"/><linearGradient id="linear-gradient-4" x1="-4.56" y1="107.71" x2="269.25" y2="107.71" xlink:href="#linear-gradient"/><linearGradient id="linear-gradient-5" x1="41.91" y1="110.25" x2="250.7" y2="110.25" gradientUnits="userSpaceOnUse"><stop offset="0" stop-color="#ed1c24"/><stop offset="0.21" stop-color="#d21337"/><stop offset="0.49" stop-color="#b6084c"/><stop offset="0.73" stop-color="#a40259"/><stop offset="0.91" stop-color="#9e005d"/></linearGradient><linearGradient id="linear-gradient-6" x1="8.02" y1="91.86" x2="105.52" y2="91.86" xlink:href="#linear-gradient"/><linearGradient id="linear-gradient-7" x1="-6.51" y1="110.25" x2="308.09" y2="110.25" xlink:href="#linear-gradient"/><linearGradient id="linear-gradient-8" x1="552.77" y1="110.25" x2="826.58" y2="110.25" gradientTransform="matrix(-1, 0, 0, 1, 1577.6, 0)" xlink:href="#linear-gradient"/><linearGradient id="linear-gradient-10" x1="552.77" y1="107.71" x2="826.58" y2="107.71" gradientTransform="matrix(-1, 0, 0, 1, 1577.6, 0)" xlink:href="#linear-gradient"/><linearGradient id="linear-gradient-11" x1="769.56" y1="110.25" x2="978.35" y2="110.25" xlink:href="#linear-gradient-5"/><linearGradient id="linear-gradient-12" x1="565.36" y1="91.86" x2="662.85" y2="91.86" gradientTransform="matrix(-1, 0, 0, 1, 1577.6, 0)" xlink:href="#linear-gradient"/><linearGradient id="linear-gradient-13" x1="550.83" y1="110.25" x2="865.42" y2="110.25" gradientTransform="matrix(-1, 0, 0, 1, 1577.6, 0)" xlink:href="#linear-gradient"/><linearGradient id="New_Gradient_Swatch_copy_2" x1="510.13" y1="-135.47" x2="510.13" y2="195.57" gradientUnits="userSpaceOnUse"><stop offset="0.42" stop-color="#ed1c24"/><stop offset="0.53" stop-color="#d21337"/><stop offset="0.68" stop-color="#b6084c"/><stop offset="0.81" stop-color="#a40259"/><stop offset="0.91" stop-color="#9e005d"/></linearGradient><linearGradient id="New_Gradient_Swatch_copy_2-2" x1="826.69" y1="-135.47" x2="826.69" y2="195.57" xlink:href="#New_Gradient_Swatch_copy_2"/><linearGradient id="linear-gradient-14" x1="512.83" y1="-135.47" x2="512.83" y2="195.57" xlink:href="#New_Gradient_Swatch_copy_2"/><linearGradient id="linear-gradient-15" x1="196.27" y1="-146.76" x2="196.27" y2="213.33" xlink:href="#New_Gradient_Swatch_copy_2"/><linearGradient id="linear-gradient-16" x1="1236.79" y1="-144.64" x2="1236.79" y2="215.45" gradientTransform="matrix(-1, 0, 0, 1, 2063.48, 0)" gradientUnits="userSpaceOnUse"><stop offset="0.42" stop-color="#ed1c24"/><stop offset="0.42" stop-color="#ec1c26"/><stop offset="0.56" stop-color="#df1842"/><stop offset="0.68" stop-color="#d71554"/><stop offset="0.77" stop-color="#d4145a"/></linearGradient><linearGradient id="New_Gradient_Swatch_copy_2-3" x1="171.89" y1="-135.47" x2="171.89" y2="195.57" xlink:href="#New_Gradient_Swatch_copy_2"/><linearGradient id="New_Gradient_Swatch_copy_2-4" x1="170.89" y1="-97.67" x2="170.89" y2="198.38" xlink:href="#New_Gradient_Swatch_copy_2"/><linearGradient id="linear-gradient-17" x1="847.01" y1="-135.47" x2="847.01" y2="195.57" gradientUnits="userSpaceOnUse"><stop offset="0.42" stop-color="red"/><stop offset="0.43" stop-color="#fa0005"/><stop offset="0.58" stop-color="#d2002b"/><stop offset="0.71" stop-color="#b60046"/><stop offset="0.82" stop-color="#a40057"/><stop offset="0.91" stop-color="#9e005d"/></linearGradient><linearGradient id="New_Gradient_Swatch_copy" x1="1147.92" y1="-100.44" x2="1147.92" y2="195.61" gradientTransform="matrix(-1, 0, 0, 1, 1994.93, 0)" gradientUnits="userSpaceOnUse"><stop offset="0.42" stop-color="red"/><stop offset="0.47" stop-color="#f50607"/><stop offset="0.64" stop-color="#d9181c"/><stop offset="0.8" stop-color="#c72329"/><stop offset="0.91" stop-color="#c1272d"/></linearGradient></defs><title>PITABAWAH</title><g class="cls-1"><g id="Layer_1" data-name="Layer 1"><g id="pita"><path class="cls-2" d="M54.46,80.68c-7.68-2.08-9.9-3.87-10.17-5.15a10.17,10.17,0,0,0-1.89,1.39s-3.78.7,9.72,6C65,88,99.89,102.28,98.49,108.2h0C102.87,99,70.13,84.91,54.46,80.68Z"/><path class="cls-3" d="M510.13,22.53s-219.28.71-345.67,19.41c0,0-11.34,2.11-5.94,12.7s21.34,22.28,18.64,44.15-10.54,28.4-1.84,31.55c4.82,1.74,36.13-5.84,137.67-9.72s197.14-5.29,197.14-5.29Z"/><path class="cls-4" d="M510.13,18s-223,1-349.37,19.74c0,0-12.8,3-7.39,13.61S178.51,73,175.81,94.91s-6.48,33.17-1.08,33.87S211.45,120,313,116.08s197.14-5.29,197.14-5.29Z"/><path class="cls-5" d="M215.77,65.63s-27.54,4.58-75.61,2.47S50.5,69.15,42.4,76.92c0,0-3.78.7,9.72,6S103.43,103.73,98,109,61.3,138.66,63.47,148.54s11.34-.35,24.84-1.41,78.31-1.35,118.28,5.68,47-4.62,43.21-15.21-27-54-27-54S228,64.19,215.77,65.63Z"/><path class="cls-5" d="M63.47,148.54c2.16,9.88,11.34-.35,24.84-1.41s78.31-1.35,118.28,5.68,47-4.62,43.21-15.21-27-54-27-54,5.24-19.43-7-18c0,0-26.36,4.38-72.49,2.59-.93,5.58,23.69,14,26.23,28.86,3,17.47-15.67,32.11,4.59,36S220,144,213,147.18s-40.77-4.23-68.86-6.35-59.95.35-71.56,4.06c-5.19,1.65-7.57,1-8.62-.19A7,7,0,0,0,63.47,148.54Z"/><path class="cls-6" d="M72.56,144.89c11.61-3.71,43.48-6.17,71.56-4.06S206,150.36,213,147.18,194.35,137,174.1,133.07s-1.62-18.52-4.59-36C167,82.2,142.35,73.8,143.28,68.22l-3.12-.12c-45.09-2-84.48.68-95.87,7.43.27,1.28,2.49,3.07,10.17,5.15C70.13,84.91,102.87,99,98.52,108.2h0A1.58,1.58,0,0,1,98,109c-4.79,4.7-30,24.41-34.09,35.68C65,145.91,67.37,146.54,72.56,144.89Z"/><path class="cls-7" d="M215.77,65.63s-27.54,4.58-75.61,2.47S50.5,69.15,42.4,76.92c0,0-3.78.7,9.72,6S103.43,103.73,98,109,61.3,138.66,63.47,148.54s11.34-.35,24.84-1.41,78.31-1.35,118.28,5.68,47-4.62,43.21-15.21-27-54-27-54S228,64.19,215.77,65.63Z"/><path class="cls-8" d="M54.46,80.68c-7.68-2.08-9.9-3.87-10.17-5.15a10.17,10.17,0,0,0-1.89,1.39s-3.78.7,9.72,6C65,88,99.89,102.28,98.49,108.2h0C102.87,99,70.13,84.91,54.46,80.68Z"/><path class="cls-9" d="M63.47,148.54c2.16,9.88,11.34-.35,24.84-1.41s78.31-1.35,118.28,5.68,47-4.62,43.21-15.21-27-54-27-54,5.24-19.43-7-18c0,0-26.36,4.38-72.49,2.59-.93,5.58,23.69,14,26.23,28.86,3,17.47-15.67,32.11,4.59,36S220,144,213,147.18s-40.77-4.23-68.86-6.35-59.95.35-71.56,4.06c-5.19,1.65-7.57,1-8.62-.19A7,7,0,0,0,63.47,148.54Z"/><path class="cls-10" d="M804.49,65.63S832,70.21,880.1,68.1s89.66,1.05,97.76,8.82c0,0,3.78.7-9.72,6s-51.31,20.81-45.91,26.1S959,138.66,956.8,148.54s-11.35-.35-24.85-1.41-78.31-1.35-118.28,5.68-47-4.62-43.21-15.21,27-54,27-54S792.22,64.19,804.49,65.63Z"/><path class="cls-10" d="M956.8,148.54c-2.16,9.88-11.35-.35-24.85-1.41s-78.31-1.35-118.28,5.68-47-4.62-43.21-15.21,27-54,27-54-5.25-19.43,7-18c0,0,26.36,4.38,72.49,2.59.93,5.58-23.69,14-26.22,28.86-3,17.47,15.66,32.11-4.6,36s-45.9,10.94-38.88,14.11,40.78-4.23,68.86-6.35,60,.35,71.56,4.06c5.19,1.65,7.57,1,8.62-.19A7.08,7.08,0,0,1,956.8,148.54Z"/><path class="cls-11" d="M947.7,144.89c-11.61-3.71-43.47-6.17-71.56-4.06s-61.84,9.53-68.86,6.35,18.63-10.23,38.88-14.11,1.63-18.52,4.6-36C853.29,82.2,877.91,73.8,877,68.22l3.12-.12c45.09-2,84.48.68,95.87,7.43-.27,1.28-2.49,3.07-10.17,5.15-15.67,4.23-48.41,18.35-44,27.52h0a1.5,1.5,0,0,0,.45.82c4.79,4.7,30,24.41,34.09,35.68C955.27,145.91,952.89,146.54,947.7,144.89Z"/><path class="cls-12" d="M804.49,65.63S832,70.21,880.1,68.1s89.66,1.05,97.76,8.82c0,0,3.78.7-9.72,6s-51.31,20.81-45.91,26.1S959,138.66,956.8,148.54s-11.35-.35-24.85-1.41-78.31-1.35-118.28,5.68-47-4.62-43.21-15.21,27-54,27-54S792.22,64.19,804.49,65.63Z"/><path class="cls-13" d="M965.8,80.68c7.68-2.08,9.9-3.87,10.17-5.15a9.85,9.85,0,0,1,1.89,1.39s3.78.7-9.72,6c-12.87,5-47.77,19.36-46.36,25.28h0C917.39,99,950.13,84.91,965.8,80.68Z"/><path class="cls-14" d="M956.8,148.54c-2.16,9.88-11.35-.35-24.85-1.41s-78.31-1.35-118.28,5.68-47-4.62-43.21-15.21,27-54,27-54-5.25-19.43,7-18c0,0,26.36,4.38,72.49,2.59.93,5.58-23.69,14-26.22,28.86-3,17.47,15.66,32.11-4.6,36s-45.9,10.94-38.88,14.11,40.78-4.23,68.86-6.35,60,.35,71.56,4.06c5.19,1.65,7.57,1,8.62-.19A7.08,7.08,0,0,1,956.8,148.54Z"/><path class="cls-15" d="M855.8,41.94C729.41,23.24,510.13,22.53,510.13,22.53s-219.28.71-345.67,19.41c0,0-11.34,2.11-5.94,12.7s21.34,22.28,18.64,44.15-10.54,28.4-1.84,31.55c4.82,1.74,36.13-5.84,137.67-9.72s197.14-5.29,197.14-5.29,95.6,1.41,197.14,5.29,132.85,11.46,137.67,9.72c8.7-3.15.86-9.67-1.84-31.55s13.24-33.57,18.64-44.15S855.8,41.94,855.8,41.94Z"/><path class="cls-16" d="M859.5,37.73C733.11,19,510.13,18,510.13,18s-223,1-349.37,19.74c0,0-12.8,3-7.39,13.61S178.51,73,175.81,94.91s-6.48,33.17-1.08,33.87S211.45,120,313,116.08s197.14-5.29,197.14-5.29,95.6,1.41,197.14,5.29,132.86,13.41,138.26,12.7,1.62-12-1.08-33.87,17-33,22.45-43.57S859.5,37.73,859.5,37.73Z"/><path class="cls-17" d="M845.53,128.78c5.41-.7,1.62-12-1.08-33.87s17-33,22.45-43.57-7.4-13.61-7.4-13.61c-5.79-.85-11.78-1.67-17.93-2.46,4.8,4.27,6.78,10.2-4.16,17C815.27,66,766.66,80.5,792.58,97.79,814.2,112.2,825.49,119.5,802.89,123,831,126.27,842.46,129.18,845.53,128.78Z"/><path class="cls-18" d="M792.58,97.79C766.66,80.5,815.27,66,837.41,52.27c10.94-6.8,9-12.73,4.16-17C713.17,18.94,510.13,18,510.13,18S311,18.92,182.47,34.8c-3.47,4.09-3.82,9.39,5.78,15.36C210.39,63.92,259,78.38,233.08,95.67c-23.46,15.65-34.77,22.91-3.78,26,20.34-2.09,47.57-4.19,83.69-5.57,101.54-3.88,197.14-5.29,197.14-5.29s95.6,1.41,197.14,5.29c43.71,1.67,74.4,4.39,95.62,6.88C825.49,119.5,814.2,112.2,792.58,97.79Z"/><path class="cls-19" d="M233.08,95.67C259,78.38,210.39,63.92,188.25,50.16c-9.6-6-9.25-11.27-5.78-15.36l-7,.89c-5,.66-9.93,1.34-14.7,2,0,0-12.8,3-7.39,13.61S178.51,73,175.81,94.91s-6.48,33.17-1.08,33.87c3.48.46,17.72-3.34,54.57-7.13C198.31,118.58,209.62,111.32,233.08,95.67Z"/><path class="cls-20" d="M845.53,128.78c5.41-.7,1.62-12-1.08-33.87s17-33,22.45-43.57-7.4-13.61-7.4-13.61c-5.79-.85-11.78-1.67-17.93-2.46,4.8,4.27,6.78,10.2-4.16,17C815.27,66,766.66,80.5,792.58,97.79,814.2,112.2,825.49,119.5,802.89,123,831,126.27,842.46,129.18,845.53,128.78Z"/><path class="cls-21" d="M189,91.44c11.07-23.82-13.5-33.17-26.74-38.29-6.41-2.47-9-5.74-10-8.45a9.27,9.27,0,0,0,1.11,6.64c5.4,10.58,25.14,21.7,22.44,43.57s-6.48,33.17-1.08,33.87c1.22.16,3.78-.2,8.18-.91C174.69,124.19,180,110.8,189,91.44Z"/><path class="cls-22" d="M188,91.44c11.07-23.82-13.5-33.17-26.74-38.29-6.41-2.47-9-5.74-10-8.45a9.27,9.27,0,0,0,1.11,6.64c5.4,10.58,25.14,21.7,22.44,43.57s-6.48,33.17-1.08,33.87c1.22.16,3.78-.2,8.18-.91C173.69,124.19,179,110.8,188,91.44Z"/><path class="cls-23" d="M845.53,128.78c5.41-.7,1.62-12-1.08-33.87s17-33,22.45-43.57c2.51-4.93,1.08-8.21-1.16-10.32-.36,2.93-2.39,7.27-10.42,10.37-13.23,5.12-37.8,14.47-26.73,38.28,9.95,21.41,15.31,35.52,2.95,37.26C839.63,128.23,843.85,129,845.53,128.78Z"/><path class="cls-24" d="M845.53,127.78c5.41-.7,1.62-12-1.08-33.87s17-33,22.45-43.57c2.51-4.93,1.08-8.21-1.16-10.32-.36,2.93-2.39,7.27-10.42,10.37-13.23,5.12-37.8,14.47-26.73,38.28,9.95,21.41,15.31,35.52,2.95,37.26C839.63,127.23,843.85,128,845.53,127.78Z"/></g></g></g></svg>