<svg xmlns="http://www.w3.org/2000/svg" xmlns:xlink="http://www.w3.org/1999/xlink" viewBox="0 0 664 185"><defs><style>.cls-1{fill:none;}.cls-2{fill:#fff;}.cls-3{isolation:isolate;}.cls-4{fill:url(#linear-gradient);}.cls-5{fill:url(#New_Gradient_Swatch);}.cls-6{opacity:0.7;mix-blend-mode:overlay;}.cls-7{fill:url(#New_Pattern_11);}</style><linearGradient id="linear-gradient" x1="333.08" y1="146.96" x2="333.08" y2="27.68" gradientTransform="translate(-1 4)" gradientUnits="userSpaceOnUse"><stop offset="0" stop-color="#4a0000"/><stop offset="1" stop-color="#e00018"/></linearGradient><linearGradient id="New_Gradient_Swatch" x1="333.08" y1="131.26" x2="333.08" y2="37.93" gradientUnits="userSpaceOnUse"><stop offset="0" stop-color="#fc8300"/><stop offset="0.99" stop-color="#fffe53"/></linearGradient><pattern id="New_Pattern_11" data-name="New Pattern 11" width="310" height="210" patternTransform="translate(-1713.29 953.74) rotate(-30) scale(1.99)" patternUnits="userSpaceOnUse" viewBox="0 0 310 210"><rect class="cls-1" width="310" height="210"/><polygon class="cls-2" points="309.75 183.75 309.75 166.75 620.25 166.75 620.25 183.75 309.75 183.75"/><polygon class="cls-2" points="309.75 198.25 309.75 189.75 620.25 189.75 620.25 198.25 309.75 198.25"/><polygon class="cls-2" points="-0.25 183.75 -0.25 166.75 310.25 166.75 310.25 183.75 -0.25 183.75"/><polygon class="cls-2" points="-0.25 198.25 -0.25 189.75 310.25 189.75 310.25 198.25 -0.25 198.25"/><polygon class="cls-2" points="-310.25 183.75 -310.25 166.75 0.25 166.75 0.25 183.75 -310.25 183.75"/><polygon class="cls-2" points="-310.25 198.25 -310.25 189.75 0.25 189.75 0.25 198.25 -310.25 198.25"/><polygon class="cls-2" points="309.75 78.75 309.75 61.75 620.25 61.75 620.25 78.75 309.75 78.75"/><polygon class="cls-2" points="309.75 118.25 309.75 105.75 620.25 105.75 620.25 118.25 309.75 118.25"/><polygon class="cls-2" points="309.75 93.25 309.75 84.75 620.25 84.75 620.25 93.25 309.75 93.25"/><polygon class="cls-2" points="309.75 148.25 309.75 139.75 620.25 139.75 620.25 148.25 309.75 148.25"/><polygon class="cls-2" points="309.75 128.25 309.75 122.75 620.25 122.75 620.25 128.25 309.75 128.25"/><polygon class="cls-2" points="-0.25 78.75 -0.25 61.75 310.25 61.75 310.25 78.75 -0.25 78.75"/><polygon class="cls-2" points="-0.25 118.25 -0.25 105.75 310.25 105.75 310.25 118.25 -0.25 118.25"/><polygon class="cls-2" points="-0.25 93.25 -0.25 84.75 310.25 84.75 310.25 93.25 -0.25 93.25"/><polygon class="cls-2" points="-0.25 148.25 -0.25 139.75 310.25 139.75 310.25 148.25 -0.25 148.25"/><polygon class="cls-2" points="-0.25 128.25 -0.25 122.75 310.25 122.75 310.25 128.25 -0.25 128.25"/><polygon class="cls-2" points="-310.25 78.75 -310.25 61.75 0.25 61.75 0.25 78.75 -310.25 78.75"/><polygon class="cls-2" points="-310.25 118.25 -310.25 105.75 0.25 105.75 0.25 118.25 -310.25 118.25"/><polygon class="cls-2" points="-310.25 93.25 -310.25 84.75 0.25 84.75 0.25 93.25 -310.25 93.25"/><polygon class="cls-2" points="-310.25 148.25 -310.25 139.75 0.25 139.75 0.25 148.25 -310.25 148.25"/><polygon class="cls-2" points="-310.25 128.25 -310.25 122.75 0.25 122.75 0.25 128.25 -310.25 128.25"/><polygon class="cls-2" points="309.75 13.25 309.75 0.75 620.25 0.75 620.25 13.25 309.75 13.25"/><polygon class="cls-2" points="309.75 43.25 309.75 34.75 620.25 34.75 620.25 43.25 309.75 43.25"/><polygon class="cls-2" points="309.75 23.25 309.75 17.75 620.25 17.75 620.25 23.25 309.75 23.25"/><polygon class="cls-2" points="-0.25 13.25 -0.25 0.75 310.25 0.75 310.25 13.25 -0.25 13.25"/><polygon class="cls-2" points="-0.25 43.25 -0.25 34.75 310.25 34.75 310.25 43.25 -0.25 43.25"/><polygon class="cls-2" points="-0.25 23.25 -0.25 17.75 310.25 17.75 310.25 23.25 -0.25 23.25"/><polygon class="cls-2" points="-310.25 13.25 -310.25 0.75 0.25 0.75 0.25 13.25 -310.25 13.25"/><polygon class="cls-2" points="-310.25 43.25 -310.25 34.75 0.25 34.75 0.25 43.25 -310.25 43.25"/><polygon class="cls-2" points="-310.25 23.25 -310.25 17.75 0.25 17.75 0.25 23.25 -310.25 23.25"/></pattern></defs><title>SALDO</title><g class="cls-3"><g id="Layer_1" data-name="Layer 1"><path class="cls-4" d="M85.41,171.74A51.79,51.79,0,0,1,47.7,156.15l-.44-.46a51.37,51.37,0,0,1-14-35.27v-3.86a12.29,12.29,0,0,1,.31-2.7A13.74,13.74,0,0,1,47.15,103h11.6A38.78,38.78,0,0,1,45,85.16,1.59,1.59,0,0,1,45,85a43.08,43.08,0,0,1-2.33-14.13c0-11.71,4.87-23.34,14.45-34.55.08-.08.15-.17.23-.26,12.72-14,28-21.14,45.49-21.14H103c15.34,0,28.48,5.73,39.06,17,.16.16.3.33.45.5,8.39,10,12.65,21.41,12.65,33.87v3.79c0,5.3-3.42,11.45-11.06,13.23a11.88,11.88,0,0,1-2.72.31H129.71c10.55,7.79,16.09,18.89,16.09,32.19,0,11.77-4.88,23.42-14.52,34.63-.07.09-.15.17-.23.26-12.72,14-28,21.06-45.41,21.06Zm2.08-52.84a3.09,3.09,0,0,0,1.06.13,4.59,4.59,0,0,0,2.85-.85,19.77,19.77,0,0,0-3-1.8c-.36-.16-.9-.38-1.68-.69,0,.07,0,.14,0,.2,0,.36.05.73.05,1.09a4.65,4.65,0,0,0,.67,1.9ZM97,68.46a21.81,21.81,0,0,0,4.57,2.42c0-.25,0-.51,0-.76V68.59a4.6,4.6,0,0,0-.31-.57,1.88,1.88,0,0,0-1.39-.43A4.64,4.64,0,0,0,97,68.46Z"/><path class="cls-4" d="M238.31,170.55c-6,0-12.63-4.11-14-13.29-.19-.91-.38-1.75-.55-2.54h-25c-3.38,7.6-3.67,8.1-4,8.7a11.9,11.9,0,0,1-1.22,1.75,14.45,14.45,0,0,1-11.23,5.38H154.8a12.41,12.41,0,0,1-1.49-.09,12.81,12.81,0,0,1-11.46-12.74v-.18c0-3,.7-4.54,4.57-13.08,22.76-50.85,33.27-74.33,34.05-76.05,17.07-38.22,19.46-43.56,19.78-44.24a12,12,0,0,1,2-3,14.79,14.79,0,0,1,11.07-5.12h24.85c5.75,0,12.18,3.77,13.74,12.18q15.44,72.19,17.28,80.84c9.73,45.26,9.82,46.08,9.92,47.13a11.77,11.77,0,0,1-.08,3.08,13,13,0,0,1-13,11.25Z"/><path class="cls-4" d="M280.3,170.55a11.72,11.72,0,0,1-2.13-.19A13.26,13.26,0,0,1,267,157.25c0-.41,0-.81.06-1.22l7.41-72.83c5.66-54.63,5.74-55.23,5.8-55.67a12.1,12.1,0,0,1,1.91-5.05,13.84,13.84,0,0,1,11.58-6.41h27.58a12.23,12.23,0,0,1,2.56.27,13.29,13.29,0,0,1,10.81,13.09,10.19,10.19,0,0,1-.07,1.24c-7,67.61-8.27,80.24-8.39,81.58,0,.18,0,.36-.05.54-.13,1-.3,2.65-.54,4.88h37.73a12.34,12.34,0,0,1,2.36.23,13.54,13.54,0,0,1,11.13,13.25,11.12,11.12,0,0,1-.06,1.16q-1.27,13.19-2,19.79c-.24,2.26-.42,4-.56,5.08-.08.69-.14,1.2-.19,1.55a13.22,13.22,0,0,1-1.58,4.71l-.26.44a13.94,13.94,0,0,1-11.9,6.67Z"/><path class="cls-4" d="M378.1,170.55a12.11,12.11,0,0,1-2.54-.27,13.24,13.24,0,0,1-10.82-13q0-.62.06-1.23c5.69-55.17,8.66-84.1,8.82-86C373.62,70,378,28,378,28a12,12,0,0,1,1.8-5.18,13.73,13.73,0,0,1,11.68-6.71h28.11c12.6,0,24.63,4,35.78,11.9a70.79,70.79,0,0,1,7.42,6.23l.37.36a68.18,68.18,0,0,1,9.11,10.85,73.37,73.37,0,0,1,6.75,12,74.22,74.22,0,0,1,6.43,29.69c0,15.18-5.18,30.58-15.39,45.78l-.17.25c-11.34,16-25.51,27.21-42.12,33.42l-.3.11a65.88,65.88,0,0,1-21.34,3.85ZM424.67,106c.46-.55.9-1.12,1.3-1.7,3.34-5,5-9.74,5-14.64V88.57a18.31,18.31,0,0,0-3.37-10.75Q426.45,88.71,424.67,106Z"/><path class="cls-4" d="M544.94,171.74a72.07,72.07,0,0,1-48.49-18.12c-.21-.19-.42-.38-.62-.58-5-5-7.15-7.56-8.35-9.39a73.18,73.18,0,0,1-7.26-11.85l-.1-.22a74.5,74.5,0,0,1-6.84-31.21c0-17.52,5.6-34.22,16.66-49.64l.13-.18a111.66,111.66,0,0,1,8.65-10,6.25,6.25,0,0,1,.45-.44,93.77,93.77,0,0,1,14.65-11.72c14.28-9,29.44-13.5,45.06-13.5h.36A72.07,72.07,0,0,1,607.73,33c.21.19.42.38.62.58,5,5.05,7.16,7.56,8.35,9.4A72.56,72.56,0,0,1,624,54.82c0,.08.07.15.1.23a74.5,74.5,0,0,1,6.85,31.2c0,17.52-5.61,34.22-16.66,49.64l-.14.18a111.66,111.66,0,0,1-8.65,10c-.14.15-.29.3-.44.44a94.85,94.85,0,0,1-14.65,11.73c-14.29,8.95-29.45,13.49-45.07,13.49Zm-9.55-58.85a20.15,20.15,0,0,0,7.83,3.69,19.56,19.56,0,0,0,4.16.55h1.72a26.61,26.61,0,0,0,13-3.93l.26-.15a30.53,30.53,0,0,0,5.19-4.08,28.7,28.7,0,0,0,4.13-5c.08-.14.16-.28.25-.41a26.4,26.4,0,0,0,4.22-14,20.08,20.08,0,0,0-5.84-14.44l-1.57-1.36A19.72,19.72,0,0,0,560.6,70a20.36,20.36,0,0,0-3.79-.48h-1.72a26.46,26.46,0,0,0-13,3.94l-.26.14a29.89,29.89,0,0,0-5.2,4.08,28.7,28.7,0,0,0-4.13,5l-.24.42a26.28,26.28,0,0,0-4.23,14,20.06,20.06,0,0,0,5.85,14.44C534.23,111.87,534.72,112.3,535.39,112.89Z"/><path class="cls-5" d="M103.79,22.88H104a39.94,39.94,0,0,1,30.31,13.23q9.84,11.74,9.85,26.16v3.79c0,.75-.6,1.27-1.78,1.54H115.65c-.75,0-1.13-.49-1.13-1.48V64.28a13.54,13.54,0,0,0-3.08-8,13.89,13.89,0,0,0-10.62-4.69A17.3,17.3,0,0,0,87.89,57.4a11.54,11.54,0,0,0-2.67,7q0,9.43,16.31,14.89,14.66,4.8,21.47,9.55,11.81,8.3,11.8,23,0,13.29-11.62,26.81-15.6,17.15-36.54,17.14h-.23a39.94,39.94,0,0,1-29.24-12.1,39.28,39.28,0,0,1-10.92-27.22v-3.86a1.78,1.78,0,0,1,1.9-1.54H74.37c.83,0,1.3.65,1.42,2a17,17,0,0,0,2.67,8.6A12.86,12.86,0,0,0,89.55,127a17,17,0,0,0,12.69-5.57,11.15,11.15,0,0,0,3-7.42q0-7.23-10.68-12.51Q91.28,100,82.2,97a74,74,0,0,1-14.06-6.76Q60.13,84.8,57.29,77a30.91,30.91,0,0,1-1.67-10.2q0-13.21,11.57-26.75Q82.79,22.89,103.79,22.88Z"/><path class="cls-5" d="M214.28,24.07h24.85c1,0,1.68.83,2,2.49q15.48,72.36,17.32,81,9.6,44.65,9.72,45.85c-.11.75-.49,1.12-1.12,1.12h-27.7c-1.19,0-1.92-1.12-2.19-3.38-1.75-8.1-2.61-12.25-2.61-12.45H191.92q-6.16,13.93-6.64,14.77a2.61,2.61,0,0,1-2,1.06H155.8c-.63-.08-1-.35-1-.83v-.18q0-.4,3.5-8.12,32.86-73.42,34.05-76,19-42.64,19.75-44.18A2.88,2.88,0,0,1,214.28,24.07Zm-8.9,84.58H228l-7.23-34.17q-.24.36-5.28,11.75Z"/><path class="cls-5" d="M294.76,24.07h27.58c.91.2,1.37.65,1.37,1.36q-8.43,81.5-8.42,81.91-.48,3.91-1.9,18.33h51c1,.2,1.49.69,1.49,1.48q-2.55,26.28-2.73,26.28a2,2,0,0,1-1.78,1.12H281.3c-.87-.15-1.3-.59-1.3-1.3l7.41-72.83q5.64-54.39,5.75-55.28A2,2,0,0,1,294.76,24.07Z"/><path class="cls-5" d="M392.45,24.07h28.11q15.18,0,28.89,9.73a59.46,59.46,0,0,1,13.7,14.11A63.14,63.14,0,0,1,469,58.17a62.05,62.05,0,0,1,5.46,25q0,19.22-13.35,39.09-14.94,21.06-36.53,29.12a53.65,53.65,0,0,1-17.44,3.2h-28c-.91-.19-1.36-.63-1.36-1.3q8.65-84,8.84-86.24l4.33-41.81C391.38,24.45,391.9,24.07,392.45,24.07Zm26,30v.06q-.3,3.44-7.12,69.69a40.47,40.47,0,0,0,15.6-6.7,42.54,42.54,0,0,0,9.9-10q7.06-10.42,7.06-21.41V84.57q0-11.86-8.48-21.36-4.21-4.14-6.05-4.92A29.7,29.7,0,0,0,418.49,54Z"/><path class="cls-5" d="M559.88,22.88h.36a60.14,60.14,0,0,1,40.63,15.19q5.86,5.86,6.94,7.71A61.74,61.74,0,0,1,614.15,56a62.24,62.24,0,0,1,5.76,26.21q0,22.55-14.42,42.65a101.46,101.46,0,0,1-7.71,8.89A82.49,82.49,0,0,1,585,144.05q-18.63,11.69-38.73,11.69h-.36a60.08,60.08,0,0,1-40.62-15.18q-5.88-5.88-6.94-7.72A60.76,60.76,0,0,1,492,122.58a62.38,62.38,0,0,1-5.75-26.21q0-22.54,14.41-42.65a101.46,101.46,0,0,1,7.71-8.89,82.49,82.49,0,0,1,12.75-10.26Q539.78,22.89,559.88,22.88Zm-3.14,30.61h-.65q-9.32,0-19,5.51a43.5,43.5,0,0,0-7.89,6A41.81,41.81,0,0,0,523,72.82a38.4,38.4,0,0,0-6,20.29,32.22,32.22,0,0,0,9.67,23.25c.12.08.83.69,2.13,1.84a32.4,32.4,0,0,0,12.87,6.1,30.94,30.94,0,0,0,6.71.83h.89a.06.06,0,0,1,.06.06l.11-.06h.66q9.3,0,19-5.51a43.38,43.38,0,0,0,7.88-6.05,41.17,41.17,0,0,0,6.23-7.77,38.36,38.36,0,0,0,6-20.28,32.19,32.19,0,0,0-9.67-23.25c-.11-.08-.83-.7-2.13-1.84a31.87,31.87,0,0,0-13.46-6.23,31.49,31.49,0,0,0-6.11-.71h-.89a.05.05,0,0,1-.06-.06Z"/><g class="cls-6"><path class="cls-7" d="M103.79,22.88H104a39.94,39.94,0,0,1,30.31,13.23q9.84,11.74,9.85,26.16v3.79c0,.75-.6,1.27-1.78,1.54H115.65c-.75,0-1.13-.49-1.13-1.48V64.28a13.54,13.54,0,0,0-3.08-8,13.89,13.89,0,0,0-10.62-4.69A17.3,17.3,0,0,0,87.89,57.4a11.54,11.54,0,0,0-2.67,7q0,9.43,16.31,14.89,14.66,4.8,21.47,9.55,11.81,8.3,11.8,23,0,13.29-11.62,26.81-15.6,17.15-36.54,17.14h-.23a39.94,39.94,0,0,1-29.24-12.1,39.28,39.28,0,0,1-10.92-27.22v-3.86a1.78,1.78,0,0,1,1.9-1.54H74.37c.83,0,1.3.65,1.42,2a17,17,0,0,0,2.67,8.6A12.86,12.86,0,0,0,89.55,127a17,17,0,0,0,12.69-5.57,11.15,11.15,0,0,0,3-7.42q0-7.23-10.68-12.51Q91.28,100,82.2,97a74,74,0,0,1-14.06-6.76Q60.13,84.8,57.29,77a30.91,30.91,0,0,1-1.67-10.2q0-13.21,11.57-26.75Q82.79,22.89,103.79,22.88Z"/><path class="cls-7" d="M214.28,24.07h24.85c1,0,1.68.83,2,2.49q15.48,72.36,17.32,81,9.6,44.65,9.72,45.85c-.11.75-.49,1.12-1.12,1.12h-27.7c-1.19,0-1.92-1.12-2.19-3.38-1.75-8.1-2.61-12.25-2.61-12.45H191.92q-6.16,13.93-6.64,14.77a2.61,2.61,0,0,1-2,1.06H155.8c-.63-.08-1-.35-1-.83v-.18q0-.4,3.5-8.12,32.86-73.42,34.05-76,19-42.64,19.75-44.18A2.88,2.88,0,0,1,214.28,24.07Zm-8.9,84.58H228l-7.23-34.17q-.24.36-5.28,11.75Z"/><path class="cls-7" d="M294.76,24.07h27.58c.91.2,1.37.65,1.37,1.36q-8.43,81.5-8.42,81.91-.48,3.91-1.9,18.33h51c1,.2,1.49.69,1.49,1.48q-2.55,26.28-2.73,26.28a2,2,0,0,1-1.78,1.12H281.3c-.87-.15-1.3-.59-1.3-1.3l7.41-72.83q5.64-54.39,5.75-55.28A2,2,0,0,1,294.76,24.07Z"/><path class="cls-7" d="M392.45,24.07h28.11q15.18,0,28.89,9.73a59.46,59.46,0,0,1,13.7,14.11A63.14,63.14,0,0,1,469,58.17a62.05,62.05,0,0,1,5.46,25q0,19.22-13.35,39.09-14.94,21.06-36.53,29.12a53.65,53.65,0,0,1-17.44,3.2h-28c-.91-.19-1.36-.63-1.36-1.3q8.65-84,8.84-86.24l4.33-41.81C391.38,24.45,391.9,24.07,392.45,24.07Zm26,30v.06q-.3,3.44-7.12,69.69a40.47,40.47,0,0,0,15.6-6.7,42.54,42.54,0,0,0,9.9-10q7.06-10.42,7.06-21.41V84.57q0-11.86-8.48-21.36-4.21-4.14-6.05-4.92A29.7,29.7,0,0,0,418.49,54Z"/><path class="cls-7" d="M559.88,22.88h.36a60.14,60.14,0,0,1,40.63,15.19q5.86,5.86,6.94,7.71A61.74,61.74,0,0,1,614.15,56a62.24,62.24,0,0,1,5.76,26.21q0,22.55-14.42,42.65a101.46,101.46,0,0,1-7.71,8.89A82.49,82.49,0,0,1,585,144.05q-18.63,11.69-38.73,11.69h-.36a60.08,60.08,0,0,1-40.62-15.18q-5.88-5.88-6.94-7.72A60.76,60.76,0,0,1,492,122.58a62.38,62.38,0,0,1-5.75-26.21q0-22.54,14.41-42.65a101.46,101.46,0,0,1,7.71-8.89,82.49,82.49,0,0,1,12.75-10.26Q539.78,22.89,559.88,22.88Zm-3.14,30.61h-.65q-9.32,0-19,5.51a43.5,43.5,0,0,0-7.89,6A41.81,41.81,0,0,0,523,72.82a38.4,38.4,0,0,0-6,20.29,32.22,32.22,0,0,0,9.67,23.25c.12.08.83.69,2.13,1.84a32.4,32.4,0,0,0,12.87,6.1,30.94,30.94,0,0,0,6.71.83h.89a.06.06,0,0,1,.06.06l.11-.06h.66q9.3,0,19-5.51a43.38,43.38,0,0,0,7.88-6.05,41.17,41.17,0,0,0,6.23-7.77,38.36,38.36,0,0,0,6-20.28,32.19,32.19,0,0,0-9.67-23.25c-.11-.08-.83-.7-2.13-1.84a31.87,31.87,0,0,0-13.46-6.23,31.49,31.49,0,0,0-6.11-.71h-.89a.05.05,0,0,1-.06-.06Z"/></g></g></g></svg>