<svg xmlns="http://www.w3.org/2000/svg" xmlns:xlink="http://www.w3.org/1999/xlink" viewBox="0 0 271 96"><defs><style>.cls-1{fill:none;}.cls-2{fill:#fff;}.cls-3{isolation:isolate;}.cls-4{fill:url(#linear-gradient);}.cls-5{fill:url(#linear-gradient-8);}.cls-6{opacity:0.7;mix-blend-mode:overlay;}.cls-7{font-size:48.79px;font-family:FugazOne-Regular, Fugaz One;fill:url(#New_Pattern_11);}.cls-8{letter-spacing:-0.06em;}</style><linearGradient id="linear-gradient" x1="144.7" y1="61.43" x2="144.7" y2="27.86" gradientTransform="translate(-1.43 1.43)" gradientUnits="userSpaceOnUse"><stop offset="0" stop-color="#4a0000"/><stop offset="1" stop-color="#e00018"/></linearGradient><linearGradient id="linear-gradient-8" x1="144.7" y1="56.62" x2="144.7" y2="31.22" gradientUnits="userSpaceOnUse"><stop offset="0" stop-color="#ccc"/><stop offset="0.99" stop-color="#fff"/></linearGradient><pattern id="New_Pattern_11" data-name="New Pattern 11" width="310" height="210" patternTransform="matrix(0.44, -0.25, 0.25, 0.44, 148.01, 745.95)" patternUnits="userSpaceOnUse" viewBox="0 0 310 210"><rect class="cls-1" width="310" height="210"/><polygon class="cls-2" points="309.75 183.75 309.75 166.75 620.25 166.75 620.25 183.75 309.75 183.75"/><polygon class="cls-2" points="309.75 198.25 309.75 189.75 620.25 189.75 620.25 198.25 309.75 198.25"/><polygon class="cls-2" points="-0.25 183.75 -0.25 166.75 310.25 166.75 310.25 183.75 -0.25 183.75"/><polygon class="cls-2" points="-0.25 198.25 -0.25 189.75 310.25 189.75 310.25 198.25 -0.25 198.25"/><polygon class="cls-2" points="-310.25 183.75 -310.25 166.75 0.25 166.75 0.25 183.75 -310.25 183.75"/><polygon class="cls-2" points="-310.25 198.25 -310.25 189.75 0.25 189.75 0.25 198.25 -310.25 198.25"/><polygon class="cls-2" points="309.75 78.75 309.75 61.75 620.25 61.75 620.25 78.75 309.75 78.75"/><polygon class="cls-2" points="309.75 118.25 309.75 105.75 620.25 105.75 620.25 118.25 309.75 118.25"/><polygon class="cls-2" points="309.75 93.25 309.75 84.75 620.25 84.75 620.25 93.25 309.75 93.25"/><polygon class="cls-2" points="309.75 148.25 309.75 139.75 620.25 139.75 620.25 148.25 309.75 148.25"/><polygon class="cls-2" points="309.75 128.25 309.75 122.75 620.25 122.75 620.25 128.25 309.75 128.25"/><polygon class="cls-2" points="-0.25 78.75 -0.25 61.75 310.25 61.75 310.25 78.75 -0.25 78.75"/><polygon class="cls-2" points="-0.25 118.25 -0.25 105.75 310.25 105.75 310.25 118.25 -0.25 118.25"/><polygon class="cls-2" points="-0.25 93.25 -0.25 84.75 310.25 84.75 310.25 93.25 -0.25 93.25"/><polygon class="cls-2" points="-0.25 148.25 -0.25 139.75 310.25 139.75 310.25 148.25 -0.25 148.25"/><polygon class="cls-2" points="-0.25 128.25 -0.25 122.75 310.25 122.75 310.25 128.25 -0.25 128.25"/><polygon class="cls-2" points="-310.25 78.75 -310.25 61.75 0.25 61.75 0.25 78.75 -310.25 78.75"/><polygon class="cls-2" points="-310.25 118.25 -310.25 105.75 0.25 105.75 0.25 118.25 -310.25 118.25"/><polygon class="cls-2" points="-310.25 93.25 -310.25 84.75 0.25 84.75 0.25 93.25 -310.25 93.25"/><polygon class="cls-2" points="-310.25 148.25 -310.25 139.75 0.25 139.75 0.25 148.25 -310.25 148.25"/><polygon class="cls-2" points="-310.25 128.25 -310.25 122.75 0.25 122.75 0.25 128.25 -310.25 128.25"/><polygon class="cls-2" points="309.75 13.25 309.75 0.75 620.25 0.75 620.25 13.25 309.75 13.25"/><polygon class="cls-2" points="309.75 43.25 309.75 34.75 620.25 34.75 620.25 43.25 309.75 43.25"/><polygon class="cls-2" points="309.75 23.25 309.75 17.75 620.25 17.75 620.25 23.25 309.75 23.25"/><polygon class="cls-2" points="-0.25 13.25 -0.25 0.75 310.25 0.75 310.25 13.25 -0.25 13.25"/><polygon class="cls-2" points="-0.25 43.25 -0.25 34.75 310.25 34.75 310.25 43.25 -0.25 43.25"/><polygon class="cls-2" points="-0.25 23.25 -0.25 17.75 310.25 17.75 310.25 23.25 -0.25 23.25"/><polygon class="cls-2" points="-310.25 13.25 -310.25 0.75 0.25 0.75 0.25 13.25 -310.25 13.25"/><polygon class="cls-2" points="-310.25 43.25 -310.25 34.75 0.25 34.75 0.25 43.25 -310.25 43.25"/><polygon class="cls-2" points="-310.25 23.25 -310.25 17.75 0.25 17.75 0.25 23.25 -310.25 23.25"/></pattern></defs><title>selamat-01-01</title><g class="cls-3"><g id="Layer_1" data-name="Layer 1"><path class="cls-4" d="M43.3,68.72C37,68.72,32.67,67.45,30,64.86a11.43,11.43,0,0,1-3.32-8.54A20.62,20.62,0,0,1,27,52.63l.15-.8a4,4,0,0,1,3.93-3.26h1.13l-.31-.35a11,11,0,0,1-2.62-7.41c0-6.07,2.57-16.25,19.76-16.25,4.75,0,8.38,1,11.08,3a11.06,11.06,0,0,1,4.58,9.25,14.06,14.06,0,0,1-.52,3.8,9.6,9.6,0,0,1-1.31,3l-.36.54a4,4,0,0,1-2.12,1.59,11.54,11.54,0,0,1,2,6.83c0,5.38-1.75,9.52-5.2,12.3C54,67.44,49.44,68.72,43.3,68.72Z"/><path class="cls-4" d="M62,68a4,4,0,0,1-3.94-4.69l6.19-35.13a4,4,0,0,1,3.94-3.31h24.5a4,4,0,0,1,3.93,4.71l-1.36,7.61a4,4,0,0,1-3.94,3.29h-.8v0a4,4,0,0,1,.87,3.28L90,51.42a4,4,0,0,1-.52,1.36,4,4,0,0,1,1.4,1.07,4,4,0,0,1,.87,3.28l-1.36,7.61A4,4,0,0,1,86.48,68Z"/><path class="cls-4" d="M92.09,68a4,4,0,0,1-3.94-4.69l6.2-35.13a4,4,0,0,1,3.94-3.31h8.78A4,4,0,0,1,111,29.59l-4,22.83h8.7a4,4,0,0,1,3.94,4.71l-1.37,7.61A4,4,0,0,1,114.34,68Z"/><path class="cls-4" d="M135.61,68a4,4,0,0,1-4-4.15l.14-3.51H130.7l-1.52,4.85A4,4,0,0,1,125.36,68h-9.31a4,4,0,0,1-3.77-5.34l12.54-35.13a4,4,0,0,1,3.76-2.66h16.11a4,4,0,0,1,4,4L148.88,64a4,4,0,0,1-4,4Z"/><path class="cls-4" d="M175.52,68a4,4,0,0,1-3.94-4.7l.6-3.35a4.89,4.89,0,0,1-.66.05h-6.39a3.92,3.92,0,0,1-2-.52l-.92,5.22A4,4,0,0,1,158.3,68h-8.78a4,4,0,0,1-3.94-4.69l6.19-35.13a4,4,0,0,1,3.94-3.31h9.17a4,4,0,0,1,3.82,2.82l2.74,8.81L178,26.68a4,4,0,0,1,3.33-1.78h9.22a4,4,0,0,1,3.94,4.7l-6.2,35.13a4,4,0,0,1-3.94,3.3Z"/><path class="cls-4" d="M208.65,68a4,4,0,0,1-4-4.15l.14-3.51h-1l-1.52,4.85A4,4,0,0,1,198.4,68h-9.32a4,4,0,0,1-3.76-5.34l12.54-35.13a4,4,0,0,1,3.76-2.66h16.1a4,4,0,0,1,4,4l.2,35.13a4,4,0,0,1-1.17,2.84A4,4,0,0,1,217.92,68Z"/><path class="cls-4" d="M228.85,68a4,4,0,0,1-3.94-4.69l4-22.83h-7.28a4,4,0,0,1-3.94-4.7l1.36-7.61A4,4,0,0,1,223,24.9h32.89a4,4,0,0,1,3.93,4.71l-1.36,7.61a4,4,0,0,1-3.94,3.29h-8.64l-4.25,24.21A4,4,0,0,1,237.68,68Z"/><path class="cls-5" d="M41.12,52.6Q41.12,56,46,56c3.23,0,4.85-1,4.85-3a3,3,0,0,0-1.66-2.64,15.94,15.94,0,0,0-4-1.7q-2.37-.69-4.73-1.59a9.84,9.84,0,0,1-4-2.83,7.09,7.09,0,0,1-1.66-4.81q0-12.24,15.76-12.24,5.76,0,8.71,2.17a7.06,7.06,0,0,1,2.95,6A10,10,0,0,1,61.79,38,6.23,6.23,0,0,1,61,39.86l-.39.59H52a3.92,3.92,0,0,0,1.08-2.83c0-2.12-1.39-3.17-4.15-3.17q-5.22,0-5.22,3.31a3,3,0,0,0,1.66,2.64,14.73,14.73,0,0,0,4,1.54,45.67,45.67,0,0,1,4.76,1.39,9.31,9.31,0,0,1,4.05,2.75,7.4,7.4,0,0,1,1.66,5q0,6.21-3.71,9.2t-11.42,3q-7.71,0-10.53-2.73a7.55,7.55,0,0,1-2.1-5.66,16.36,16.36,0,0,1,.29-3l.15-.78h8.78l-.1.59A4.94,4.94,0,0,0,41.12,52.6Z"/><path class="cls-5" d="M87.91,62.6H63.42l6.2-35.13H94.11l-1.37,7.61H77l-1.12,6.59h13l-1.37,7.61h-13l-1,5.71H89.28Z"/><path class="cls-5" d="M115.77,62.6H93.52l6.2-35.13h8.78L103.67,55h13.47Z"/><path class="cls-5" d="M137,62.6l.3-7.66h-8.15L126.8,62.6h-9.32L130,27.47h16.1l.19,35.13ZM135,36,131.19,48.4h6.39L138.12,36Z"/><path class="cls-5" d="M166.32,27.47l5.22,16.83,11.22-16.83H192L185.79,62.6H177l3.52-19.81L173,54.6h-6.39l-3.32-11.81L159.73,62.6H151l6.2-35.13Z"/><path class="cls-5" d="M210.08,62.6l.29-7.66h-8.14l-2.39,7.66h-9.32l12.54-35.13h16.1l.19,35.13Zm-2-26.59L204.23,48.4h6.39L211.16,36Z"/><path class="cls-5" d="M255.94,35.08h-12L239.11,62.6h-8.83l4.83-27.52H223.06l1.37-7.61h32.88Z"/><g class="cls-6"><text class="cls-7" transform="translate(30.88 62.6)">SELAM<tspan class="cls-8" x="160.91" y="0">A</tspan><tspan x="189.35" y="0">T</tspan></text></g></g></g></svg>