<svg xmlns="http://www.w3.org/2000/svg" xmlns:xlink="http://www.w3.org/1999/xlink" viewBox="0 0 773 345"><defs><style>.cls-1{fill:none;}.cls-2{fill:#fff;}.cls-3{isolation:isolate;}.cls-4{fill:url(#linear-gradient);}.cls-5{fill:url(#linear-gradient-8);}.cls-6{fill:url(#linear-gradient-15);}.cls-7{fill:url(#linear-gradient-22);}.cls-8{fill:url(#linear-gradient-29);}.cls-9{fill:url(#linear-gradient-36);}.cls-10{fill:url(#linear-gradient-43);}.cls-11{fill:url(#linear-gradient-50);}.cls-12{fill:url(#linear-gradient-57);}.cls-13{opacity:0.7;mix-blend-mode:overlay;}.cls-14{fill:url(#New_Pattern_11);}</style><linearGradient id="linear-gradient" x1="389.1" y1="259.04" x2="389.1" y2="58.48" gradientTransform="translate(4.92 5.73) scale(0.99 1)" gradientUnits="userSpaceOnUse"><stop offset="0" stop-color="#270011"/><stop offset="1" stop-color="#4a0000"/></linearGradient><linearGradient id="linear-gradient-8" x1="389.1" y1="259.04" x2="389.1" y2="58.48" gradientTransform="translate(3.87 5.02) scale(0.99 1)" xlink:href="#linear-gradient"/><linearGradient id="linear-gradient-15" x1="389.1" y1="259.04" x2="389.1" y2="58.48" gradientTransform="translate(2.81 4.3) scale(0.99 1)" xlink:href="#linear-gradient"/><linearGradient id="linear-gradient-22" x1="389.1" y1="259.04" x2="389.1" y2="58.48" gradientTransform="translate(1.75 3.58) scale(0.99 1)" xlink:href="#linear-gradient"/><linearGradient id="linear-gradient-29" x1="389.1" y1="259.04" x2="389.1" y2="58.48" gradientTransform="translate(0.69 2.87)" xlink:href="#linear-gradient"/><linearGradient id="linear-gradient-36" x1="389.1" y1="259.04" x2="389.1" y2="58.48" gradientTransform="translate(-0.37 2.15)" xlink:href="#linear-gradient"/><linearGradient id="linear-gradient-43" x1="389.1" y1="259.04" x2="389.1" y2="58.48" gradientTransform="translate(-1.43 1.43)" xlink:href="#linear-gradient"/><linearGradient id="linear-gradient-50" x1="389.1" y1="259.04" x2="389.1" y2="58.48" gradientTransform="translate(-1.43 1.43)" gradientUnits="userSpaceOnUse"><stop offset="0" stop-color="#4a0000"/><stop offset="1" stop-color="#e00018"/></linearGradient><linearGradient id="linear-gradient-57" x1="389.11" y1="241.78" x2="389.11" y2="64.54" gradientUnits="userSpaceOnUse"><stop offset="0" stop-color="#ccc"/><stop offset="0.99" stop-color="#fff"/></linearGradient><pattern id="New_Pattern_11" data-name="New Pattern 11" width="310" height="210" patternTransform="matrix(0.39, -0.31, 0.38, 0.57, 180.03, 1186.74)" patternUnits="userSpaceOnUse" viewBox="0 0 310 210"><rect class="cls-1" width="310" height="210"/><polygon class="cls-2" points="309.75 183.75 309.75 166.75 620.25 166.75 620.25 183.75 309.75 183.75"/><polygon class="cls-2" points="309.75 198.25 309.75 189.75 620.25 189.75 620.25 198.25 309.75 198.25"/><polygon class="cls-2" points="-0.25 183.75 -0.25 166.75 310.25 166.75 310.25 183.75 -0.25 183.75"/><polygon class="cls-2" points="-0.25 198.25 -0.25 189.75 310.25 189.75 310.25 198.25 -0.25 198.25"/><polygon class="cls-2" points="-310.25 183.75 -310.25 166.75 0.25 166.75 0.25 183.75 -310.25 183.75"/><polygon class="cls-2" points="-310.25 198.25 -310.25 189.75 0.25 189.75 0.25 198.25 -310.25 198.25"/><polygon class="cls-2" points="309.75 78.75 309.75 61.75 620.25 61.75 620.25 78.75 309.75 78.75"/><polygon class="cls-2" points="309.75 118.25 309.75 105.75 620.25 105.75 620.25 118.25 309.75 118.25"/><polygon class="cls-2" points="309.75 93.25 309.75 84.75 620.25 84.75 620.25 93.25 309.75 93.25"/><polygon class="cls-2" points="309.75 148.25 309.75 139.75 620.25 139.75 620.25 148.25 309.75 148.25"/><polygon class="cls-2" points="309.75 128.25 309.75 122.75 620.25 122.75 620.25 128.25 309.75 128.25"/><polygon class="cls-2" points="-0.25 78.75 -0.25 61.75 310.25 61.75 310.25 78.75 -0.25 78.75"/><polygon class="cls-2" points="-0.25 118.25 -0.25 105.75 310.25 105.75 310.25 118.25 -0.25 118.25"/><polygon class="cls-2" points="-0.25 93.25 -0.25 84.75 310.25 84.75 310.25 93.25 -0.25 93.25"/><polygon class="cls-2" points="-0.25 148.25 -0.25 139.75 310.25 139.75 310.25 148.25 -0.25 148.25"/><polygon class="cls-2" points="-0.25 128.25 -0.25 122.75 310.25 122.75 310.25 128.25 -0.25 128.25"/><polygon class="cls-2" points="-310.25 78.75 -310.25 61.75 0.25 61.75 0.25 78.75 -310.25 78.75"/><polygon class="cls-2" points="-310.25 118.25 -310.25 105.75 0.25 105.75 0.25 118.25 -310.25 118.25"/><polygon class="cls-2" points="-310.25 93.25 -310.25 84.75 0.25 84.75 0.25 93.25 -310.25 93.25"/><polygon class="cls-2" points="-310.25 148.25 -310.25 139.75 0.25 139.75 0.25 148.25 -310.25 148.25"/><polygon class="cls-2" points="-310.25 128.25 -310.25 122.75 0.25 122.75 0.25 128.25 -310.25 128.25"/><polygon class="cls-2" points="309.75 13.25 309.75 0.75 620.25 0.75 620.25 13.25 309.75 13.25"/><polygon class="cls-2" points="309.75 43.25 309.75 34.75 620.25 34.75 620.25 43.25 309.75 43.25"/><polygon class="cls-2" points="309.75 23.25 309.75 17.75 620.25 17.75 620.25 23.25 309.75 23.25"/><polygon class="cls-2" points="-0.25 13.25 -0.25 0.75 310.25 0.75 310.25 13.25 -0.25 13.25"/><polygon class="cls-2" points="-0.25 43.25 -0.25 34.75 310.25 34.75 310.25 43.25 -0.25 43.25"/><polygon class="cls-2" points="-0.25 23.25 -0.25 17.75 310.25 17.75 310.25 23.25 -0.25 23.25"/><polygon class="cls-2" points="-310.25 13.25 -310.25 0.75 0.25 0.75 0.25 13.25 -310.25 13.25"/><polygon class="cls-2" points="-310.25 43.25 -310.25 34.75 0.25 34.75 0.25 43.25 -310.25 43.25"/><polygon class="cls-2" points="-310.25 23.25 -310.25 17.75 0.25 17.75 0.25 23.25 -310.25 23.25"/></pattern></defs><title>ZONK</title><g class="cls-3"><g id="Layer_1" data-name="Layer 1"><path class="cls-4" d="M48,299.72a5.61,5.61,0,0,1-3.83-1.51,5.76,5.76,0,0,1-1.83-4.49l1.49-32.07a5.75,5.75,0,0,1,2-4.06l57.74-80.42-49.83,6.62a4.53,4.53,0,0,1-.74.05,5.61,5.61,0,0,1-3.83-1.51,5.8,5.8,0,0,1-1.83-4.49l1.5-32.07a5.7,5.7,0,0,1,4.92-5.41l104.77-13.93a6.12,6.12,0,0,1,.74,0A5.61,5.61,0,0,1,163,127.9a5.75,5.75,0,0,1,1.83,4.49l-1.49,32.07a5.88,5.88,0,0,1-1.08,3.1l-58.42,81.35,49.44-6.57a6.13,6.13,0,0,1,.74-.05,5.61,5.61,0,0,1,3.83,1.51,5.76,5.76,0,0,1,1.83,4.49l-1.5,32.07a5.69,5.69,0,0,1-4.92,5.42L48.7,299.67A6.13,6.13,0,0,1,48,299.72Z"/><path class="cls-4" d="M214.48,279.65c-14,0-25-3.54-32.6-10.54-7-6.39-11.28-15.8-12.86-28a95,95,0,0,1-.51-17.13l1.73-41c.84-19.68,6.63-35.44,17.23-46.83s26-18.44,45.79-21.08a101.62,101.62,0,0,1,13.16-.92c26.88,0,42.84,13.51,46.15,39.07a85.59,85.59,0,0,1,.5,15.49l-1.73,41c-.81,20.32-6.45,36.39-16.76,47.74s-25.89,18.48-46.33,21.2A106.51,106.51,0,0,1,214.48,279.65Zm19.19-121.41c-10.86,1.68-15.95,8.26-16.49,21.3L215.44,219a60.62,60.62,0,0,0,.52,9.54c.57,4.42,2.21,7.16,8.61,7.16h0a28.38,28.38,0,0,0,3.52-.25c5.27-.7,9.1-2.49,11.7-5.46,1.79-2,4-6.61,4.41-16.8l1.74-39.41a46,46,0,0,0-.29-6.39c-1-7.77-4.39-9.37-9.15-9.37A22.38,22.38,0,0,0,233.67,158.24Z"/><path class="cls-4" d="M307.51,265.24a5.66,5.66,0,0,1-3.83-1.51,5.74,5.74,0,0,1-1.83-4.48l6.44-147.95a5.7,5.7,0,0,1,4.92-5.43l36.91-4.9a4.68,4.68,0,0,1,.74,0,5.67,5.67,0,0,1,5.09,3.21l24.42,50.46,2.33-53.17A5.73,5.73,0,0,1,387.63,96l35.71-4.74a6.27,6.27,0,0,1,.74,0,5.61,5.61,0,0,1,3.83,1.51,5.77,5.77,0,0,1,1.83,4.47L423.5,245.09a5.72,5.72,0,0,1-4.93,5.44l-35.91,4.77a6.27,6.27,0,0,1-.74,0,5.67,5.67,0,0,1-5.13-3.29l-25.41-54.63L349.08,255a5.72,5.72,0,0,1-4.92,5.46l-35.92,4.77A6,6,0,0,1,307.51,265.24Z"/><path class="cls-4" d="M445.81,246.86a5.61,5.61,0,0,1-3.83-1.51,5.78,5.78,0,0,1-1.83-4.48L446.6,92.93a5.7,5.7,0,0,1,4.92-5.43l35.72-4.75a6,6,0,0,1,.73,0,5.61,5.61,0,0,1,3.83,1.51,5.74,5.74,0,0,1,1.83,4.48l-2.4,54.82,2.91-.39,28.58-62.4a5.68,5.68,0,0,1,4.4-3.27l37.7-5a6.27,6.27,0,0,1,.74,0,5.63,5.63,0,0,1,4.56,2.34,5.79,5.79,0,0,1,.59,5.8l-34.93,76.61,28.53,66.65a5.78,5.78,0,0,1-.27,5.11,5.64,5.64,0,0,1-4.19,2.86l-37.7,5a6.13,6.13,0,0,1-.74,0,5.69,5.69,0,0,1-5.2-3.47l-20.06-47.06-6.73.89-2.23,49.46a5.72,5.72,0,0,1-4.92,5.43l-35.72,4.74A6.13,6.13,0,0,1,445.81,246.86Z"/><path class="cls-4" d="M587.15,230.69c-11.19,0-18.44-6.4-19.89-17.55-1.3-10,.1-18,4.16-23.63s11.11-9.31,20.74-10.59a37,37,0,0,1,4.81-.33c11.49,0,18.64,6.36,20.14,17.92,1.29,9.94-.18,17.82-4.35,23.43s-11.2,9.14-20.8,10.41A37.37,37.37,0,0,1,587.15,230.69ZM580,175.55a5.6,5.6,0,0,1-3.74-1.43,5.77,5.77,0,0,1-1.92-4.33l.51-108.14A5.71,5.71,0,0,1,579.74,56l33.74-4.48a6,6,0,0,1,.74,0A5.62,5.62,0,0,1,618.1,53a5.78,5.78,0,0,1,1.77,4.58L612,166.73A5.72,5.72,0,0,1,607.1,172l-26.39,3.5A6,6,0,0,1,580,175.55Z"/><path class="cls-4" d="M645.49,222.94c-11.19,0-18.44-6.4-19.89-17.55-1.3-10,.1-18,4.16-23.63s11.1-9.31,20.73-10.59a37.37,37.37,0,0,1,4.81-.34c11.49,0,18.65,6.37,20.15,17.93,1.28,9.94-.18,17.82-4.36,23.42s-11.2,9.15-20.79,10.42A37.37,37.37,0,0,1,645.49,222.94Zm-7.22-55.14a5.63,5.63,0,0,1-3.75-1.43A5.84,5.84,0,0,1,632.6,162l.51-108.14A5.71,5.71,0,0,1,638,48.24l33.73-4.48a6.13,6.13,0,0,1,.74,0,5.64,5.64,0,0,1,3.89,1.57,5.76,5.76,0,0,1,1.76,4.58L670.31,159a5.69,5.69,0,0,1-4.91,5.26L639,167.75A6.13,6.13,0,0,1,638.27,167.8Z"/><path class="cls-4" d="M703.82,215.19c-11.19,0-18.44-6.4-19.88-17.55-1.3-10,.1-18,4.15-23.64s11.11-9.3,20.74-10.58a37.37,37.37,0,0,1,4.81-.34c11.49,0,18.64,6.37,20.14,17.93,1.29,9.94-.17,17.82-4.35,23.42s-11.2,9.14-20.79,10.42A37.39,37.39,0,0,1,703.82,215.19Zm-7.25-55.14a5.66,5.66,0,0,1-3.75-1.43,5.77,5.77,0,0,1-1.92-4.33l.51-108.14a5.71,5.71,0,0,1,4.92-5.66L730.07,36a6,6,0,0,1,.74,0,5.62,5.62,0,0,1,3.88,1.57,5.77,5.77,0,0,1,1.77,4.58l-7.85,109.11a5.7,5.7,0,0,1-4.92,5.27L697.3,160A6,6,0,0,1,696.57,160.05Z"/><path class="cls-5" d="M47,299a5.63,5.63,0,0,1-3.84-1.51A5.75,5.75,0,0,1,41.32,293l1.5-32.07a5.73,5.73,0,0,1,2-4.06l57.86-80.41-49.94,6.62a6,6,0,0,1-.73,0,5.67,5.67,0,0,1-3.85-1.52,5.82,5.82,0,0,1-1.83-4.49l1.5-32.07a5.71,5.71,0,0,1,4.93-5.41l105-13.92a6.27,6.27,0,0,1,.74,0,5.66,5.66,0,0,1,3.85,1.51,5.79,5.79,0,0,1,1.82,4.49l-1.49,32.07a5.74,5.74,0,0,1-1.08,3.1L103,248.19l49.53-6.57a6.27,6.27,0,0,1,.74-.05,5.62,5.62,0,0,1,3.84,1.52,5.75,5.75,0,0,1,1.83,4.49l-1.49,32.07a5.71,5.71,0,0,1-4.93,5.41L47.73,299A6,6,0,0,1,47,299Z"/><path class="cls-5" d="M213.85,278.94c-14,0-25-3.55-32.67-10.54-7-6.39-11.31-15.81-12.89-28a94.92,94.92,0,0,1-.51-17.13l1.73-41c.84-19.69,6.65-35.44,17.27-46.84s26-18.44,45.89-21.07a100.25,100.25,0,0,1,13.18-.93c26.93,0,42.92,13.51,46.25,39.07a87.52,87.52,0,0,1,.5,15.49l-1.74,41c-.81,20.32-6.46,36.39-16.79,47.75S248.13,275.24,227.64,278A105.26,105.26,0,0,1,213.85,278.94Zm19.23-121.42c-10.89,1.69-16,8.26-16.53,21.3L214.8,218.3a61.78,61.78,0,0,0,.52,9.54c.58,4.42,2.22,7.16,8.63,7.16h0a26.6,26.6,0,0,0,3.53-.25c5.28-.7,9.12-2.48,11.73-5.45,1.79-2.05,4-6.62,4.41-16.81l1.75-39.41a44.24,44.24,0,0,0-.3-6.38c-1-7.78-4.39-9.37-9.16-9.37A22,22,0,0,0,233.08,157.52Z"/><path class="cls-5" d="M307.06,264.52a5.65,5.65,0,0,1-3.84-1.51,5.71,5.71,0,0,1-1.83-4.48l6.45-147.94a5.74,5.74,0,0,1,4.94-5.44l37-4.9a6.27,6.27,0,0,1,.74,0,5.68,5.68,0,0,1,5.1,3.21l24.47,50.47,2.34-53.18a5.71,5.71,0,0,1,4.93-5.43l35.79-4.75a6,6,0,0,1,.74,0A5.61,5.61,0,0,1,427.7,92a5.75,5.75,0,0,1,1.84,4.47l-6.26,147.92a5.72,5.72,0,0,1-4.93,5.44l-36,4.77a4.68,4.68,0,0,1-.74,0,5.68,5.68,0,0,1-5.14-3.29L351,196.72l-2.3,57.52a5.71,5.71,0,0,1-4.93,5.46l-36,4.77A6.27,6.27,0,0,1,307.06,264.52Z"/><path class="cls-5" d="M445.64,246.14a5.69,5.69,0,0,1-3.84-1.5,5.81,5.81,0,0,1-1.83-4.48l6.46-147.95a5.71,5.71,0,0,1,4.93-5.43L487.15,82a6.13,6.13,0,0,1,.74,0,5.66,5.66,0,0,1,3.83,1.51A5.78,5.78,0,0,1,493.56,88l-2.41,54.82,2.92-.39L522.7,80a5.68,5.68,0,0,1,4.41-3.28l37.78-5a6.23,6.23,0,0,1,.74,0A5.65,5.65,0,0,1,570.2,74a5.79,5.79,0,0,1,.59,5.8l-35,76.61,28.59,66.66a5.76,5.76,0,0,1-.27,5.1,5.65,5.65,0,0,1-4.2,2.86l-37.78,5a6.13,6.13,0,0,1-.74,0,5.68,5.68,0,0,1-5.21-3.46l-20.1-47.07-6.74.9-2.24,49.46a5.7,5.7,0,0,1-4.93,5.42l-35.79,4.75A6.12,6.12,0,0,1,445.64,246.14Z"/><path class="cls-5" d="M587.26,230c-11.21,0-18.47-6.39-19.92-17.55-1.31-10,.09-18,4.16-23.63s11.13-9.31,20.78-10.59a37.32,37.32,0,0,1,4.82-.33c11.51,0,18.68,6.36,20.18,17.92,1.29,9.94-.18,17.82-4.36,23.43s-11.22,9.14-20.83,10.41A35.94,35.94,0,0,1,587.26,230Zm-7.19-55.14a5.63,5.63,0,0,1-3.75-1.43,5.74,5.74,0,0,1-1.92-4.33l.5-108.13a5.72,5.72,0,0,1,4.94-5.66l33.8-4.48a4.68,4.68,0,0,1,.74,0,5.65,5.65,0,0,1,3.9,1.56A5.75,5.75,0,0,1,620,56.9L612.18,166a5.72,5.72,0,0,1-4.92,5.27l-26.45,3.5A4.53,4.53,0,0,1,580.07,174.83Z"/><path class="cls-5" d="M645.72,222.22c-11.22,0-18.48-6.4-19.93-17.55-1.3-10,.1-18,4.16-23.63s11.13-9.3,20.78-10.59a37.44,37.44,0,0,1,4.82-.33c11.52,0,18.68,6.36,20.18,17.92,1.3,9.94-.17,17.82-4.36,23.43s-11.22,9.14-20.83,10.41A35.8,35.8,0,0,1,645.72,222.22Zm-7.23-55.14a5.63,5.63,0,0,1-3.76-1.43,5.74,5.74,0,0,1-1.92-4.33l.5-108.13a5.72,5.72,0,0,1,4.94-5.66L672.05,43a6.23,6.23,0,0,1,.74,0,5.65,5.65,0,0,1,3.9,1.56,5.79,5.79,0,0,1,1.77,4.59l-7.87,109.11a5.71,5.71,0,0,1-4.92,5.27L639.22,167A4.48,4.48,0,0,1,638.49,167.08Z"/><path class="cls-5" d="M704.17,214.47c-11.21,0-18.48-6.4-19.93-17.55-1.3-10,.1-18,4.17-23.63s11.13-9.31,20.78-10.59a37.32,37.32,0,0,1,4.82-.33c11.51,0,18.68,6.36,20.18,17.92,1.29,9.94-.18,17.82-4.36,23.43s-11.22,9.14-20.84,10.41A35.69,35.69,0,0,1,704.17,214.47Zm-7.27-55.14a5.65,5.65,0,0,1-3.76-1.43,5.75,5.75,0,0,1-1.92-4.33l.51-108.14a5.7,5.7,0,0,1,4.94-5.65l33.8-4.49a6,6,0,0,1,.74,0,5.63,5.63,0,0,1,3.89,1.56,5.79,5.79,0,0,1,1.77,4.59L729,150.51a5.71,5.71,0,0,1-4.92,5.27l-26.44,3.5A4.68,4.68,0,0,1,696.9,159.33Z"/><path class="cls-6" d="M46,298.29a5.69,5.69,0,0,1-3.85-1.52,5.75,5.75,0,0,1-1.83-4.49l1.5-32.06a5.71,5.71,0,0,1,1.95-4.06l58-80.42-50,6.62a6.27,6.27,0,0,1-.74,0,5.7,5.7,0,0,1-5.69-6l1.5-32.07a5.71,5.71,0,0,1,4.94-5.42L157,125a6,6,0,0,1,.74,0,5.69,5.69,0,0,1,3.85,1.52,5.75,5.75,0,0,1,1.83,4.49L161.87,163a5.74,5.74,0,0,1-1.08,3.1l-58.65,81.35,49.63-6.56a4.68,4.68,0,0,1,.74,0,5.68,5.68,0,0,1,3.86,1.51,5.75,5.75,0,0,1,1.83,4.49l-1.5,32.07a5.71,5.71,0,0,1-4.94,5.41l-105,13.9A6,6,0,0,1,46,298.29Z"/><path class="cls-6" d="M213.21,278.22c-14.05,0-25.06-3.55-32.73-10.54-7-6.39-11.33-15.8-12.92-28a95,95,0,0,1-.51-17.13l1.74-41c.84-19.68,6.66-35.44,17.3-46.83s26.07-18.45,46-21.08a100.69,100.69,0,0,1,13.21-.93c27,0,43,13.51,46.34,39.08a87.37,87.37,0,0,1,.5,15.48l-1.74,41c-.82,20.33-6.48,36.4-16.83,47.75s-26,18.48-46.52,21.19A105.7,105.7,0,0,1,213.21,278.22Zm19.27-121.41c-10.91,1.68-16,8.25-16.56,21.3l-1.75,39.47a62,62,0,0,0,.52,9.55c.58,4.42,2.22,7.16,8.65,7.16h0a27,27,0,0,0,3.54-.26c5.29-.7,9.13-2.48,11.74-5.45,1.8-2,4-6.62,4.43-16.81l1.75-39.4a44.31,44.31,0,0,0-.3-6.39c-1-7.78-4.4-9.37-9.18-9.37A22.41,22.41,0,0,0,232.48,156.81Z"/><path class="cls-6" d="M306.61,263.8a5.67,5.67,0,0,1-3.84-1.5,5.75,5.75,0,0,1-1.84-4.48l6.47-147.95a5.71,5.71,0,0,1,4.94-5.43l37.06-4.91a6.12,6.12,0,0,1,.74,0,5.68,5.68,0,0,1,5.11,3.21l24.52,50.46L382.11,100a5.71,5.71,0,0,1,4.94-5.43l35.86-4.74a4.68,4.68,0,0,1,.74,0,5.65,5.65,0,0,1,3.84,1.5,5.78,5.78,0,0,1,1.85,4.48l-6.28,147.92a5.71,5.71,0,0,1-4.94,5.44l-36.06,4.77a6.27,6.27,0,0,1-.74,0,5.7,5.7,0,0,1-5.15-3.3L350.66,196l-2.31,57.53a5.7,5.7,0,0,1-4.94,5.45l-36.06,4.77A4.6,4.6,0,0,1,306.61,263.8Z"/><path class="cls-6" d="M445.47,245.43a5.61,5.61,0,0,1-3.84-1.51,5.75,5.75,0,0,1-1.84-4.48l6.47-147.95a5.71,5.71,0,0,1,4.94-5.43l35.86-4.74a4.6,4.6,0,0,1,.74,0,5.7,5.7,0,0,1,5.68,6l-2.41,54.81,2.93-.38,28.69-62.4A5.65,5.65,0,0,1,527.11,76L565,71a4.6,4.6,0,0,1,.74-.05,5.67,5.67,0,0,1,4.58,2.33,5.81,5.81,0,0,1,.59,5.81L535.8,155.7l28.65,66.66a5.78,5.78,0,0,1-.27,5.11,5.72,5.72,0,0,1-4.21,2.86l-37.85,5a4.73,4.73,0,0,1-.75,0,5.69,5.69,0,0,1-5.22-3.46L496,184.86l-6.76.89L487,235.21a5.7,5.7,0,0,1-4.94,5.42l-35.86,4.75A6.13,6.13,0,0,1,445.47,245.43Z"/><path class="cls-6" d="M587.37,229.25c-11.23,0-18.51-6.39-20-17.54-1.31-10,.1-18,4.17-23.64s11.15-9.3,20.82-10.58a37.67,37.67,0,0,1,4.83-.34c11.54,0,18.72,6.37,20.22,17.93,1.3,9.93-.17,17.82-4.37,23.42s-11.24,9.14-20.87,10.42A37.62,37.62,0,0,1,587.37,229.25Zm-7.2-55.13a5.64,5.64,0,0,1-3.76-1.44,5.74,5.74,0,0,1-1.93-4.32L575,60.22a5.72,5.72,0,0,1,5-5.66l33.87-4.48a6.13,6.13,0,0,1,.74,0,5.65,5.65,0,0,1,3.9,1.56,5.73,5.73,0,0,1,1.77,4.59l-7.88,109.11a5.69,5.69,0,0,1-4.93,5.27l-26.5,3.51A6.13,6.13,0,0,1,580.17,174.12Z"/><path class="cls-6" d="M646,221.5c-11.24,0-18.52-6.39-20-17.54-1.31-10,.1-18,4.17-23.64S641.3,171,651,169.74a35.94,35.94,0,0,1,4.83-.34c11.54,0,18.72,6.37,20.22,17.93,1.3,9.93-.17,17.81-4.37,23.42s-11.24,9.14-20.87,10.42A37.59,37.59,0,0,1,646,221.5Zm-7.25-55.13a5.64,5.64,0,0,1-3.76-1.44A5.75,5.75,0,0,1,633,160.6l.51-108.13a5.72,5.72,0,0,1,5-5.66l33.87-4.48a6,6,0,0,1,.74,0,5.65,5.65,0,0,1,3.9,1.56,5.77,5.77,0,0,1,1.77,4.59l-7.88,109.11a5.7,5.7,0,0,1-4.93,5.27l-26.5,3.51A6.13,6.13,0,0,1,638.7,166.37Z"/><path class="cls-6" d="M704.52,213.75c-11.24,0-18.52-6.39-20-17.55-1.3-10,.1-18,4.17-23.63s11.15-9.3,20.83-10.58a35.83,35.83,0,0,1,4.83-.34c11.53,0,18.71,6.37,20.22,17.92,1.29,9.94-.18,17.82-4.37,23.43s-11.25,9.14-20.88,10.42A37.59,37.59,0,0,1,704.52,213.75Zm-7.29-55.13a5.64,5.64,0,0,1-3.76-1.44,5.75,5.75,0,0,1-1.93-4.33l.51-108.13a5.72,5.72,0,0,1,5-5.66l33.87-4.48a4.53,4.53,0,0,1,.74,0,5.65,5.65,0,0,1,3.9,1.56,5.77,5.77,0,0,1,1.77,4.59L729.4,149.79a5.72,5.72,0,0,1-4.93,5.27L698,158.57A6.13,6.13,0,0,1,697.23,158.62Z"/><path class="cls-7" d="M45.05,297.57a5.68,5.68,0,0,1-3.86-1.51,5.76,5.76,0,0,1-1.83-4.49l1.5-32.07a5.71,5.71,0,0,1,2-4.06L100.91,175l-50.13,6.62a4.73,4.73,0,0,1-.75.05,5.64,5.64,0,0,1-3.85-1.51,5.74,5.74,0,0,1-1.84-4.49l1.5-32.07a5.74,5.74,0,0,1,4.95-5.42L156.2,124.28a6,6,0,0,1,.74,0,5.68,5.68,0,0,1,3.86,1.51,5.75,5.75,0,0,1,1.83,4.49l-1.5,32.07a5.8,5.8,0,0,1-1.08,3.1l-58.77,81.35L151,240.19a6.3,6.3,0,0,1,.75-.05,5.64,5.64,0,0,1,3.85,1.51,5.74,5.74,0,0,1,1.84,4.49L156,278.21a5.72,5.72,0,0,1-4.95,5.42L45.79,297.52A6,6,0,0,1,45.05,297.57Z"/><path class="cls-7" d="M212.58,277.5c-14.08,0-25.12-3.54-32.8-10.54-7-6.39-11.36-15.8-12.94-28a94,94,0,0,1-.52-17.13l1.74-41c.85-19.68,6.68-35.44,17.34-46.83s26.12-18.44,46.07-21.08A102.66,102.66,0,0,1,244.7,112c27,0,43.1,13.51,46.44,39.07a87.45,87.45,0,0,1,.5,15.49l-1.74,41c-.82,20.32-6.49,36.39-16.86,47.74s-26.05,18.48-46.62,21.2A107.79,107.79,0,0,1,212.58,277.5Zm19.3-121.41c-10.93,1.68-16,8.26-16.59,21.3l-1.75,39.48a60.62,60.62,0,0,0,.52,9.54c.57,4.42,2.22,7.16,8.66,7.16h0a28.84,28.84,0,0,0,3.55-.25c5.3-.7,9.15-2.49,11.76-5.46,1.81-2,4-6.61,4.44-16.8l1.75-39.41a43.1,43.1,0,0,0-.29-6.39c-1-7.77-4.42-9.37-9.2-9.37A22.56,22.56,0,0,0,231.88,156.09Z"/><path class="cls-7" d="M306.16,263.09a5.72,5.72,0,0,1-5.69-6l6.48-148a5.71,5.71,0,0,1,4.95-5.43L349,98.82a4.73,4.73,0,0,1,.75,0,5.69,5.69,0,0,1,5.11,3.21l24.58,50.46,2.34-53.17a5.73,5.73,0,0,1,4.95-5.44l35.94-4.74a6,6,0,0,1,.74,0,5.68,5.68,0,0,1,3.85,1.51A5.75,5.75,0,0,1,429.13,95l-6.28,147.92a5.72,5.72,0,0,1-5,5.44l-36.14,4.77a6.27,6.27,0,0,1-.74,0,5.69,5.69,0,0,1-5.16-3.29L350.3,195.28,348,252.81a5.74,5.74,0,0,1-5,5.46L306.9,263A6.13,6.13,0,0,1,306.16,263.09Z"/><path class="cls-7" d="M445.3,244.71a5.64,5.64,0,0,1-3.85-1.51,5.73,5.73,0,0,1-1.85-4.48l6.49-147.94a5.71,5.71,0,0,1,5-5.43L487,80.6a6.27,6.27,0,0,1,.74,0,5.68,5.68,0,0,1,3.86,1.51,5.78,5.78,0,0,1,1.84,4.48L491,141.36l2.93-.39,28.75-62.4a5.71,5.71,0,0,1,4.43-3.27l37.93-5a6.13,6.13,0,0,1,.74-.05,5.69,5.69,0,0,1,4.59,2.34,5.79,5.79,0,0,1,.59,5.8L535.81,155l28.71,66.65a5.75,5.75,0,0,1-4.49,8l-37.93,5a6.3,6.3,0,0,1-.75,0,5.71,5.71,0,0,1-5.23-3.47l-20.18-47.06-6.77.89-2.25,49.46a5.72,5.72,0,0,1-4.95,5.43L446,244.66A6.27,6.27,0,0,1,445.3,244.71Z"/><path class="cls-7" d="M587.49,228.54c-11.26,0-18.55-6.4-20-17.55-1.31-10,.1-18,4.18-23.63s11.18-9.31,20.87-10.59a37.5,37.5,0,0,1,4.84-.33c11.55,0,18.75,6.36,20.26,17.92,1.29,9.94-.18,17.82-4.38,23.43S602,226.93,592.33,228.2A37.82,37.82,0,0,1,587.49,228.54Zm-7.22-55.14A5.68,5.68,0,0,1,576.5,172a5.78,5.78,0,0,1-1.93-4.33l.51-108.14a5.72,5.72,0,0,1,5-5.66L614,49.36a6.3,6.3,0,0,1,.75,0,5.72,5.72,0,0,1,5.68,6.15l-7.89,109.12a5.74,5.74,0,0,1-5,5.27L581,173.35A6.13,6.13,0,0,1,580.27,173.4Z"/><path class="cls-7" d="M646.18,220.79c-11.26,0-18.55-6.4-20-17.55-1.31-10,.1-18,4.18-23.63s11.17-9.31,20.86-10.59a37.82,37.82,0,0,1,4.84-.34c11.56,0,18.76,6.37,20.27,17.93,1.29,9.94-.18,17.82-4.38,23.42s-11.27,9.15-20.92,10.42A37.82,37.82,0,0,1,646.18,220.79Zm-7.26-55.14a5.66,5.66,0,0,1-3.77-1.43,5.74,5.74,0,0,1-1.93-4.33l.51-108.14a5.72,5.72,0,0,1,4.95-5.66l33.94-4.48a6.27,6.27,0,0,1,.74,0,5.67,5.67,0,0,1,3.91,1.57,5.74,5.74,0,0,1,1.78,4.58l-7.9,109.12a5.71,5.71,0,0,1-4.94,5.26l-26.55,3.51A6.27,6.27,0,0,1,638.92,165.65Z"/><path class="cls-7" d="M704.86,213c-11.25,0-18.55-6.4-20-17.55-1.31-10,.1-18,4.18-23.64s11.17-9.3,20.86-10.58a37.82,37.82,0,0,1,4.84-.34c11.56,0,18.76,6.37,20.26,17.93,1.3,9.94-.17,17.82-4.38,23.42s-11.26,9.14-20.91,10.42A37.84,37.84,0,0,1,704.86,213Zm-7.3-55.14a5.73,5.73,0,0,1-3.77-1.43,5.81,5.81,0,0,1-1.93-4.33L692.37,44a5.73,5.73,0,0,1,5-5.66l33.94-4.48a6,6,0,0,1,.74,0A5.72,5.72,0,0,1,737.69,40L729.8,149.07a5.71,5.71,0,0,1-4.95,5.27l-26.55,3.51A6,6,0,0,1,697.56,157.9Z"/><path class="cls-8" d="M44.08,296.85a5.69,5.69,0,0,1-3.87-1.51,5.76,5.76,0,0,1-1.84-4.49l1.51-32.07a5.7,5.7,0,0,1,2-4.06l58.21-80.41-50.24,6.62a6.13,6.13,0,0,1-.74,0,5.72,5.72,0,0,1-3.87-1.52A5.79,5.79,0,0,1,43.36,175l1.51-32.07a5.72,5.72,0,0,1,5-5.41l105.61-13.92a6.3,6.3,0,0,1,.75,0,5.72,5.72,0,0,1,5.7,6l-1.5,32.07a5.67,5.67,0,0,1-1.09,3.1L100.42,246l49.83-6.57a6.3,6.3,0,0,1,.75-.05,5.74,5.74,0,0,1,5.7,6l-1.5,32.07a5.72,5.72,0,0,1-5,5.41L44.82,296.81A6.23,6.23,0,0,1,44.08,296.85Z"/><path class="cls-8" d="M211.94,276.79c-14.11,0-25.17-3.55-32.87-10.54-7-6.39-11.37-15.81-13-28a94,94,0,0,1-.52-17.13l1.75-41c.84-19.69,6.69-35.44,17.37-46.84s26.17-18.44,46.16-21.07a101.42,101.42,0,0,1,13.26-.93c27.09,0,43.18,13.51,46.53,39.07a85.66,85.66,0,0,1,.5,15.49l-1.74,41c-.82,20.32-6.51,36.39-16.9,47.75s-26.1,18.47-46.71,21.19A106.55,106.55,0,0,1,211.94,276.79Zm19.34-121.42c-10.95,1.69-16.08,8.26-16.62,21.3l-1.76,39.48a61.78,61.78,0,0,0,.52,9.54c.58,4.42,2.23,7.16,8.68,7.16h0a27.15,27.15,0,0,0,3.56-.25c5.31-.7,9.16-2.48,11.79-5.45,1.81-2.05,4-6.62,4.44-16.81l1.76-39.41a44.24,44.24,0,0,0-.3-6.38c-1-7.78-4.42-9.37-9.22-9.37A22.46,22.46,0,0,0,231.28,155.37Z"/><path class="cls-8" d="M305.71,262.37a5.68,5.68,0,0,1-3.86-1.51,5.76,5.76,0,0,1-1.85-4.48l6.5-147.94a5.73,5.73,0,0,1,5-5.44l37.21-4.9a6.27,6.27,0,0,1,.74,0,5.72,5.72,0,0,1,5.13,3.21l24.62,50.47,2.35-53.18a5.72,5.72,0,0,1,5-5.43l36-4.75a6.13,6.13,0,0,1,.74-.05,5.68,5.68,0,0,1,3.86,1.51,5.76,5.76,0,0,1,1.85,4.47l-6.3,147.92a5.72,5.72,0,0,1-5,5.44l-36.21,4.77a4.68,4.68,0,0,1-.74,0,5.71,5.71,0,0,1-5.17-3.29l-25.61-54.62-2.32,57.52a5.73,5.73,0,0,1-5,5.46l-36.21,4.77A6,6,0,0,1,305.71,262.37Z"/><path class="cls-8" d="M445.13,244a5.72,5.72,0,0,1-5.71-6l6.5-147.95a5.71,5.71,0,0,1,5-5.43l36-4.75a6.3,6.3,0,0,1,.75,0,5.72,5.72,0,0,1,5.7,6l-2.42,54.82,2.94-.39,28.8-62.39a5.71,5.71,0,0,1,4.44-3.28l38-5a6,6,0,0,1,.74,0A5.73,5.73,0,0,1,571,77.66l-35.21,76.61,28.76,66.66a5.76,5.76,0,0,1-.27,5.1,5.69,5.69,0,0,1-4.23,2.86l-38,5a6.3,6.3,0,0,1-.75,0,5.71,5.71,0,0,1-5.24-3.46l-20.22-47.07-6.78.9-2.25,49.46a5.73,5.73,0,0,1-5,5.42l-36,4.75A6.23,6.23,0,0,1,445.13,244Z"/><path class="cls-8" d="M587.6,227.82c-11.28,0-18.59-6.4-20-17.55-1.32-10,.09-18,4.18-23.63s11.2-9.31,20.91-10.59a37.77,37.77,0,0,1,4.85-.33c11.58,0,18.79,6.36,20.3,17.92,1.3,9.94-.18,17.82-4.39,23.43s-11.29,9.14-21,10.41A36.12,36.12,0,0,1,587.6,227.82Zm-7.23-55.14a5.71,5.71,0,0,1-5.71-5.76l.51-108.13a5.72,5.72,0,0,1,5-5.66l34-4.48a4.68,4.68,0,0,1,.74,0,5.68,5.68,0,0,1,3.92,1.56,5.76,5.76,0,0,1,1.78,4.59l-7.91,109.11a5.74,5.74,0,0,1-4.95,5.27l-26.61,3.5A4.6,4.6,0,0,1,580.37,172.68Z"/><path class="cls-8" d="M646.41,220.07c-11.28,0-18.59-6.4-20-17.55-1.31-10,.1-18,4.19-23.63s11.19-9.31,20.9-10.59a38,38,0,0,1,4.85-.33c11.58,0,18.79,6.36,20.31,17.92,1.3,9.94-.18,17.82-4.39,23.43s-11.29,9.14-21,10.41A36.23,36.23,0,0,1,646.41,220.07Zm-7.28-55.14a5.73,5.73,0,0,1-5.71-5.76L633.93,51a5.72,5.72,0,0,1,5-5.66l34-4.49a6.28,6.28,0,0,1,.75,0A5.71,5.71,0,0,1,679.34,47l-7.91,109.11a5.72,5.72,0,0,1-4.95,5.27l-26.6,3.5A4.73,4.73,0,0,1,639.13,164.93Z"/><path class="cls-8" d="M705.21,212.32c-11.28,0-18.58-6.4-20-17.55-1.31-10,.1-18,4.19-23.63s11.19-9.31,20.9-10.59a37.89,37.89,0,0,1,4.85-.33c11.58,0,18.79,6.36,20.3,17.92,1.3,9.94-.17,17.82-4.39,23.43s-11.28,9.14-20.95,10.41A36.37,36.37,0,0,1,705.21,212.32Zm-7.31-55.14a5.71,5.71,0,0,1-5.71-5.76l.51-108.14a5.71,5.71,0,0,1,5-5.65l34-4.49a6.12,6.12,0,0,1,.74,0,5.68,5.68,0,0,1,3.92,1.56,5.76,5.76,0,0,1,1.78,4.59L730.2,148.36a5.74,5.74,0,0,1-5,5.27l-26.6,3.5A6.27,6.27,0,0,1,697.9,157.18Z"/><path class="cls-9" d="M43.1,296.14a5.75,5.75,0,0,1-5.72-6l1.51-32.06a5.72,5.72,0,0,1,2-4.06l58.32-80.42-50.33,6.62a6.3,6.3,0,0,1-.75,0,5.72,5.72,0,0,1-5.71-6l1.51-32.06a5.72,5.72,0,0,1,5-5.42l105.82-13.92a6.3,6.3,0,0,1,.75,0,5.74,5.74,0,0,1,5.71,6l-1.5,32.06a5.75,5.75,0,0,1-1.09,3.1l-59,81.35,49.93-6.57a6.23,6.23,0,0,1,.74,0,5.72,5.72,0,0,1,5.72,6l-1.51,32.07a5.72,5.72,0,0,1-5,5.41L43.85,296.09A6.3,6.3,0,0,1,43.1,296.14Z"/><path class="cls-9" d="M211.3,276.07c-14.14,0-25.22-3.55-32.93-10.54-7-6.39-11.4-15.8-13-28a95,95,0,0,1-.51-17.13l1.75-41c.84-19.68,6.7-35.44,17.4-46.83s26.23-18.45,46.26-21.08a101.84,101.84,0,0,1,13.28-.93c27.15,0,43.28,13.51,46.63,39.08a86.43,86.43,0,0,1,.5,15.48l-1.75,41c-.82,20.33-6.52,36.4-16.93,47.75s-26.15,18.48-46.8,21.19A107,107,0,0,1,211.3,276.07Zm19.38-121.41c-11,1.68-16.11,8.25-16.66,21.3l-1.76,39.47a60.79,60.79,0,0,0,.53,9.55c.57,4.42,2.23,7.15,8.69,7.15h0a27,27,0,0,0,3.55-.25c5.32-.7,9.19-2.48,11.82-5.45,1.81-2,4-6.62,4.45-16.81l1.76-39.41a44.24,44.24,0,0,0-.3-6.38c-1-7.78-4.42-9.37-9.23-9.37A22.58,22.58,0,0,0,230.68,154.66Z"/><path class="cls-9" d="M305.26,261.65a5.72,5.72,0,0,1-5.72-6l6.51-147.95a5.72,5.72,0,0,1,5-5.43l37.28-4.91a6.3,6.3,0,0,1,.75,0,5.72,5.72,0,0,1,5.14,3.22L378.86,151l2.35-53.18a5.72,5.72,0,0,1,5-5.43l36.08-4.74a4.73,4.73,0,0,1,.75,0,5.72,5.72,0,0,1,5.71,6L422.41,241.5a5.73,5.73,0,0,1-5,5.45l-36.28,4.77a6.27,6.27,0,0,1-.74.05,5.72,5.72,0,0,1-5.18-3.3l-25.67-54.62-2.32,57.53a5.72,5.72,0,0,1-5,5.45L306,261.6A4.6,4.6,0,0,1,305.26,261.65Z"/><path class="cls-9" d="M445,243.28a5.73,5.73,0,0,1-5.71-6l6.51-147.95a5.72,5.72,0,0,1,5-5.43l36.08-4.74a4.53,4.53,0,0,1,.74,0,5.73,5.73,0,0,1,5.72,6l-2.43,54.81,2.94-.38,28.87-62.4a5.7,5.7,0,0,1,4.44-3.27l38.08-5a4.73,4.73,0,0,1,.75,0,5.73,5.73,0,0,1,5.2,8.14l-35.28,76.6,28.82,66.66a5.72,5.72,0,0,1-4.51,8l-38.08,5a4.73,4.73,0,0,1-.75,0,5.74,5.74,0,0,1-5.25-3.46L495.8,182.71l-6.8.89-2.25,49.46a5.72,5.72,0,0,1-5,5.42l-36.08,4.75A6.3,6.3,0,0,1,445,243.28Z"/><path class="cls-9" d="M587.71,227.1c-11.3,0-18.62-6.39-20.08-17.54-1.31-10,.1-18,4.2-23.64s11.21-9.3,20.94-10.58a38.12,38.12,0,0,1,4.86-.34c11.61,0,18.83,6.37,20.34,17.93,1.31,9.93-.17,17.82-4.39,23.42s-11.31,9.14-21,10.42A38.19,38.19,0,0,1,587.71,227.1ZM580.47,172a5.74,5.74,0,0,1-5.73-5.76l.52-108.14a5.72,5.72,0,0,1,5-5.66l34.08-4.48a6.13,6.13,0,0,1,.74,0A5.72,5.72,0,0,1,620.76,54l-7.93,109.11a5.71,5.71,0,0,1-5,5.27l-26.66,3.51A6.27,6.27,0,0,1,580.47,172Z"/><path class="cls-9" d="M646.64,219.35c-11.31,0-18.63-6.39-20.09-17.54-1.31-10,.1-18,4.2-23.64s11.22-9.3,21-10.58a36.15,36.15,0,0,1,4.86-.34c11.6,0,18.82,6.37,20.34,17.92,1.3,9.94-.18,17.82-4.4,23.43s-11.31,9.14-21,10.42A38,38,0,0,1,646.64,219.35Zm-7.29-55.13a5.73,5.73,0,0,1-5.72-5.77l.51-108.13a5.73,5.73,0,0,1,5-5.66l34.07-4.48a4.68,4.68,0,0,1,.74,0,5.72,5.72,0,0,1,5.71,6.15l-7.93,109.11a5.71,5.71,0,0,1-5,5.27l-26.66,3.51A6,6,0,0,1,639.35,164.22Z"/><path class="cls-9" d="M705.56,211.6c-11.3,0-18.62-6.39-20.08-17.55-1.32-10,.1-18,4.19-23.63s11.22-9.3,21-10.58a36.37,36.37,0,0,1,4.86-.34c11.6,0,18.83,6.37,20.34,17.92,1.3,9.94-.18,17.82-4.39,23.43s-11.31,9.14-21,10.42A38.19,38.19,0,0,1,705.56,211.6Zm-7.33-55.14a5.73,5.73,0,0,1-5.72-5.76L693,42.57a5.73,5.73,0,0,1,5-5.66l34.07-4.48a4.73,4.73,0,0,1,.75,0,5.72,5.72,0,0,1,5.7,6.15L730.6,147.64a5.73,5.73,0,0,1-5,5.27L699,156.42A6.28,6.28,0,0,1,698.23,156.46Z"/><path class="cls-10" d="M42.12,295.42a5.72,5.72,0,0,1-5.72-6l1.51-32.07a5.69,5.69,0,0,1,2-4.06l58.45-80.42-50.44,6.62a4.68,4.68,0,0,1-.74,0,5.72,5.72,0,0,1-5.73-6l1.51-32.07a5.75,5.75,0,0,1,5-5.42l106-13.92a6.27,6.27,0,0,1,.74,0,5.74,5.74,0,0,1,5.73,6l-1.51,32.07a5.73,5.73,0,0,1-1.09,3.1L98.69,244.61l50-6.57a6.3,6.3,0,0,1,.75,0,5.73,5.73,0,0,1,5.73,6l-1.51,32.07a5.74,5.74,0,0,1-5,5.42L42.87,295.37A6.3,6.3,0,0,1,42.12,295.42Z"/><path class="cls-10" d="M210.66,275.35c-14.17,0-25.27-3.54-33-10.54-7-6.39-11.42-15.8-13-28a94,94,0,0,1-.52-17.13l1.76-41c.85-19.68,6.71-35.44,17.44-46.83s26.28-18.44,46.35-21.08a104.07,104.07,0,0,1,13.31-.93c27.2,0,43.36,13.52,46.71,39.08a86.47,86.47,0,0,1,.51,15.49l-1.75,41c-.83,20.32-6.53,36.39-17,47.74s-26.2,18.48-46.89,21.2A109.14,109.14,0,0,1,210.66,275.35Zm19.42-121.41c-11,1.68-16.15,8.26-16.69,21.3l-1.77,39.47a60.73,60.73,0,0,0,.53,9.55c.58,4.42,2.24,7.16,8.71,7.16h0a27.4,27.4,0,0,0,3.57-.26c5.33-.69,9.2-2.48,11.84-5.45,1.82-2,4.06-6.61,4.46-16.8l1.77-39.41a44.38,44.38,0,0,0-.3-6.39c-1-7.77-4.44-9.37-9.26-9.37A22.71,22.71,0,0,0,230.08,153.94Z"/><path class="cls-10" d="M304.81,260.94a5.73,5.73,0,0,1-5.73-6L305.6,107a5.72,5.72,0,0,1,5-5.43l37.36-4.9a4.68,4.68,0,0,1,.74,0,5.74,5.74,0,0,1,5.15,3.21l24.72,50.46,2.36-53.17a5.75,5.75,0,0,1,5-5.44L422,86.94a6.3,6.3,0,0,1,.75,0,5.75,5.75,0,0,1,5.73,6L422.2,240.79a5.73,5.73,0,0,1-5,5.44L380.86,251a6.3,6.3,0,0,1-.75.05,5.72,5.72,0,0,1-5.18-3.29l-25.72-54.63-2.32,57.53a5.75,5.75,0,0,1-5,5.46l-36.35,4.77A6.27,6.27,0,0,1,304.81,260.94Z"/><path class="cls-10" d="M444.78,242.56a5.75,5.75,0,0,1-5.73-6l6.53-147.94a5.74,5.74,0,0,1,5-5.44l36.15-4.74a6.27,6.27,0,0,1,.74,0,5.73,5.73,0,0,1,5.73,6l-2.43,54.82,2.95-.39,28.92-62.4a5.74,5.74,0,0,1,4.45-3.27l38.16-5a6.3,6.3,0,0,1,.75,0,5.74,5.74,0,0,1,5.21,8.14l-35.35,76.61,28.88,66.65a5.75,5.75,0,0,1-4.52,8l-38.16,5a6.3,6.3,0,0,1-.75.05,5.75,5.75,0,0,1-5.26-3.47L495.73,182l-6.81.89-2.26,49.46a5.75,5.75,0,0,1-5,5.43l-36.15,4.74A6.3,6.3,0,0,1,444.78,242.56Z"/><path class="cls-10" d="M587.83,226.39c-11.33,0-18.66-6.4-20.13-17.55-1.31-10,.1-18,4.21-23.63s11.24-9.31,21-10.59a38,38,0,0,1,4.87-.33c11.62,0,18.86,6.36,20.38,17.92,1.3,9.94-.18,17.82-4.41,23.42s-11.33,9.15-21,10.42A38.27,38.27,0,0,1,587.83,226.39Zm-7.26-55.14a5.73,5.73,0,0,1-5.74-5.76l.51-108.14a5.75,5.75,0,0,1,5-5.66l34.14-4.48a6.3,6.3,0,0,1,.75-.05,5.74,5.74,0,0,1,5.72,6.15L613,162.43a5.75,5.75,0,0,1-5,5.27l-26.71,3.5A6.27,6.27,0,0,1,580.57,171.25Z"/><path class="cls-10" d="M646.87,218.64c-11.33,0-18.66-6.4-20.13-17.55-1.31-10,.1-18,4.21-23.63s11.24-9.31,21-10.59a38.15,38.15,0,0,1,4.87-.34c11.62,0,18.86,6.37,20.38,17.93,1.31,9.94-.18,17.82-4.4,23.42s-11.34,9.15-21,10.42A38.27,38.27,0,0,1,646.87,218.64Zm-7.3-55.14a5.73,5.73,0,0,1-5.74-5.76l.51-108.14a5.75,5.75,0,0,1,5-5.66l34.14-4.48a6.3,6.3,0,0,1,.75-.05,5.74,5.74,0,0,1,5.72,6.15L672,154.67a5.73,5.73,0,0,1-5,5.27l-26.71,3.51A6.27,6.27,0,0,1,639.57,163.5Z"/><path class="cls-10" d="M705.91,210.89c-11.32,0-18.66-6.4-20.12-17.55-1.32-10,.09-18,4.2-23.64s11.24-9.3,21-10.58a38.27,38.27,0,0,1,4.87-.34c11.63,0,18.86,6.37,20.38,17.93,1.31,9.94-.18,17.82-4.4,23.42s-11.34,9.14-21,10.42A38.42,38.42,0,0,1,705.91,210.89Zm-7.34-55.14a5.73,5.73,0,0,1-5.74-5.76l.51-108.14a5.75,5.75,0,0,1,5-5.66l34.14-4.48a6.3,6.3,0,0,1,.75-.05,5.74,5.74,0,0,1,5.72,6.15L731,146.92a5.73,5.73,0,0,1-5,5.27l-26.71,3.51A6.27,6.27,0,0,1,698.57,155.75Z"/><path class="cls-11" d="M42.12,295.42a5.72,5.72,0,0,1-5.72-6l1.51-32.07a5.69,5.69,0,0,1,2-4.06l58.45-80.42-50.44,6.62a4.68,4.68,0,0,1-.74,0,5.72,5.72,0,0,1-5.73-6l1.51-32.07a5.75,5.75,0,0,1,5-5.42l106-13.92a6.27,6.27,0,0,1,.74,0,5.74,5.74,0,0,1,5.73,6l-1.51,32.07a5.73,5.73,0,0,1-1.09,3.1L98.69,244.61l50-6.57a6.3,6.3,0,0,1,.75,0,5.73,5.73,0,0,1,5.73,6l-1.51,32.07a5.74,5.74,0,0,1-5,5.42L42.87,295.37A6.3,6.3,0,0,1,42.12,295.42Z"/><path class="cls-11" d="M210.66,275.35c-14.17,0-25.27-3.54-33-10.54-7-6.39-11.42-15.8-13-28a94,94,0,0,1-.52-17.13l1.76-41c.85-19.68,6.71-35.44,17.44-46.83s26.28-18.44,46.35-21.08a104.07,104.07,0,0,1,13.31-.93c27.2,0,43.36,13.52,46.71,39.08a86.47,86.47,0,0,1,.51,15.49l-1.75,41c-.83,20.32-6.53,36.39-17,47.74s-26.2,18.48-46.89,21.2A109.14,109.14,0,0,1,210.66,275.35Zm19.42-121.41c-11,1.68-16.15,8.26-16.69,21.3l-1.77,39.47a60.73,60.73,0,0,0,.53,9.55c.58,4.42,2.24,7.16,8.71,7.16h0a27.4,27.4,0,0,0,3.57-.26c5.33-.69,9.2-2.48,11.84-5.45,1.82-2,4.06-6.61,4.46-16.8l1.77-39.41a44.38,44.38,0,0,0-.3-6.39c-1-7.77-4.44-9.37-9.26-9.37A22.71,22.71,0,0,0,230.08,153.94Z"/><path class="cls-11" d="M304.81,260.94a5.73,5.73,0,0,1-5.73-6L305.6,107a5.72,5.72,0,0,1,5-5.43l37.36-4.9a4.68,4.68,0,0,1,.74,0,5.74,5.74,0,0,1,5.15,3.21l24.72,50.46,2.36-53.17a5.75,5.75,0,0,1,5-5.44L422,86.94a6.3,6.3,0,0,1,.75,0,5.75,5.75,0,0,1,5.73,6L422.2,240.79a5.73,5.73,0,0,1-5,5.44L380.86,251a6.3,6.3,0,0,1-.75.05,5.72,5.72,0,0,1-5.18-3.29l-25.72-54.63-2.32,57.53a5.75,5.75,0,0,1-5,5.46l-36.35,4.77A6.27,6.27,0,0,1,304.81,260.94Z"/><path class="cls-11" d="M444.78,242.56a5.75,5.75,0,0,1-5.73-6l6.53-147.94a5.74,5.74,0,0,1,5-5.44l36.15-4.74a6.27,6.27,0,0,1,.74,0,5.73,5.73,0,0,1,5.73,6l-2.43,54.82,2.95-.39,28.92-62.4a5.74,5.74,0,0,1,4.45-3.27l38.16-5a6.3,6.3,0,0,1,.75,0,5.74,5.74,0,0,1,5.21,8.14l-35.35,76.61,28.88,66.65a5.75,5.75,0,0,1-4.52,8l-38.16,5a6.3,6.3,0,0,1-.75.05,5.75,5.75,0,0,1-5.26-3.47L495.73,182l-6.81.89-2.26,49.46a5.75,5.75,0,0,1-5,5.43l-36.15,4.74A6.3,6.3,0,0,1,444.78,242.56Z"/><path class="cls-11" d="M587.83,226.39c-11.33,0-18.66-6.4-20.13-17.55-1.31-10,.1-18,4.21-23.63s11.24-9.31,21-10.59a38,38,0,0,1,4.87-.33c11.62,0,18.86,6.36,20.38,17.92,1.3,9.94-.18,17.82-4.41,23.42s-11.33,9.15-21,10.42A38.27,38.27,0,0,1,587.83,226.39Zm-7.26-55.14a5.73,5.73,0,0,1-5.74-5.76l.51-108.14a5.75,5.75,0,0,1,5-5.66l34.14-4.48a6.3,6.3,0,0,1,.75-.05,5.74,5.74,0,0,1,5.72,6.15L613,162.43a5.75,5.75,0,0,1-5,5.27l-26.71,3.5A6.27,6.27,0,0,1,580.57,171.25Z"/><path class="cls-11" d="M646.87,218.64c-11.33,0-18.66-6.4-20.13-17.55-1.31-10,.1-18,4.21-23.63s11.24-9.31,21-10.59a38.15,38.15,0,0,1,4.87-.34c11.62,0,18.86,6.37,20.38,17.93,1.31,9.94-.18,17.82-4.4,23.42s-11.34,9.15-21,10.42A38.27,38.27,0,0,1,646.87,218.64Zm-7.3-55.14a5.73,5.73,0,0,1-5.74-5.76l.51-108.14a5.75,5.75,0,0,1,5-5.66l34.14-4.48a6.3,6.3,0,0,1,.75-.05,5.74,5.74,0,0,1,5.72,6.15L672,154.67a5.73,5.73,0,0,1-5,5.27l-26.71,3.51A6.27,6.27,0,0,1,639.57,163.5Z"/><path class="cls-11" d="M705.91,210.89c-11.32,0-18.66-6.4-20.12-17.55-1.32-10,.09-18,4.2-23.64s11.24-9.3,21-10.58a38.27,38.27,0,0,1,4.87-.34c11.63,0,18.86,6.37,20.38,17.93,1.31,9.94-.18,17.82-4.4,23.42s-11.34,9.14-21,10.42A38.42,38.42,0,0,1,705.91,210.89Zm-7.34-55.14a5.73,5.73,0,0,1-5.74-5.76l.51-108.14a5.75,5.75,0,0,1,5-5.66l34.14-4.48a6.3,6.3,0,0,1,.75-.05,5.74,5.74,0,0,1,5.72,6.15L731,146.92a5.73,5.73,0,0,1-5,5.27l-26.71,3.51A6.27,6.27,0,0,1,698.57,155.75Z"/><path class="cls-12" d="M149.39,274.36,43.56,288.25l1.51-32.07.2,0,67-92.14-63.66,8.35,1.51-32.06,106-13.92-1.51,32.06-67,92.14,63.26-8.3Z"/><path class="cls-12" d="M231.85,115q48.39-6.35,53.59,33.21a80.56,80.56,0,0,1,.47,14.45l-1.76,41.09q-1.15,28.55-15.46,44.11t-43.42,19.39q-29.11,3.83-42.33-8.13-9-8.2-11.18-24.48a88.74,88.74,0,0,1-.48-16.08L173,177.48Q175.41,122.43,231.85,115Zm-5.24,120.41q10-1.32,15.38-7.33t5.91-20.39l1.76-39.46a50,50,0,0,0-.34-7.31q-2.15-16.26-18.61-14.1-20.62,3.12-21.62,26.74L207.33,213a65.5,65.5,0,0,0,.57,10.55Q209.75,237.64,226.61,235.42Z"/><path class="cls-12" d="M424.22,91.19,417.9,239.11l-36.35,4.77-35.69-75.8L342.59,249l-36.35,4.77,6.52-148,37.36-4.9,34.6,70.63,3.35-75.61Z"/><path class="cls-12" d="M567.41,72.39,531,151.33l29.9,69-38.16,5-22-51-15.87,2.08-2.48,54.26-36.14,4.74,6.52-147.94,36.15-4.75-2.74,61.65L499,142.66,529.25,77.4Z"/><path class="cls-12" d="M574.82,206.66q-1.68-12.85,3.16-19.52t17.1-8.27q16.86-2.2,18.82,12.65,1.65,12.66-3.3,19.23t-17.21,8.18Q576.71,221.12,574.82,206.66Zm33.89-46.08L582,164.08,582.51,56l34.14-4.49Z"/><path class="cls-12" d="M633.86,198.91q-1.68-12.85,3.16-19.52t17.1-8.27q16.86-2.2,18.82,12.65,1.66,12.64-3.3,19.23t-17.21,8.18Q635.77,213.37,633.86,198.91Zm33.85-46.08L641,156.33l.51-108.13,34.14-4.49Z"/><path class="cls-12" d="M692.91,191.16q-1.7-12.85,3.15-19.52t17.1-8.27Q730,161.17,732,176q1.66,12.64-3.3,19.23t-17.21,8.18Q694.81,205.62,692.91,191.16Zm33.8-46.09L700,148.58l.51-108.14L734.65,36Z"/><g class="cls-13"><path class="cls-14" d="M149.39,274.36,43.56,288.25l1.51-32.07.2,0,67-92.14-63.66,8.35,1.51-32.06,106-13.92-1.51,32.06-67,92.14,63.26-8.3Z"/><path class="cls-14" d="M231.85,115q48.39-6.35,53.59,33.21a80.56,80.56,0,0,1,.47,14.45l-1.76,41.09q-1.15,28.55-15.46,44.11t-43.42,19.39q-29.11,3.83-42.33-8.13-9-8.2-11.18-24.48a88.74,88.74,0,0,1-.48-16.08L173,177.48Q175.41,122.43,231.85,115Zm-5.24,120.41q10-1.32,15.38-7.33t5.91-20.39l1.76-39.46a50,50,0,0,0-.34-7.31q-2.15-16.26-18.61-14.1-20.62,3.12-21.62,26.74L207.33,213a65.5,65.5,0,0,0,.57,10.55Q209.75,237.64,226.61,235.42Z"/><path class="cls-14" d="M424.22,91.19,417.9,239.11l-36.35,4.77-35.69-75.8L342.59,249l-36.35,4.77,6.52-148,37.36-4.9,34.6,70.63,3.35-75.61Z"/><path class="cls-14" d="M567.41,72.39,531,151.33l29.9,69-38.16,5-22-51-15.87,2.08-2.48,54.26-36.14,4.74,6.52-147.94,36.15-4.75-2.74,61.65L499,142.66,529.25,77.4Z"/><path class="cls-14" d="M574.82,206.66q-1.68-12.85,3.16-19.52t17.1-8.27q16.86-2.2,18.82,12.65,1.65,12.66-3.3,19.23t-17.21,8.18Q576.71,221.12,574.82,206.66Zm33.89-46.08L582,164.08,582.51,56l34.14-4.49Z"/><path class="cls-14" d="M633.86,198.91q-1.68-12.85,3.16-19.52t17.1-8.27q16.86-2.2,18.82,12.65,1.66,12.64-3.3,19.23t-17.21,8.18Q635.77,213.37,633.86,198.91Zm33.85-46.08L641,156.33l.51-108.13,34.14-4.49Z"/><path class="cls-14" d="M692.91,191.16q-1.7-12.85,3.15-19.52t17.1-8.27Q730,161.17,732,176q1.66,12.64-3.3,19.23t-17.21,8.18Q694.81,205.62,692.91,191.16Zm33.8-46.09L700,148.58l.51-108.14L734.65,36Z"/></g></g></g></svg>